<svg width="111" height="39" viewBox="0 0 111 39" fill="none" xmlns="http://www.w3.org/2000/svg">
<path d="M84.3327 35.3481C87.8193 35.3481 90.6458 32.5257 90.6458 29.0442C90.6458 25.5626 87.8193 22.7402 84.3327 22.7402C80.846 22.7402 78.0195 25.5626 78.0195 29.0442C78.0195 32.5257 80.846 35.3481 84.3327 35.3481Z" fill="#1D1D1B"/>
<path d="M24.6647 35.0053C28.1514 35.0053 30.9779 32.183 30.9779 28.7014C30.9779 25.2198 28.1514 22.3975 24.6647 22.3975C21.1781 22.3975 18.3516 25.2198 18.3516 28.7014C18.3516 32.183 21.1781 35.0053 24.6647 35.0053Z" fill="#1D1D1B"/>
<path d="M2.86878 11.9409C3.77459 15.9744 2.6515 18.8162 2.03947 19.9804C1.8681 20.3074 1.6141 20.5794 1.33257 20.8177C-0.307691 22.1989 0.145216 25.3616 0.145216 25.3616C0.512437 29.1659 6.07584 30.7824 7.6855 31.1705C7.95479 31.2346 8.22409 31.2713 8.49951 31.2805L51.9265 32.8083L78.7612 33.4073L103.117 32.0597C103.399 32.0444 103.677 32.0169 103.956 31.9772L107.805 31.418C108.693 31.2896 109.424 30.6541 109.666 29.7923C110.061 28.3959 110.101 26.4677 110.085 25.3402C110.079 24.8268 109.856 24.3318 109.458 24.0079C108.163 22.9445 108.769 21.9361 108.769 21.9361C109.4 21.3066 109.4 20.4327 109.28 19.791C109.186 19.2837 108.849 18.8498 108.381 18.6329C99.0564 14.2938 88.0336 12.6406 85.6589 12.3228C85.3437 12.28 85.0377 12.1884 84.7531 12.0478C73.3111 6.52919 62.5637 3.07318 60.3298 2.37647C60.0574 2.29091 59.7789 2.21758 59.4974 2.15646C37.3937 -2.56156 15.2625 2.15646 11.7035 2.9815C11.4281 3.04567 11.2567 3.32069 11.3179 3.5957L11.5566 4.67437C11.6454 5.08078 11.4587 5.49636 11.0945 5.69498C7.50495 7.62925 4.42947 9.96076 3.24518 10.8989C2.93304 11.1464 2.78921 11.5497 2.87796 11.9378L2.86878 11.9409Z" fill="white" stroke="#1D1D1B" stroke-width="0.176946" stroke-linecap="round" stroke-linejoin="round"/>
<path d="M4.02109 12.4363C4.17409 12.9558 4.20163 13.5425 4.18633 14.0253C4.16797 14.6059 4.56886 15.1131 5.14111 15.2231L7.424 15.6693C7.78511 15.7395 8.14927 15.5959 8.37266 15.3056C9.44678 13.9153 10.7137 13.2736 11.3533 13.02C11.5858 12.9283 11.8307 12.8794 12.0816 12.8763C17.1493 12.7999 16.8218 11.8955 16.8218 11.8955C14.2084 11.4677 12.3203 11.1682 12.3203 11.1682C11.4022 11.0735 10.6923 10.3279 10.4689 9.98258C10.2761 9.68006 9.92723 9.51505 9.57531 9.58228C7.11493 10.0529 5.51751 10.6609 4.60252 11.0949C4.09759 11.3332 3.86501 11.9046 4.02414 12.4394L4.02109 12.4363Z" fill="#BB2916"/>
<path d="M16.0415 6.86248C17.7154 8.97704 20.7572 9.55762 22.0731 9.71346C22.4587 9.7593 22.8442 9.60345 23.0921 9.30094L27.358 4.13678C27.4284 4.05122 27.3519 3.92289 27.2448 3.94122C21.969 4.84571 17.5104 6.03438 16.1884 6.40107C15.9894 6.45607 15.916 6.69747 16.0445 6.85942L16.0415 6.86248Z" fill="#1D1D1B"/>
<path d="M30.5499 3.73991C28.3405 6.27921 27.9641 8.66878 27.909 9.67105C27.8937 9.94301 28.1079 10.1691 28.3802 10.1752C34.9688 10.2883 41.8144 10.8322 43.9994 11.0186C44.3789 11.0522 44.7002 10.7436 44.6849 10.3647L44.3942 3.13488C44.3789 2.78958 44.0973 2.51763 43.7515 2.51763C37.267 2.51151 32.7318 3.09821 31.3364 3.306C31.0304 3.35183 30.7549 3.50768 30.553 3.74297L30.5499 3.73991Z" fill="#1D1D1B"/>
<path d="M48.4333 3.11937L49.5013 10.9817C49.5411 11.272 49.7767 11.492 50.0674 11.5165L70.3166 13.1329C70.6685 13.1604 70.9562 12.8579 70.9134 12.5096L70.4329 8.80911C70.3962 8.51576 70.2095 8.25908 69.9433 8.12768C60.3986 3.52578 51.0834 2.76796 48.8648 2.65185C48.6077 2.63962 48.3996 2.86269 48.4333 3.11937Z" fill="#1D1D1B"/>
<path d="M98.9731 17.1778C98.7925 17.1595 98.6885 17.3765 98.8109 17.5079C101.32 20.1663 103.438 20.5972 103.438 20.5972L107.444 21.4467C107.985 21.5628 108.484 21.1106 108.417 20.5605C108.374 20.2275 108.273 19.928 108.178 19.7049C108.074 19.4605 107.869 19.271 107.618 19.1793C103.857 17.8043 100.264 17.3184 98.9731 17.1809V17.1778Z" fill="white" stroke="#1D1D1B" stroke-width="0.176946" stroke-linecap="round" stroke-linejoin="round"/>
<path d="M103.115 26.8008C105.316 26.8314 106.873 27.2683 107.632 27.5372C107.92 27.6381 108.057 27.965 107.938 28.2461L107.546 29.1537C107.421 29.444 107.136 29.6304 106.821 29.6334L103.746 29.6671C103.44 29.6701 103.152 29.5082 103.014 29.2362C102.684 28.5915 102.546 27.9559 102.491 27.4975C102.445 27.1247 102.742 26.7977 103.118 26.8008H103.115Z" fill="white" stroke="#1D1D1B" stroke-width="0.176946" stroke-linecap="round" stroke-linejoin="round"/>
<path d="M31.0328 14.2352L25.8864 13.9137C25.6655 13.8999 25.4751 14.0675 25.4613 14.2882C25.4475 14.5088 25.6154 14.6989 25.8364 14.7127L30.9827 15.0342C31.2037 15.048 31.394 14.8803 31.4078 14.6597C31.4217 14.439 31.2537 14.249 31.0328 14.2352Z" fill="white" stroke="#1D1D1B" stroke-width="0.176946" stroke-linecap="round" stroke-linejoin="round"/>
<path d="M56.1228 16.2004L50.9799 15.8278C50.7591 15.8118 50.5671 15.9776 50.5511 16.1981C50.535 16.4186 50.7011 16.6103 50.9219 16.6263L56.0648 16.9989C56.2856 17.0149 56.4776 16.8491 56.4936 16.6286C56.5096 16.4081 56.3436 16.2164 56.1228 16.2004Z" fill="white" stroke="#1D1D1B" stroke-width="0.176946" stroke-linecap="round" stroke-linejoin="round"/>
<path d="M28.4883 31.9308C28.5893 31.3594 28.6413 30.901 28.6413 30.3021C28.6413 24.7529 24.1367 20.2549 18.5795 20.2549C13.0222 20.2549 8.51758 24.7529 8.51758 30.3021C8.51758 30.6535 8.53594 30.9988 8.5696 31.338L28.4883 31.9308Z" fill="white" stroke="#1D1D1B" stroke-width="0.176946" stroke-linecap="round" stroke-linejoin="round"/>
<path d="M99.4923 32.3004C99.6178 31.6617 99.6882 31.0047 99.6882 30.3294C99.6882 24.7802 95.1836 20.2822 89.6263 20.2822C84.069 20.2822 79.5645 24.7802 79.5645 30.3294C79.5645 31.3714 79.7236 32.3767 80.0174 33.321L99.4923 32.3004Z" fill="white" stroke="#1D1D1B" stroke-width="0.176946" stroke-linecap="round" stroke-linejoin="round"/>
<path d="M89.7804 38.3512C94.3352 38.3512 98.0276 34.6642 98.0276 30.116C98.0276 25.5679 94.3352 21.8809 89.7804 21.8809C85.2256 21.8809 81.5332 25.5679 81.5332 30.116C81.5332 34.6642 85.2256 38.3512 89.7804 38.3512Z" fill="#1D1D1B"/>
<path d="M89.8465 35.4205C92.8295 35.4205 95.2478 33.0058 95.2478 30.0271C95.2478 27.0485 92.8295 24.6338 89.8465 24.6338C86.8635 24.6338 84.4453 27.0485 84.4453 30.0271C84.4453 33.0058 86.8635 35.4205 89.8465 35.4205Z" fill="white"/>
<path d="M18.1085 38.1803C22.6633 38.1803 26.3557 34.4933 26.3557 29.9451C26.3557 25.397 22.6633 21.71 18.1085 21.71C13.5537 21.71 9.86133 25.397 9.86133 29.9451C9.86133 34.4933 13.5537 38.1803 18.1085 38.1803Z" fill="#1D1D1B"/>
<path d="M18.1747 35.2496C21.1577 35.2496 23.5759 32.8349 23.5759 29.8562C23.5759 26.8776 21.1577 24.4629 18.1747 24.4629C15.1916 24.4629 12.7734 26.8776 12.7734 29.8562C12.7734 32.8349 15.1916 35.2496 18.1747 35.2496Z" fill="white"/>
<path d="M72.1348 9.08496C74.7005 13.951 73.9042 24.9216 73.6388 31.4686" stroke="black" stroke-width="0.176946" stroke-linecap="round"/>
<path d="M22.8558 9.35059C17.2821 13.7742 29.226 25.6296 33.6515 30.6726" stroke="black" stroke-width="0.176946" stroke-linecap="round"/>
<path d="M46.3008 2.80371C47.9287 13.8451 47.9228 26.1606 47.7163 30.9381" stroke="black" stroke-width="0.176946" stroke-linecap="round"/>
<path d="M28.6934 30.3184C48.1574 31.4508 70.7181 31.557 79.5654 31.4685" stroke="black" stroke-width="0.176946" stroke-linecap="round"/>
</svg>
