<svg width="115" height="37" viewBox="0 0 115 37" fill="none" xmlns="http://www.w3.org/2000/svg">
<path d="M90.2443 34.0969C94.5332 34.0969 98.01 30.6201 98.01 26.3312C98.01 22.0423 94.5332 18.5654 90.2443 18.5654C85.9554 18.5654 82.4785 22.0423 82.4785 26.3312C82.4785 30.6201 85.9554 34.0969 90.2443 34.0969Z" fill="#1D1D1B"/>
<path d="M28.8341 34.0969C33.123 34.0969 36.5999 30.6201 36.5999 26.3312C36.5999 22.0423 33.123 18.5654 28.8341 18.5654C24.5452 18.5654 21.0684 22.0423 21.0684 26.3312C21.0684 30.6201 24.5452 34.0969 28.8341 34.0969Z" fill="#1D1D1B"/>
<path d="M0.225939 25.5905C0.290954 26.1692 0.697293 26.647 1.25317 26.8161C15.15 30.9902 42.0043 30.1775 42.0043 30.1775L85.1122 30.4213L102.962 30.7854C113.283 32.1215 113.163 28.6008 113.163 28.6008C113.043 27.385 113.891 25.3207 113.891 25.3207C114.34 24.1504 113.923 22.5119 113.676 21.7447C113.589 21.4651 113.602 21.1725 113.683 20.893C114.099 19.4626 113.355 18.0712 113.007 17.5315C112.912 17.382 112.792 17.252 112.652 17.1479C105.189 11.5337 87.8429 10.9062 84.4946 10.838C84.1208 10.8315 83.7567 10.7209 83.4316 10.5324C77.538 7.04743 68.9984 3.68276 66.1572 2.60021C65.4876 2.34664 64.8049 2.14834 64.1028 2.0053C51.5972 -0.514135 32.4147 0.175052 32.4147 0.175052C21.6613 0.175052 12.4909 1.34213 10.1537 1.81676C9.8611 1.87527 9.78308 2.25562 10.0269 2.42791C10.3487 2.65873 10.7648 2.83428 11.0769 2.94481C11.2589 3.00983 11.2882 3.25039 11.1289 3.35767C6.54211 6.48178 3.69447 9.55062 2.729 10.6624C2.36817 11.0785 2.18288 11.6214 2.23489 12.1676C2.30641 12.9088 2.59247 13.7053 2.7225 14.0368C2.76151 14.1409 2.82002 14.2351 2.87853 14.3294C3.96103 16.1012 0.843578 20.0282 0.843578 20.0282C-0.125139 21.2148 0.0536503 24.0983 0.225939 25.597V25.5905Z" fill="white" stroke="#1D1D1B" stroke-width="0.178523" stroke-miterlimit="10"/>
<path d="M16.5075 29.3553L33.9086 30.22C34.2239 29.2968 34.3995 28.3118 34.3995 27.2812C34.3995 22.2684 30.3361 18.208 25.3267 18.208C20.3173 18.208 16.2539 22.2716 16.2539 27.2812C16.2539 28.0159 16.3449 28.6726 16.5107 29.3553H16.5075Z" fill="white" stroke="#1D1D1B" stroke-width="0.178523" stroke-miterlimit="10"/>
<path d="M101.946 30.7569C102.326 29.7589 102.534 28.7641 102.534 27.6328C102.534 22.6199 98.4708 18.5596 93.4615 18.5596C88.4521 18.5596 84.3887 22.6232 84.3887 27.6328C84.3887 28.6146 84.548 29.5573 84.834 30.4448L101.946 30.7569Z" fill="white" stroke="#1D1D1B" stroke-width="0.178523" stroke-miterlimit="10"/>
<path d="M25.4498 36.085C29.9094 36.085 33.5246 32.4696 33.5246 28.0098C33.5246 23.55 29.9094 19.9346 25.4498 19.9346C20.9902 19.9346 17.375 23.55 17.375 28.0098C17.375 32.4696 20.9902 36.085 25.4498 36.085Z" fill="#1D1D1B"/>
<path d="M25.4468 34.027C28.7699 34.027 31.4639 31.3329 31.4639 28.0096C31.4639 24.6863 28.7699 21.9922 25.4468 21.9922C22.1236 21.9922 19.4297 24.6863 19.4297 28.0096C19.4297 31.3329 22.1236 34.027 25.4468 34.027Z" fill="white"/>
<path d="M93.4791 36.1758C97.9387 36.1758 101.554 32.5604 101.554 28.1006C101.554 23.6408 97.9387 20.0254 93.4791 20.0254C89.0195 20.0254 85.4043 23.6408 85.4043 28.1006C85.4043 32.5604 89.0195 36.1758 93.4791 36.1758Z" fill="#1D1D1B"/>
<path d="M93.48 34.1178C96.8031 34.1178 99.4971 31.4237 99.4971 28.1004C99.4971 24.7771 96.8031 22.083 93.48 22.083C90.1568 22.083 87.4629 24.7771 87.4629 28.1004C87.4629 31.4237 90.1568 34.1178 93.48 34.1178Z" fill="white"/>
<path d="M3.70046 11.1246C3.49567 11.8333 3.6647 12.8671 3.80773 13.5108C3.889 13.8749 4.20758 14.1317 4.57816 14.1512C5.40059 14.1967 6.03124 14.1154 6.28804 14.0732C6.36931 14.0602 6.44408 14.0374 6.51884 14.0049C8.59281 13.1174 9.96462 12.3989 10.7643 11.9471C11.0894 11.7618 11.0049 11.2709 10.6375 11.2026C7.76387 10.6695 5.36809 10.5915 4.42863 10.585C4.0938 10.585 3.79148 10.7995 3.70046 11.1246Z" fill="#BB2916"/>
<path d="M19.6689 3.94297L15.8136 7.79853C15.7486 7.86354 15.7811 7.97408 15.8688 7.99358C20.7254 9.15415 26.502 9.29068 27.8218 9.30693C27.9908 9.30693 28.1436 9.21266 28.2184 9.05987C29.3626 6.69973 31.3683 3.72516 31.8592 3.00347C31.9047 2.9352 31.8527 2.84742 31.7714 2.85067C26.6157 3.05223 21.5446 3.54311 20.2313 3.67315C20.02 3.6959 19.8217 3.78693 19.6722 3.93972L19.6689 3.94297Z" fill="#1D1D1B"/>
<path d="M32.5823 2.94434L28.9226 9.37116C27.1373 13.2987 34.9923 24.1886 38.3843 28.7409" stroke="black" stroke-width="0.178523" stroke-linecap="round"/>
<path d="M33.1147 3.06551L29.8802 8.96262C29.7925 9.12516 29.903 9.32347 30.0883 9.32997L50.3501 10.1167C50.5711 10.1264 50.7467 9.93463 50.7207 9.71357C50.3598 6.62198 50.1746 3.66042 50.1128 2.51936C50.0965 2.24303 49.8657 2.03173 49.5894 2.03823C42.0087 2.24304 35.2277 2.6364 33.6348 2.73067C33.417 2.74368 33.2187 2.86721 33.1147 3.06226V3.06551Z" fill="#1D1D1B"/>
<path d="M53.8663 2.58423L55.8525 10.045C55.9175 10.2888 56.1288 10.4644 56.3823 10.4806L76.9627 11.7972C77.161 11.8102 77.3398 11.6672 77.3658 11.4689L77.5511 10.1686C77.5739 10.0093 77.4991 9.85322 77.3626 9.76869C72.2719 6.68035 67.1553 4.56402 64.7497 3.64077C63.8493 3.29617 62.9131 3.06211 61.9541 2.94508C58.7261 2.54847 55.4916 2.23639 54.2531 2.12261C53.9963 2.09985 53.7948 2.33716 53.863 2.58748L53.8663 2.58423Z" fill="#1D1D1B"/>
<path d="M102.661 16.6762C104.94 19.0591 109.458 19.6671 110.807 19.8003C111.129 19.8329 111.451 19.6963 111.636 19.4297C111.981 18.9389 111.939 18.2952 111.848 17.8498C111.783 17.5345 111.536 17.2874 111.223 17.2159C107.823 16.4357 104.163 16.3056 102.837 16.2861C102.632 16.2861 102.521 16.53 102.664 16.6795L102.661 16.6762Z" fill="white" stroke="#1D1D1B" stroke-width="0.178523" stroke-miterlimit="10"/>
<path d="M111.248 27.255H107.698C107.321 27.255 107.107 26.8226 107.338 26.5236L108.82 24.586C109.025 24.3162 109.346 24.1602 109.685 24.1602H111.199C111.674 24.1602 112.061 24.547 112.061 25.0216V26.4455C112.061 26.8942 111.697 27.2583 111.248 27.2583V27.255Z" fill="white" stroke="#1D1D1B" stroke-width="0.178523" stroke-miterlimit="10"/>
<path d="M34.5795 12.7273C36.1002 12.7273 37.3329 12.4624 37.3329 12.1356C37.3329 11.8088 36.1002 11.5439 34.5795 11.5439C33.0589 11.5439 31.8262 11.8088 31.8262 12.1356C31.8262 12.4624 33.0589 12.7273 34.5795 12.7273Z" fill="white" stroke="#1D1D1B" stroke-width="0.178523" stroke-miterlimit="10"/>
<path d="M61.7235 13.7862C61.7406 13.4599 60.5234 13.1309 59.0049 13.0513C57.4863 12.9717 56.2414 13.1717 56.2243 13.498C56.2072 13.8243 57.4244 14.1534 58.943 14.233C60.4615 14.3126 61.7064 14.1126 61.7235 13.7862Z" fill="white" stroke="#1D1D1B" stroke-width="0.178523" stroke-miterlimit="10"/>
<path d="M51.7715 2.40918C54.1994 10.3356 54.6874 23.3261 54.6279 28.8306" stroke="black" stroke-width="0.178523" stroke-linecap="round"/>
<path d="M77.3926 9.90723C82.3198 13.9061 82.5697 24.3081 82.0342 29.0092" stroke="black" stroke-width="0.178523" stroke-linecap="round"/>
<path d="M34.3672 28.7412C54.0047 28.9554 75.963 29.0983 84.4429 29.009" stroke="black" stroke-width="0.178523" stroke-linecap="round"/>
</svg>
