<svg width="111" height="42" viewBox="0 0 111 42" fill="none" xmlns="http://www.w3.org/2000/svg">
<path d="M84.9929 39.1431C89.4838 39.1431 93.1244 35.5033 93.1244 31.0134C93.1244 26.5236 89.4838 22.8838 84.9929 22.8838C80.502 22.8838 76.8613 26.5236 76.8613 31.0134C76.8613 35.5033 80.502 39.1431 84.9929 39.1431Z" fill="#1D1D1B"/>
<path d="M26.3488 40.2413C31.1517 40.2413 35.0452 36.3487 35.0452 31.5469C35.0452 26.7451 31.1517 22.8525 26.3488 22.8525C21.5459 22.8525 17.6523 26.7451 17.6523 31.5469C17.6523 36.3487 21.5459 40.2413 26.3488 40.2413Z" fill="#1D1D1B"/>
<path d="M0.380117 29.0242C0.0589832 33.2008 6.48452 34.058 6.48452 34.058C15.482 36.0932 35.4037 36.0932 35.4037 36.0932L96.4535 36.7354C103.243 36.8987 106.615 36.056 108.292 35.1931C109.253 34.7001 109.706 33.5907 109.391 32.5587C108.978 31.2143 109.732 29.7753 109.732 29.7753C110.687 27.8661 109.514 25.0741 108.849 23.7612C108.616 23.3025 108.551 22.7837 108.608 22.2734C108.837 20.2983 107.642 18.2802 106.922 17.2683C106.615 16.8355 106.194 16.4972 105.703 16.2908C96.1611 12.2403 79.9553 12.7506 79.9553 12.7506C67.1042 2.79205 58.749 1.07784 58.749 1.07784C45.1467 -1.81455 25.1189 2.57706 25.1189 2.57706C18.6102 4.17949 8.36831 9.85247 6.01142 11.1826C5.69029 11.3632 5.34048 11.4836 4.97921 11.5495C1.66178 12.1343 1.66178 13.3927 1.66178 13.3927C1.42954 15.3735 1.44961 16.6893 1.51555 17.4747C1.55283 17.9019 1.66752 18.3146 1.78794 18.7274C2.26104 20.3729 0.377249 23.6723 0.377249 23.6723C-0.265018 24.9565 0.377249 29.0271 0.377249 29.0271L0.380117 29.0242Z" fill="white" stroke="#1D1D1B" stroke-width="0.183289" stroke-miterlimit="10"/>
<path d="M98.3473 36.7725C99.3136 35.3306 99.6061 33.5963 99.6061 31.7502C99.6061 26.6534 95.0844 22.5312 89.8115 22.5312C84.5386 22.5312 80.0312 26.6247 80.0312 31.7244C80.0312 33.4673 80.232 35.15 81.1036 36.5403L98.3473 36.7725Z" fill="white" stroke="#1D1D1B" stroke-width="0.183289" stroke-miterlimit="10"/>
<path d="M31.6668 36.0997C32.2718 34.8671 32.4496 33.6488 32.4496 32.184C32.4496 27.0499 27.9681 22.8848 22.8357 22.8848C17.7033 22.8848 13.0898 27.0901 13.0898 32.2241C13.0898 33.2876 13.1816 34.1648 13.5113 35.1165L31.6668 36.0997Z" fill="white" stroke="#1D1D1B" stroke-width="0.183289" stroke-linecap="round" stroke-linejoin="round"/>
<path d="M30.01 4.09375C24.5163 4.6298 20.3875 7.60819 19.5244 8.27323C19.4154 8.35637 19.3323 8.46529 19.2807 8.59429L18.9366 9.42561C18.8449 9.64634 18.9424 9.91866 19.1689 9.99893C23.3751 11.5125 26.0474 11.6443 26.9879 11.5383C27.2001 11.5154 27.3836 11.3778 27.461 11.18L30.1992 4.35174C30.2508 4.22274 30.1476 4.08515 30.01 4.09948V4.09375Z" fill="#1D1D1B"/>
<path d="M32.5301 3.98683L29.2643 11.2594C29.1898 11.4256 29.313 11.612 29.4937 11.6062C37.6769 11.4314 46.1296 11.7782 47.6578 11.8442C47.7897 11.8499 47.8958 11.741 47.8901 11.6091L47.5144 3.01505C47.5058 2.82299 47.3453 2.67393 47.156 2.6768C40.5241 2.81439 34.2361 3.54537 32.9 3.70877C32.7366 3.72883 32.5989 3.83204 32.533 3.9811L32.5301 3.98683Z" fill="#1D1D1B"/>
<path d="M50.7835 3.02121L52.5526 11.598C52.6042 11.8446 52.8164 12.0252 53.0687 12.0366L72.698 12.8364C72.8901 12.845 73.0506 12.6988 73.0621 12.5068L73.0793 12.223C73.0908 12.028 73.0076 11.8388 72.8585 11.7156C67.3964 7.2265 61.6074 4.6437 59.6806 3.85252C59.1932 3.65186 58.6914 3.49993 58.1724 3.39673C55.6664 2.89221 52.1741 2.73169 51.0645 2.69155C50.8838 2.68582 50.7462 2.84921 50.7835 3.02694V3.02121Z" fill="#1D1D1B"/>
<path d="M89.8898 41.9551C94.6927 41.9551 98.5862 38.0625 98.5862 33.2608C98.5862 28.459 94.6927 24.5664 89.8898 24.5664C85.0869 24.5664 81.1934 28.459 81.1934 33.2608C81.1934 38.0625 85.0869 41.9551 89.8898 41.9551Z" fill="#1D1D1B"/>
<path d="M89.8894 38.9226C93.0169 38.9226 95.5523 36.3879 95.5523 33.2611C95.5523 30.1344 93.0169 27.5996 89.8894 27.5996C86.7619 27.5996 84.2266 30.1344 84.2266 33.2611C84.2266 36.3879 86.7619 38.9226 89.8894 38.9226Z" fill="white"/>
<path d="M22.6652 41.9551C27.4681 41.9551 31.3616 38.0625 31.3616 33.2608C31.3616 28.459 27.4681 24.5664 22.6652 24.5664C17.8623 24.5664 13.9688 28.459 13.9688 33.2608C13.9688 38.0625 17.8623 41.9551 22.6652 41.9551Z" fill="#1D1D1B"/>
<path d="M22.6648 38.9226C25.7923 38.9226 28.3276 36.3879 28.3276 33.2611C28.3276 30.1344 25.7923 27.5996 22.6648 27.5996C19.5373 27.5996 17.002 30.1344 17.002 33.2611C17.002 36.3879 19.5373 38.9226 22.6648 38.9226Z" fill="white"/>
<path d="M2.92107 14.4883H9.30647C9.77097 14.4883 10.1609 14.8695 10.1408 15.3368C10.0892 16.5895 8.47783 18.0343 7.82123 18.5703C7.65206 18.7108 7.43988 18.7853 7.2191 18.7853H3.19633C2.901 18.7853 2.64008 18.6047 2.52826 18.3352C2.07236 17.2488 2.20139 15.7782 2.31608 15.01C2.36196 14.7119 2.61714 14.4911 2.92107 14.4911V14.4883Z" fill="#BB2916"/>
<path d="M34.4813 15.7002H29.647C29.3145 15.7002 29.0449 15.9697 29.0449 16.3022C29.0449 16.6346 29.3145 16.9042 29.647 16.9042H34.4813C34.8138 16.9042 35.0834 16.6346 35.0834 16.3022C35.0834 15.9697 34.8138 15.7002 34.4813 15.7002Z" fill="white" stroke="#1D1D1B" stroke-width="0.183289" stroke-miterlimit="10"/>
<path d="M58.3855 15.9443H53.5513C53.2188 15.9443 52.9492 16.2139 52.9492 16.5463C52.9492 16.8788 53.2188 17.1483 53.5513 17.1483H58.3855C58.7181 17.1483 58.9877 16.8788 58.9877 16.5463C58.9877 16.2139 58.7181 15.9443 58.3855 15.9443Z" fill="white" stroke="#1D1D1B" stroke-width="0.183289" stroke-miterlimit="10"/>
<path d="M107.879 18.9599C104.504 17.5065 100.249 17.3976 98.9387 17.4004C98.6491 17.4004 98.414 17.6412 98.4284 17.9279C98.4456 18.2604 98.5717 18.6359 98.6864 18.914C98.7925 19.1691 99.0305 19.3383 99.3057 19.3583C104.682 19.7683 108.521 22.9473 108.521 22.9473" stroke="#1D1D1B" stroke-width="0.183289" stroke-linecap="round" stroke-linejoin="round"/>
<path d="M32.2285 34.5605C50.1176 35.367 71.7885 35.2937 80.4336 35.1104" stroke="black" stroke-width="0.183289" stroke-linecap="round"/>
<path d="M48.9082 2.75977C51.5476 14.5636 51.963 29.1229 51.8408 34.927" stroke="black" stroke-width="0.183289" stroke-linecap="round"/>
<path d="M72.918 11.9238C77.4086 16.5977 77.7751 26.4953 76.5838 35.2016" stroke="black" stroke-width="0.183289" stroke-linecap="round"/>
<path d="M31.2211 4.13477L28.1968 11.8329C26.7304 19.0728 34.5203 31.6282 35.6201 34.6524" stroke="black" stroke-width="0.183289" stroke-linecap="round"/>
</svg>
