<svg width="111" height="43" viewBox="0 0 111 43" fill="none" xmlns="http://www.w3.org/2000/svg">
<path d="M20.7478 40.4119C24.6547 40.4119 27.8218 37.2458 27.8218 33.3402C27.8218 29.4346 24.6547 26.2686 20.7478 26.2686C16.841 26.2686 13.6738 29.4346 13.6738 33.3402C13.6738 37.2458 16.841 40.4119 20.7478 40.4119Z" fill="#1D1D1B"/>
<path d="M88.3318 41.1345C92.2387 41.1345 95.4058 37.9684 95.4058 34.0629C95.4058 30.1573 92.2387 26.9912 88.3318 26.9912C84.4249 26.9912 81.2578 30.1573 81.2578 34.0629C81.2578 37.9684 84.4249 41.1345 88.3318 41.1345Z" fill="#1D1D1B"/>
<path d="M3.54684 2.4241C1.46919 9.28558 1.52452 23.6474 1.56878 27.1542C1.57432 27.6492 1.46919 28.1387 1.24787 28.5812C0.606035 29.8728 0.276818 30.8988 0.132959 31.7091C-0.12986 33.197 0.835656 34.6213 2.29914 34.9864C9.13521 36.7011 26.2766 36.6153 26.2766 36.6153L82.5974 37.8543C96.9061 37.8543 109.673 36.3056 109.673 36.3056C110.384 35.4648 110.044 35.0306 109.69 34.8204C109.438 34.6711 109.28 34.4056 109.3 34.1124C109.604 29.6073 109.17 25.4838 108.913 23.5755C108.824 22.9145 108.462 22.3282 107.928 21.9327C106.791 21.0864 106.099 20.0715 105.717 19.3718C105.399 18.7882 104.92 18.3098 104.328 18.0166C99.4898 15.6216 93.1102 13.9014 90.7033 13.2985C90.0532 13.1353 89.4418 12.8532 88.8968 12.466C78.633 5.16206 72.6351 2.43793 69.8133 1.43678C68.7897 1.07449 67.719 0.864301 66.6346 0.803457C40.4163 -0.642956 5.97308 0.560082 5.97308 0.560082C3.95906 0.86983 3.54408 2.41857 3.54408 2.41857L3.54684 2.4241Z" fill="white" stroke="#1D1D1B" stroke-width="0.181112" stroke-miterlimit="10"/>
<path d="M100.708 36.8214C100.889 36.0064 100.889 35.9158 100.979 34.894C100.979 30.055 97.0055 26.1357 92.105 26.1357C87.2045 26.1357 83.2305 30.0577 83.2305 34.894C83.2305 35.8874 83.3992 36.8399 83.7089 37.7269L100.617 37.093L100.708 36.8214Z" fill="white" stroke="#1D1D1B" stroke-width="0.181112" stroke-miterlimit="10"/>
<path d="M24.9313 36.5651C25.0806 35.9097 25.1636 35.2266 25.1636 34.5241C25.1636 29.4686 21.0637 25.3672 16.0037 25.3672C10.9437 25.3672 6.84375 29.4658 6.84375 34.5241C6.84375 34.903 6.86865 35.2764 6.91291 35.6414L24.9285 36.5651H24.9313Z" fill="white" stroke="#1D1D1B" stroke-width="0.181112" stroke-miterlimit="10"/>
<path d="M92.0578 42.7991C96.2534 42.7991 99.6547 39.399 99.6547 35.2047C99.6547 31.0105 96.2534 27.6104 92.0578 27.6104C87.8622 27.6104 84.4609 31.0105 84.4609 35.2047C84.4609 39.399 87.8622 42.7991 92.0578 42.7991Z" fill="#1D1D1B"/>
<path d="M92.0577 40.3346C94.8919 40.3346 97.1896 38.0378 97.1896 35.2044C97.1896 32.3711 94.8919 30.0742 92.0577 30.0742C89.2234 30.0742 86.9258 32.3711 86.9258 35.2044C86.9258 38.0378 89.2234 40.3346 92.0577 40.3346Z" fill="white"/>
<path d="M15.6887 42.4895C19.8843 42.4895 23.2855 39.0894 23.2855 34.8951C23.2855 30.7009 19.8843 27.3008 15.6887 27.3008C11.493 27.3008 8.0918 30.7009 8.0918 34.8951C8.0918 39.0894 11.493 42.4895 15.6887 42.4895Z" fill="#1D1D1B"/>
<path d="M15.6885 40.0251C18.5228 40.0251 20.8204 37.7282 20.8204 34.8949C20.8204 32.0615 18.5228 29.7646 15.6885 29.7646C12.8543 29.7646 10.5566 32.0615 10.5566 34.8949C10.5566 37.7282 12.8543 40.0251 15.6885 40.0251Z" fill="white"/>
<path d="M4.16649 14.3057H5.00198C5.14031 14.3057 5.25373 14.4191 5.25373 14.5573V23.3879C5.25373 23.5926 5.08774 23.7585 4.88302 23.7585H4.10563C3.48593 23.7585 2.98242 23.2552 2.98242 22.6357V15.4949C2.98242 14.8394 3.51359 14.3084 4.16926 14.3084L4.16649 14.3057Z" fill="#BB2916"/>
<path d="M59.0751 3.27288L59.4818 11.2268C59.5039 11.6554 59.7253 12.0509 60.0794 12.2943L62.6882 14.0781C62.9455 14.2551 63.247 14.3547 63.5596 14.3713L77.3397 15.0018C77.8819 15.0267 78.3273 14.5787 78.2969 14.0366L77.987 8.08504C77.9705 7.75593 77.7823 7.46001 77.4946 7.30514C72.2908 4.50081 70.3487 3.50243 69.6737 3.16779C69.4634 3.0627 69.2338 2.99908 68.9986 2.98249L59.4597 2.32428C59.2356 2.30768 59.0447 2.49298 59.053 2.71699L59.0751 3.27288Z" fill="#1D1D1B"/>
<path d="M9.81753 4.57833L8.62793 12.1257C8.5477 12.6262 8.92671 13.0826 9.43299 13.0992L53.0859 14.482C53.4151 14.493 53.689 14.2331 53.6945 13.904L53.902 2.60922C53.9103 2.16119 53.5507 1.7906 53.0997 1.78507C30.1183 1.52787 19.2541 1.85144 17.0077 1.93164C16.7117 1.94271 16.4185 1.97589 16.1307 2.04227C13.5938 2.60369 11.4802 3.35593 10.5009 3.73205C10.1385 3.87033 9.8784 4.19391 9.81753 4.57833Z" fill="#1D1D1B"/>
<path d="M64.1733 17.4795H59.1632C58.8347 17.4795 58.5684 17.7457 58.5684 18.0741C58.5684 18.4025 58.8347 18.6687 59.1632 18.6687H64.1733C64.5018 18.6687 64.7681 18.4025 64.7681 18.0741C64.7681 17.7457 64.5018 17.4795 64.1733 17.4795Z" fill="white" stroke="#1D1D1B" stroke-width="0.181112" stroke-miterlimit="10"/>
<path d="M53.4487 17.4824H48.4386C48.1101 17.4824 47.8438 17.7486 47.8438 18.077C47.8438 18.4054 48.1101 18.6716 48.4386 18.6716H53.4487C53.7772 18.6716 54.0435 18.4054 54.0435 18.077C54.0435 17.7486 53.7772 17.4824 53.4487 17.4824Z" fill="white" stroke="#1D1D1B" stroke-width="0.181112" stroke-miterlimit="10"/>
<path d="M109.36 28.147L107.039 27.4168C106.856 27.3588 106.676 27.5109 106.704 27.7017L107.537 33.6394C107.562 33.8081 107.681 33.9492 107.847 33.999L109.282 34.4221" stroke="#1D1D1B" stroke-width="0.181112" stroke-linecap="round" stroke-linejoin="round"/>
<path d="M104.079 18.6861C101.558 17.6103 99.2483 17.0655 98.3713 16.8829C98.0034 16.8055 97.6409 17.0627 97.605 17.4361C97.569 17.8094 97.6492 18.2021 97.6492 18.2021C97.9978 20.6027 102.184 20.7216 102.184 20.7216C103.279 20.8073 103.987 20.7078 104.433 20.5778C104.878 20.4478 105.088 19.9528 104.881 19.549C104.806 19.4024 104.72 19.2669 104.643 19.1535C104.502 18.9488 104.308 18.7829 104.079 18.6861Z" stroke="#1D1D1B" stroke-width="0.181112" stroke-linecap="round" stroke-linejoin="round"/>
<path d="M29.0781 13.6396V36.6409" stroke="black" stroke-width="0.181112" stroke-linecap="round"/>
<path d="M56.3359 2.04785V37.0931" stroke="black" stroke-width="0.181112" stroke-linecap="round"/>
<path d="M80.334 8.74902C84.3185 15.9211 82.5375 31.056 81.149 37.727" stroke="black" stroke-width="0.181112" stroke-linecap="round"/>
</svg>
