<svg width="111" height="43" viewBox="0 0 111 43" fill="none" xmlns="http://www.w3.org/2000/svg">
<path d="M85.8398 39.0709C90.7164 39.0709 94.6698 35.1158 94.6698 30.2371C94.6698 25.3583 90.7164 21.4033 85.8398 21.4033C80.9631 21.4033 77.0098 25.3583 77.0098 30.2371C77.0098 35.1158 80.9631 39.0709 85.8398 39.0709Z" fill="black"/>
<path d="M85.8402 36.3682C89.2253 36.3682 91.9694 33.6229 91.9694 30.2364C91.9694 26.8498 89.2253 24.1045 85.8402 24.1045C82.4551 24.1045 79.7109 26.8498 79.7109 30.2364C79.7109 33.6229 82.4551 36.3682 85.8402 36.3682Z" fill="white"/>
<path d="M33.834 30.5382C34.1801 25.6717 30.5173 21.446 25.653 21.0997C20.7886 20.7534 16.5646 24.4178 16.2185 29.2842C15.8724 34.1507 19.5352 38.3764 24.3995 38.7227C29.2639 39.069 33.4879 35.4046 33.834 30.5382Z" fill="black"/>
<path d="M31.1392 30.3468C31.3794 26.9688 28.837 24.0355 25.4604 23.7952C22.0839 23.5548 19.1518 26.0984 18.9116 29.4764C18.6713 32.8544 21.2138 35.7876 24.5904 36.028C27.9669 36.2683 30.8989 33.7248 31.1392 30.3468Z" fill="white"/>
<path d="M8.78572 1.81293C30.7745 -0.413395 49.7302 0.0579556 56.2044 0.318886C58.0428 0.39464 59.8727 0.676623 61.6227 1.24899C68.4082 3.46269 74.7899 8.0416 78.0417 10.6257C79.5478 11.8209 81.403 12.4985 83.3254 12.5448C96.7114 12.8646 103.215 14.5859 106.168 15.7896C107.371 16.2778 108.234 17.3636 108.44 18.6472C108.701 20.2969 109.374 22.4433 109.773 23.6469C109.946 24.1646 110.009 24.7201 109.908 25.2546C109.546 27.22 110.089 30.0776 110.089 30.0776C110.089 32.8763 102.424 34.6523 100.081 35.0774C99.6771 35.1489 98.8821 35.0774 98.4698 35.0774L69.9479 34.909L19.8117 34.3914C10.582 34.5008 5.25204 32.5565 2.57654 31.1003C1.01582 30.2544 0.0650935 28.5962 0.0903341 26.8244C0.123988 24.4339 0.784453 22.4138 1.25561 21.2691C1.57112 20.5074 1.72677 19.6909 1.73518 18.866C1.75201 17.5067 1.78566 16.021 1.81932 14.809C1.86138 13.2308 2.55129 11.7367 3.72077 10.6804L10.2917 4.1571C10.6241 3.82884 10.5946 3.28592 10.2329 2.99132L8.78572 1.81713V1.81293Z" fill="white" stroke="#1D1D1B" stroke-width="0.179128" stroke-linecap="round" stroke-linejoin="round"/>
<path d="M3.77552 12.086C3.93117 11.8124 4.22564 11.6483 4.54115 11.644C8.19683 11.6062 9.02136 13.7694 9.20225 14.9983C9.26535 15.4318 8.91619 15.8189 8.47868 15.8105L3.41794 15.7179C3.12768 15.7137 2.88368 15.478 2.87947 15.1877C2.85844 13.8914 3.42636 12.692 3.77552 12.0817V12.086Z" fill="#BB2916"/>
<path d="M19.05 2.84379L24.9563 2.73438C25.0278 2.73438 25.074 2.80591 25.0446 2.86904L21.8559 10.0236C21.8096 10.1288 21.696 10.2004 21.5824 10.2004C17.9856 10.1499 15.9874 8.76103 15.3438 8.22654C15.1461 8.06241 15.0788 7.79307 15.1671 7.54897C15.613 6.3327 17.9478 3.75706 18.6124 3.03739C18.726 2.91534 18.8817 2.848 19.05 2.84379Z" fill="black"/>
<path d="M27.06 2.75544L30.1394 2.67969C30.2319 2.67969 30.3076 2.75123 30.3076 2.84381V10.5792C30.3076 10.6886 30.2151 10.7727 30.1057 10.7727C26.6477 10.7012 24.6411 10.4781 23.9512 10.3856C23.8082 10.3687 23.7283 10.2172 23.7829 10.0868L26.7866 2.94483C26.8328 2.83541 26.9422 2.75965 27.06 2.75544Z" fill="black"/>
<path d="M31.3444 2.67511H46.5897C46.8295 2.67511 47.023 2.8645 47.0272 3.10439L47.187 10.8734C47.187 11.0081 47.0819 11.1175 46.9473 11.1175L31.6178 10.9071C31.4874 10.9071 31.3822 10.8018 31.378 10.6714L31.1719 2.84766C31.1719 2.75087 31.2476 2.6709 31.3444 2.6709V2.67511Z" fill="black"/>
<path d="M50.4713 2.68066L58.4347 2.76483C58.46 2.76483 58.4894 2.76483 58.5147 2.76904C65.3296 3.55604 73.2173 10.3739 74.8706 11.8679C74.98 11.969 74.9042 12.1499 74.757 12.1457L52.4191 11.4766C52.2298 11.4723 52.0741 11.3377 52.032 11.1567L50.261 2.93738C50.2315 2.80691 50.3325 2.68066 50.4713 2.68066Z" fill="black"/>
<path d="M48.4688 2.81934C51.5691 12.5874 51.342 34.6487 51.342 34.6487" stroke="black" stroke-width="0.179128" stroke-linecap="round" stroke-linejoin="round"/>
<path d="M108.067 17.6283L100.486 17.2832L101.98 19.4759C102.27 19.9051 102.741 20.1829 103.259 20.225L108.875 20.7258C108.656 19.2023 108.071 17.6241 108.071 17.6241H108.067V17.6283Z" fill="white" stroke="black" stroke-width="0.179128" stroke-linecap="round" stroke-linejoin="round"/>
<path d="M78.5762 34.9342C78.694 30.7551 80.0359 27.9901 81.5924 26.1804C84.1712 23.1755 88.3022 22.0476 92.143 23.003C95.8407 23.9205 97.8726 26.3193 97.8726 26.3193C100.7 29.4799 99.711 35.111 99.711 35.111L78.5762 34.9385V34.9342Z" fill="white" stroke="black" stroke-width="0.179128" stroke-linecap="round" stroke-linejoin="round"/>
<path d="M31.65 34.362C31.5322 30.1829 30.1902 27.4179 28.6337 25.6082C26.055 22.6033 21.9239 21.4754 18.0832 22.4307C14.3854 23.3482 12.3535 25.7471 12.3535 25.7471C9.52659 28.9077 10.5909 33.676 10.5909 33.676L31.65 34.3662V34.362Z" fill="white" stroke="black" stroke-width="0.179128" stroke-linecap="round" stroke-linejoin="round"/>
<path d="M89.7167 41.8287C94.5934 41.8287 98.5467 37.8737 98.5467 32.9949C98.5467 28.1161 94.5934 24.1611 89.7167 24.1611C84.8401 24.1611 80.8867 28.1161 80.8867 32.9949C80.8867 37.8737 84.8401 41.8287 89.7167 41.8287Z" fill="black"/>
<path d="M89.7172 39.1261C93.1023 39.1261 95.8464 36.3807 95.8464 32.9942C95.8464 29.6076 93.1023 26.8623 89.7172 26.8623C86.3321 26.8623 83.5879 29.6076 83.5879 32.9942C83.5879 36.3807 86.3321 39.1261 89.7172 39.1261Z" fill="white"/>
<path d="M29.2656 33.6378C29.6117 28.7713 25.949 24.5456 21.0846 24.1993C16.2202 23.853 11.9963 27.5174 11.6501 32.3838C11.304 37.2503 14.9668 41.476 19.8312 41.8223C24.6955 42.1686 28.9195 38.5042 29.2656 33.6378Z" fill="black"/>
<path d="M20.4554 39.1261C23.8405 39.1261 26.5847 36.3807 26.5847 32.9942C26.5847 29.6076 23.8405 26.8623 20.4554 26.8623C17.0703 26.8623 14.3262 29.6076 14.3262 32.9942C14.3262 36.3807 17.0703 39.1261 20.4554 39.1261Z" fill="white"/>
<path d="M58.2705 15.9746H57.3744C57.1136 15.6968 56.5457 15.499 55.8768 15.499C55.208 15.499 54.64 15.6926 54.3792 15.9746H53.5505C53.3443 15.9746 53.1719 16.1429 53.1719 16.3534C53.1719 16.5638 53.3401 16.7321 53.5505 16.7321H54.476C54.7662 16.9636 55.2837 17.1193 55.8768 17.1193C56.47 17.1193 56.9874 16.9636 57.2777 16.7321H58.2663C58.4724 16.7321 58.6449 16.5638 58.6449 16.3534C58.6449 16.1429 58.4766 15.9746 58.2663 15.9746H58.2705Z" fill="white" stroke="#1D1D1B" stroke-width="0.179128" stroke-linecap="round" stroke-linejoin="round"/>
<path d="M29.5849 15.2012H28.6889C28.4281 14.9234 27.8602 14.7256 27.1913 14.7256C26.5224 14.7256 25.9545 14.9192 25.6937 15.2012H24.8649C24.6588 15.2012 24.4863 15.3695 24.4863 15.5799C24.4863 15.7904 24.6546 15.9587 24.8649 15.9587H25.7904C26.0807 16.1902 26.5981 16.3459 27.1913 16.3459C27.7844 16.3459 28.3019 16.1902 28.5921 15.9587H29.5807C29.7869 15.9587 29.9593 15.7904 29.9593 15.5799C29.9593 15.3695 29.7911 15.2012 29.5807 15.2012H29.5849Z" fill="white" stroke="#1D1D1B" stroke-width="0.179128" stroke-linecap="round" stroke-linejoin="round"/>
<path d="M22.4447 22.0605C22.4447 22.0605 19.0582 17.8646 22.676 10.2555L26.0078 2.9873" stroke="#1D1D1B" stroke-width="0.179128" stroke-linecap="round" stroke-linejoin="round"/>
<path d="M0.193359 27.9775C2.68797 31.1003 10.1844 30.7342 10.1844 30.7342" stroke="#1D1D1B" stroke-width="0.179128" stroke-linecap="round" stroke-linejoin="round"/>
<path d="M31.6035 31.7686L78.8119 32.4125" stroke="#1D1D1B" stroke-width="0.179128" stroke-linecap="round" stroke-linejoin="round"/>
<path d="M100.002 32.2284C107.238 33.2637 110.09 30.082 110.09 30.082" stroke="#1D1D1B" stroke-width="0.179128" stroke-linecap="round" stroke-linejoin="round"/>
<path d="M109.768 23.6467L108.363 23.5078C107.926 23.4657 107.497 23.7014 107.332 24.1054C106.802 25.41 106.701 27.1229 106.697 28.1751C106.697 28.7685 107.126 29.2777 107.715 29.3703C109.15 29.5933 109.865 29.2146 109.865 29.2146" stroke="#1D1D1B" stroke-width="0.179128" stroke-linecap="round" stroke-linejoin="round"/>
<path d="M74.709 12.0107C80.9687 16.7706 75.7018 34.8085 75.7018 34.8085" stroke="black" stroke-width="0.179128" stroke-linecap="round" stroke-linejoin="round"/>
</svg>
