<svg width="117" height="36" viewBox="0 0 117 36" fill="none" xmlns="http://www.w3.org/2000/svg">
<path d="M91.07 33.0823C95.6521 33.0823 99.3666 29.5167 99.3666 25.1183C99.3666 20.7199 95.6521 17.1543 91.07 17.1543C86.488 17.1543 82.7734 20.7199 82.7734 25.1183C82.7734 29.5167 86.488 33.0823 91.07 33.0823Z" fill="#1D1D1B"/>
<path d="M28.1911 32.9866C32.7732 32.9866 36.4877 29.421 36.4877 25.0226C36.4877 20.6242 32.7732 17.0586 28.1911 17.0586C23.609 17.0586 19.8945 20.6242 19.8945 25.0226C19.8945 29.421 23.609 32.9866 28.1911 32.9866Z" fill="#1D1D1B"/>
<path d="M5.01043 9.26387L12.4462 8.84367C12.9809 8.81265 13.5009 8.68011 13.9857 8.45732C22.1236 4.72067 32.9321 1.68058 32.9321 1.68058C50.2334 -1.45256 62.3933 1.01504 62.3933 1.01504C71.11 2.55764 80.335 7.99764 82.8087 9.53178C83.314 9.84482 83.8605 10.0902 84.4392 10.2565C90.3238 11.9373 107.772 14.1145 107.772 14.1145C113.762 14.6729 115.131 17.7863 115.416 18.7592C115.481 18.982 115.578 19.1935 115.695 19.3965C117.479 22.5099 116.374 25.598 116.374 25.598C115.881 26.9262 116.474 28.6352 116.474 28.6352L116.277 29.8676L75.7431 30.5332L14.0503 29.6787C9.79919 29.109 3.17425 27.4959 3.17425 27.4959C-0.0897492 26.4525 0.110027 22.7497 0.110027 22.7497C0.230481 22.0503 0.165848 20.7756 0.0982766 19.8957C0.0571461 19.3712 0.212854 18.8551 0.536022 18.4292C1.71705 16.881 2.51322 13.2374 2.90102 11.0716C3.08023 10.0704 3.95573 9.32027 5.01337 9.26105L5.01043 9.26387Z" fill="white" stroke="#1D1D1B" stroke-width="0.182672" stroke-miterlimit="10"/>
<path d="M24.5569 8.92895C24.0986 6.22446 32.6096 3.89223 34.5721 3.39307C34.7749 3.34231 34.9746 3.48613 34.9746 3.68918L35.0334 8.99663C35.0334 9.19968 34.863 9.36324 34.6515 9.36042L24.5277 9.18479C24.3749 9.18479 24.5804 9.07277 24.5569 8.92895Z" fill="#1D1D1B"/>
<path d="M36.1002 3.11067C41.644 1.60191 48.6597 1.74291 50.6016 1.81624C50.8954 1.82752 51.1304 2.05313 51.1451 2.33514L51.4947 9.27544C51.5065 9.49541 51.3214 9.68153 51.0893 9.67589L36.2441 9.43619C36.0502 9.43337 35.8945 9.28108 35.8945 9.09214V3.37012C35.8945 3.24886 35.9768 3.14169 36.1002 3.10785V3.11067Z" fill="#1D1D1B"/>
<path d="M53.4951 2.39081L55.4282 9.47494C55.4928 9.71182 55.7102 9.88385 55.9658 9.89795L81.4873 11.2995C81.7954 11.2995 81.742 11.1922 81.6127 11.1019C74.7625 5.80444 67.4882 3.71908 65.3964 3.09302C65.0204 2.98021 64.6414 2.88715 64.2536 2.81665C59.4002 1.93395 55.3019 1.87755 53.8887 1.88883C53.6184 1.88883 53.4245 2.137 53.4951 2.38799V2.39081Z" fill="#1D1D1B"/>
<path d="M3.82771 12.2316C3.31652 12.3134 2.84352 14.8177 2.72012 15.5171C2.69368 15.6665 2.82883 15.7991 2.98453 15.7709C4.08918 15.5819 7.92313 13.2525 8.89263 12.6546C8.97783 12.6039 8.95139 12.477 8.85444 12.4572C5.96943 11.8312 3.82771 12.2316 3.82771 12.2316Z" fill="#BB2916"/>
<path d="M116.603 24.3451C114.943 23.8375 113.459 23.939 112.845 24.0152C112.66 24.0377 112.499 24.1449 112.405 24.3L109.088 29.85" stroke="#1D1D1B" stroke-width="0.182672" stroke-linecap="round" stroke-linejoin="round"/>
<path d="M114.576 17.1876C109.238 15.6056 106.156 15.9609 106.156 15.9609C107.243 17.9209 109.206 18.5695 109.931 18.75C110.096 18.7895 110.263 18.8064 110.434 18.7979C113.19 18.6626 115.252 18.3016 115.252 18.3016" stroke="#1D1D1B" stroke-width="0.182672" stroke-linecap="round" stroke-linejoin="round"/>
<path d="M32.7494 12.3262H27.1762C26.8955 12.3262 26.668 12.5446 26.668 12.814V13.0086C26.668 13.2781 26.8955 13.4965 27.1762 13.4965H32.7494C33.0301 13.4965 33.2577 13.2781 33.2577 13.0086V12.814C33.2577 12.5446 33.0301 12.3262 32.7494 12.3262Z" stroke="#1D1D1B" stroke-width="0.182672" stroke-linecap="round" stroke-linejoin="round"/>
<path d="M62.5619 12.8008H56.9887C56.708 12.8008 56.4805 13.0192 56.4805 13.2887V13.4832C56.4805 13.7527 56.708 13.9711 56.9887 13.9711H62.5619C62.8426 13.9711 63.0702 13.7527 63.0702 13.4832V13.2887C63.0702 13.0192 62.8426 12.8008 62.5619 12.8008Z" stroke="#1D1D1B" stroke-width="0.182672" stroke-linecap="round" stroke-linejoin="round"/>
<path d="M52.1543 2.00977C54.4194 12.9701 54.0724 25.3918 53.6157 30.2326" stroke="black" stroke-width="0.182672" stroke-linecap="round"/>
<path d="M32.8161 29.9294C33.0394 29.1595 33.1422 28.2035 33.1422 27.3631C33.1422 22.3913 28.944 18.3613 23.7645 18.3613C18.585 18.3613 14.3867 22.3913 14.3867 27.3631C14.3867 28.2035 14.513 28.8719 14.7363 29.6446L32.8132 29.9294H32.8161Z" fill="white" stroke="#1D1D1B" stroke-width="0.182672" stroke-linecap="round" stroke-linejoin="round"/>
<path d="M104.485 30.0795C104.949 29.0134 105.117 28.0546 105.117 26.825C105.117 21.8532 100.919 17.8232 95.7391 17.8232C90.5596 17.8232 86.3613 21.8532 86.3613 26.825C86.3613 28.0546 86.6199 29.225 87.084 30.291L104.482 30.0766L104.485 30.0795Z" fill="white" stroke="#1D1D1B" stroke-width="0.182672" stroke-linecap="round" stroke-linejoin="round"/>
<path d="M95.8415 34.9407C100.424 34.9407 104.138 31.3751 104.138 26.9767C104.138 22.5783 100.424 19.0127 95.8415 19.0127C91.2594 19.0127 87.5449 22.5783 87.5449 26.9767C87.5449 31.3751 91.2594 34.9407 95.8415 34.9407Z" fill="#1D1D1B"/>
<path d="M95.8405 32.2358C98.8666 32.2358 101.32 29.8811 101.32 26.9763C101.32 24.0716 98.8666 21.7168 95.8405 21.7168C92.8144 21.7168 90.3613 24.0716 90.3613 26.9763C90.3613 29.8811 92.8144 32.2358 95.8405 32.2358Z" fill="white"/>
<path d="M23.5681 35.3215C28.1502 35.3215 31.8647 31.7559 31.8647 27.3576C31.8647 22.9592 28.1502 19.3936 23.5681 19.3936C18.986 19.3936 15.2715 22.9592 15.2715 27.3576C15.2715 31.7559 18.986 35.3215 23.5681 35.3215Z" fill="#1D1D1B"/>
<path d="M23.569 32.6167C26.5951 32.6167 29.0482 30.2619 29.0482 27.3572C29.0482 24.4524 26.5951 22.0977 23.569 22.0977C20.543 22.0977 18.0898 24.4524 18.0898 27.3572C18.0898 30.2619 20.543 32.6167 23.569 32.6167Z" fill="white"/>
<path d="M81.2891 11.0518C86.2212 14.5225 85.3687 25.0871 84.1205 30.415" stroke="black" stroke-width="0.182672"/>
<path d="M24.661 8.31152C23.2727 11.5266 26.2746 17.2625 27.9491 19.3632" stroke="black" stroke-width="0.182672"/>
</svg>
