<svg width="160" height="120" viewBox="0 0 160 120" fill="none" xmlns="http://www.w3.org/2000/svg">
<rect width="160" height="120" fill="white"/>
<path d="M19.7292 37.0411C6.42938 36.8942 3.56543 34.1532 3.56543 34.1532C-0.122841 30.8168 3.59945 28.1166 5.61355 27.0072C6.26792 26.6482 7.00724 26.4688 7.75509 26.4688H16.3129C17.1033 26.4688 17.6897 27.1785 17.5112 27.9208L17.1203 29.5116C16.8993 30.4007 17.4942 31.2899 18.4205 31.4775L22.1512 32.228C20.9105 36.9839 19.7292 37.0411 19.7292 37.0411Z" fill="#E2E8F0" stroke="#0F172A" stroke-linecap="round" stroke-linejoin="round"/>
<path d="M139.41 37.0411C152.71 36.8942 155.574 34.1532 155.574 34.1532C159.262 30.8168 155.54 28.1166 153.526 27.0072C152.872 26.6482 152.132 26.4688 151.384 26.4688H142.827C142.036 26.4688 141.45 27.1785 141.628 27.9208L142.019 29.5116C142.24 30.4007 141.645 31.2899 140.719 31.4775L136.988 32.228C138.229 36.9839 139.41 37.0411 139.41 37.0411Z" fill="#E2E8F0" stroke="#0F172A" stroke-miterlimit="10"/>
<path d="M16.7065 88.2295C16.1711 95.4735 17.7688 100.539 18.7801 102.913C19.1711 103.843 20.0889 104.455 21.1342 104.479L30.4568 104.659C31.6721 104.683 32.7599 103.892 33.0318 102.75C34.2556 97.6842 33.0913 88.7189 33.0913 88.7189L16.7065 88.2295Z" fill="#0F172A"/>
<path d="M6.41977 94.8223C5.81639 102.915 7.60951 108.568 8.73129 111.227C9.1732 112.263 10.2015 112.957 11.3657 112.973L21.7847 113.177C23.1444 113.201 24.3512 112.32 24.6571 111.048C26.0254 105.386 24.7251 95.377 24.7251 95.377L6.41977 94.8304V94.8223Z" fill="#0F172A"/>
<path d="M141.297 89.0527C141.832 96.2967 140.235 101.363 139.224 103.736C138.833 104.666 137.915 105.278 136.87 105.303L127.547 105.482C126.332 105.507 125.244 104.715 124.972 103.573C123.748 98.5074 124.912 89.5422 124.912 89.5422L141.297 89.0527Z" fill="#0F172A"/>
<path d="M151.582 95.6445C152.186 103.737 150.393 109.39 149.271 112.05C148.829 113.086 147.801 113.779 146.636 113.795L136.217 113.999C134.858 114.024 133.651 113.143 133.345 111.87C131.977 106.209 133.277 96.1992 133.277 96.1992L151.582 95.6527V95.6445Z" fill="#0F172A"/>
<path d="M39.4543 6.4906C74.4164 3.25202 109.463 6.17245 118.378 7.029C119.831 7.16768 121.183 7.78766 122.194 8.79921C129.851 16.4511 135.681 28.5814 137.593 32.8642C138.035 33.8431 138.638 34.7486 139.412 35.5154C144.358 40.3855 148.352 46.2835 150.34 49.4487C151.233 50.8762 151.709 52.4996 151.709 54.1638L151.607 92.7086C151.607 94.3809 150.289 95.784 148.556 95.9471C90.5972 101.535 25.5001 98.1823 9.91417 97.236C7.95106 97.1137 6.42137 95.5637 6.41287 93.6712L6.16639 56.9292C6.14939 54.8979 6.71882 52.8912 7.85759 51.1781C11.9793 44.9946 17.3247 39.4311 19.7382 37.0328C20.5371 36.2415 21.1489 35.287 21.4804 34.2347C24.9562 23.1893 32.8001 12.4375 35.9615 8.38316C36.8028 7.30635 38.0691 6.61295 39.4628 6.48243L39.4543 6.4906Z" fill="#E2E8F0" stroke="#0F172A" stroke-linecap="round" stroke-linejoin="round"/>
<path d="M40.4825 10.6439L117.613 10.8968C119.313 10.8968 120.919 11.6555 121.956 12.9525C127.752 20.2291 132.247 29.0802 134.253 33.3466C134.805 34.5131 133.879 35.8184 132.545 35.7613C85.1751 33.7953 38.2984 35.3371 26.8172 35.7776C25.534 35.8265 24.6246 34.6029 25.0835 33.4527C28.1174 25.8661 32.4176 18.0347 34.8566 13.8009C35.9868 11.8349 38.1454 10.6276 40.4825 10.6358V10.6439Z" fill="#0F172A"/>
<path d="M44.6656 56.4072L42.1331 60.6573C41.4787 61.7586 41.6572 63.1372 42.5835 64.0509L48.9913 70.3893C49.9346 71.3275 51.2348 71.8577 52.586 71.874L104.698 72.3798C106.227 72.3961 107.706 71.8251 108.811 70.8054L115.117 64.9319C115.949 64.1569 116.128 62.9414 115.559 61.9707L112.805 57.3045C112.1 56.1135 110.783 55.3712 109.355 55.3548L47.4955 54.8409C46.3228 54.8327 45.2435 55.4283 44.6571 56.4072H44.6656Z" fill="#E2E8F0" stroke="#0F172A" stroke-linecap="round" stroke-linejoin="round"/>
<path d="M121.397 54.1632L141.928 50.6228C143.909 50.2802 145.855 51.3814 146.501 53.2087C147.69 56.5697 145.991 59.5064 145.991 59.5064C142.685 62.8918 129.708 61.2195 123.921 60.2814C122.195 59.9959 120.759 58.8538 120.147 57.2794L119.909 56.6676C119.493 55.5745 120.198 54.3834 121.397 54.1714V54.1632Z" fill="#E2E8F0" stroke="#0F172A" stroke-linecap="round" stroke-linejoin="round"/>
<path d="M36.0619 54.4337L15.5299 50.8933C13.5498 50.5507 11.6037 51.652 10.9579 53.4793C9.76809 56.8402 11.4678 59.777 11.4678 59.777C14.7736 63.1624 27.7505 61.49 33.5379 60.5519C35.263 60.2664 36.6993 59.1243 37.3111 57.5499L37.5491 56.9381C37.9655 55.845 37.2602 54.654 36.0619 54.4419V54.4337Z" fill="#E2E8F0" stroke="#0F172A" stroke-linecap="round" stroke-linejoin="round"/>
<path d="M12.6016 80.5858C16.3153 77.2901 22.3236 77.8366 22.3236 77.8366L36.6263 79.2071C41.1984 80.855 40.6291 82.772 40.6291 82.772L12.6016 80.5776V80.5858Z" fill="#E2E8F0" stroke="#0F172A" stroke-linecap="round" stroke-linejoin="round"/>
<path d="M147.032 80.0399C143.319 76.7442 137.31 77.2907 137.31 77.2907L123.008 78.6612C118.436 80.3091 119.005 82.2261 119.005 82.2261L147.032 80.0317V80.0399Z" fill="#E2E8F0" stroke="#0F172A" stroke-linecap="round" stroke-linejoin="round"/>
<path d="M44.3418 84.4365L56.0695 94.5928L106.116 94.862L114.691 84.7057L44.3418 84.4365Z" fill="#E2E8F0" stroke="#0F172A" stroke-linecap="round" stroke-linejoin="round"/>
</svg>
