<svg width="378" height="120" viewBox="0 0 378 120" fill="none" xmlns="http://www.w3.org/2000/svg">
<rect width="378" height="120" fill="white"/>
<path d="M290.936 107.962C305.236 107.962 316.829 96.8341 316.829 83.107C316.829 69.3799 305.236 58.252 290.936 58.252C276.636 58.252 265.043 69.3799 265.043 83.107C265.043 96.8341 276.636 107.962 290.936 107.962Z" fill="#0F172A"/>
<path d="M94.6958 107.663C108.996 107.663 120.589 96.5353 120.589 82.8082C120.589 69.0811 108.996 57.9531 94.6958 57.9531C80.3955 57.9531 68.8027 69.0811 68.8027 82.8082C68.8027 96.5353 80.3955 107.663 94.6958 107.663Z" fill="#0F172A"/>
<path d="M22.3507 33.6254L45.5573 32.314C47.226 32.2172 48.849 31.8035 50.3618 31.1082C75.7598 19.4464 109.492 9.95849 109.492 9.95849C163.488 0.180168 201.439 7.88137 201.439 7.88137C228.643 12.6957 257.433 29.6736 265.154 34.4615C266.731 35.4385 268.436 36.2042 270.242 36.7235C288.608 41.9691 343.062 48.7638 343.062 48.7638C361.758 50.5064 366.03 60.2231 366.92 63.2596C367.121 63.9549 367.424 64.615 367.791 65.2487C373.356 74.9654 369.909 84.6029 369.909 84.6029C368.368 88.7484 370.221 94.082 370.221 94.082L369.606 97.9282L243.102 100.005L50.5635 97.3385C37.2961 95.5607 16.6201 90.5263 16.6201 90.5263C6.43341 87.2697 7.0569 75.7136 7.0569 75.7136C7.43282 73.5308 7.23111 69.5526 7.02022 66.8066C6.89186 65.1695 7.37781 63.5589 8.38639 62.2298C12.0723 57.3979 14.5571 46.0265 15.7674 39.2671C16.3267 36.1426 19.059 33.8014 22.3599 33.6166L22.3507 33.6254Z" fill="#E2E8F0" stroke="#0F172A" stroke-miterlimit="10"/>
<path d="M83.3529 32.5776C81.9226 24.1371 108.485 16.8584 114.61 15.3006C115.243 15.1421 115.866 15.591 115.866 16.2247L116.049 32.7889C116.049 33.4226 115.518 33.9331 114.857 33.9243L83.2618 33.3761C82.785 33.3761 83.4263 33.0265 83.3529 32.5776Z" fill="#0F172A"/>
<path d="M119.38 14.4212C136.682 9.71249 158.577 10.1526 164.638 10.3814C165.555 10.4166 166.288 11.1207 166.334 12.0008L167.425 33.661C167.462 34.3475 166.884 34.9284 166.16 34.9108L119.829 34.1627C119.224 34.1539 118.738 33.6786 118.738 33.0889V15.231C118.738 14.8525 118.995 14.518 119.38 14.4124V14.4212Z" fill="#0F172A"/>
<path d="M173.665 12.1757L179.698 34.2847C179.9 35.024 180.578 35.5609 181.376 35.6049L261.026 39.9792C261.988 39.9792 261.821 39.6441 261.418 39.3625C240.039 22.8294 217.336 16.3211 210.808 14.3672C209.634 14.0151 208.452 13.7247 207.241 13.5047C192.094 10.7498 179.304 10.5738 174.893 10.609C174.05 10.609 173.445 11.3835 173.665 12.1668V12.1757Z" fill="#0F172A"/>
<path d="M18.6643 42.8849C17.0689 43.1401 15.5927 50.9558 15.2076 53.1385C15.1251 53.605 15.5469 54.0187 16.0329 53.9306C19.4804 53.341 31.4459 46.071 34.4716 44.2051C34.7375 44.0467 34.655 43.6506 34.3524 43.589C25.3485 41.6351 18.6643 42.8849 18.6643 42.8849Z" fill="#BB2916"/>
<path d="M370.624 80.6943C365.444 79.11 360.813 79.4268 358.897 79.6645C358.319 79.7349 357.815 80.0694 357.522 80.5534L347.17 97.8745" stroke="#0F172A" stroke-linecap="round" stroke-linejoin="round"/>
<path d="M364.296 58.356C347.636 53.4185 338.018 54.5274 338.018 54.5274C341.41 60.6444 347.535 62.6687 349.8 63.232C350.313 63.3552 350.836 63.408 351.368 63.3816C359.968 62.9592 366.405 61.8326 366.405 61.8326" stroke="#0F172A" stroke-linecap="round" stroke-linejoin="round"/>
<path d="M108.921 43.1836H91.5276C90.6516 43.1836 89.9414 43.8653 89.9414 44.7062V45.3135C89.9414 46.1544 90.6516 46.8362 91.5276 46.8362H108.921C109.797 46.8362 110.507 46.1544 110.507 45.3135V44.7062C110.507 43.8653 109.797 43.1836 108.921 43.1836Z" stroke="#0F172A" stroke-linecap="round" stroke-linejoin="round"/>
<path d="M201.968 44.6631H184.575C183.698 44.6631 182.988 45.3448 182.988 46.1857V46.793C182.988 47.6339 183.698 48.3156 184.575 48.3156H201.968C202.844 48.3156 203.554 47.6339 203.554 46.793V46.1857C203.554 45.3448 202.844 44.6631 201.968 44.6631Z" stroke="#0F172A" stroke-linecap="round" stroke-linejoin="round"/>
<path d="M169.48 10.9854C176.55 45.1918 175.467 83.959 174.041 99.0668" stroke="#0F172A" stroke-linecap="round"/>
<path d="M109.126 98.1227C109.823 95.72 110.144 92.7363 110.144 90.1135C110.144 74.5967 97.0415 62.0195 80.8767 62.0195C64.7118 62.0195 51.6094 74.5967 51.6094 90.1135C51.6094 92.7363 52.0036 94.8222 52.7005 97.2338L109.117 98.1227H109.126Z" fill="white" stroke="#0F172A" stroke-linecap="round" stroke-linejoin="round"/>
<path d="M332.803 98.5886C334.252 95.2617 334.775 92.2692 334.775 88.4318C334.775 72.915 321.672 60.3379 305.507 60.3379C289.343 60.3379 276.24 72.915 276.24 88.4318C276.24 92.2692 277.047 95.9218 278.496 99.2487L332.794 98.5798L332.803 98.5886Z" fill="white" stroke="#0F172A" stroke-linecap="round" stroke-linejoin="round"/>
<path d="M305.829 113.763C320.129 113.763 331.722 102.635 331.722 88.9078C331.722 75.1807 320.129 64.0527 305.829 64.0527C291.528 64.0527 279.936 75.1807 279.936 88.9078C279.936 102.635 291.528 113.763 305.829 113.763Z" fill="#0F172A"/>
<path d="M305.827 105.322C315.271 105.322 322.927 97.9732 322.927 88.9077C322.927 79.8422 315.271 72.4932 305.827 72.4932C296.383 72.4932 288.727 79.8422 288.727 88.9077C288.727 97.9732 296.383 105.322 305.827 105.322Z" fill="#E2E8F0"/>
<path d="M80.274 114.95C94.5743 114.95 106.167 103.822 106.167 90.0953C106.167 76.3682 94.5743 65.2402 80.274 65.2402C65.9736 65.2402 54.3809 76.3682 54.3809 90.0953C54.3809 103.822 65.9736 114.95 80.274 114.95Z" fill="#0F172A"/>
<path d="M80.27 106.51C89.7141 106.51 97.3701 99.1607 97.3701 90.0952C97.3701 81.0297 89.7141 73.6807 80.27 73.6807C70.8259 73.6807 63.1699 81.0297 63.1699 90.0952C63.1699 99.1607 70.8259 106.51 80.27 106.51Z" fill="#E2E8F0"/>
<path d="M260 39C274.293 49.934 271.822 83.2154 268.205 100" stroke="#0F172A"/>
<path d="M84.0755 32C79.8851 41.6 88.9459 58.7273 94 65" stroke="#0F172A"/>
</svg>
