<svg width="28" height="28" viewBox="0 0 28 28" fill="none" xmlns="http://www.w3.org/2000/svg">
<path d="M14.0007 26.5413C7.08232 26.5413 1.45898 20.918 1.45898 13.9997C1.45898 7.08134 7.08232 1.45801 14.0007 1.45801C20.919 1.45801 26.5423 7.08134 26.5423 13.9997C26.5423 20.918 20.919 26.5413 14.0007 26.5413ZM14.0007 3.20801C8.05065 3.20801 3.20898 8.04967 3.20898 13.9997C3.20898 19.9497 8.05065 24.7913 14.0007 24.7913C19.9507 24.7913 24.7923 19.9497 24.7923 13.9997C24.7923 8.04967 19.9507 3.20801 14.0007 3.20801Z" fill="#36B555"/>
<path d="M12.3437 18.1765C12.1103 18.1765 11.8887 18.0832 11.7253 17.9199L8.42367 14.6182C8.08534 14.2799 8.08534 13.7199 8.42367 13.3815C8.76201 13.0432 9.32201 13.0432 9.66034 13.3815L12.3437 16.0649L18.3403 10.0682C18.6787 9.72987 19.2387 9.72987 19.577 10.0682C19.9153 10.4065 19.9153 10.9665 19.577 11.3049L12.962 17.9199C12.7987 18.0832 12.577 18.1765 12.3437 18.1765Z" fill="#36B555"/>
</svg>
