<svg width="17" height="17" viewBox="0 0 17 17" fill="none" xmlns="http://www.w3.org/2000/svg">
<path d="M11.95 0C14.775 0 16.6663 1.98313 16.6663 4.93313V11.7425C16.6663 14.6831 14.775 16.6663 11.95 16.6663H4.725C1.9 16.6663 0 14.6831 0 11.7425V4.93313C0 1.98313 1.9 0 4.725 0H11.95ZM11.8163 5.83313C11.6788 5.69706 11.4931 5.62074 11.2997 5.62074C11.1062 5.62074 10.9206 5.69706 10.7831 5.83313L7.34125 9.275L5.88313 7.81625C5.6 7.53313 5.13313 7.53313 4.85 7.81625C4.56688 8.09938 4.56625 8.55813 4.85 8.85L6.83313 10.825C6.975 10.9662 7.15813 11.0331 7.34125 11.0331C7.53313 11.0331 7.71625 10.9662 7.85813 10.825L11.8163 6.86625C11.9523 6.72875 12.0286 6.54313 12.0286 6.34969C12.0286 6.15625 11.9523 5.97062 11.8163 5.83313Z" fill="#2E74DE"/>
</svg>
