<svg width="28" height="28" viewBox="0 0 28 28" fill="none" xmlns="http://www.w3.org/2000/svg">
<path d="M14 17.2083C13.5217 17.2083 13.125 16.8117 13.125 16.3333V10.5C13.125 10.0217 13.5217 9.625 14 9.625C14.4783 9.625 14.875 10.0217 14.875 10.5V16.3333C14.875 16.8117 14.4783 17.2083 14 17.2083Z" fill="#DD2F41"/>
<path d="M14.0007 21.0003C13.9307 21.0003 13.849 20.9886 13.7673 20.977C13.6973 20.9653 13.6273 20.942 13.5573 20.907C13.4873 20.8836 13.4173 20.8486 13.3473 20.802C13.289 20.7553 13.2307 20.7086 13.1723 20.662C12.9623 20.4403 12.834 20.137 12.834 19.8336C12.834 19.5303 12.9623 19.227 13.1723 19.0053C13.2307 18.9586 13.289 18.912 13.3473 18.8653C13.4173 18.8186 13.4873 18.7836 13.5573 18.7603C13.6273 18.7253 13.6973 18.702 13.7673 18.6903C13.919 18.6553 14.0823 18.6553 14.2223 18.6903C14.304 18.702 14.374 18.7253 14.444 18.7603C14.514 18.7836 14.584 18.8186 14.654 18.8653C14.7123 18.912 14.7707 18.9586 14.829 19.0053C15.039 19.227 15.1673 19.5303 15.1673 19.8336C15.1673 20.137 15.039 20.4403 14.829 20.662C14.7707 20.7086 14.7123 20.7553 14.654 20.802C14.584 20.8486 14.514 20.8836 14.444 20.907C14.374 20.942 14.304 20.9653 14.2223 20.977C14.1523 20.9886 14.0707 21.0003 14.0007 21.0003Z" fill="#DD2F41"/>
<path d="M21.0702 25.8531H6.93022C4.65522 25.8531 2.91688 25.0248 2.03022 23.5315C1.15522 22.0382 1.27188 20.1131 2.38022 18.1181L9.45022 5.40148C10.6169 3.30148 12.2269 2.14648 14.0002 2.14648C15.7735 2.14648 17.3835 3.30148 18.5502 5.40148L25.6202 18.1298C26.7285 20.1248 26.8569 22.0382 25.9702 23.5431C25.0835 25.0248 23.3452 25.8531 21.0702 25.8531ZM14.0002 3.89648C12.9035 3.89648 11.8302 4.73648 10.9785 6.25315L3.92022 18.9815C3.12688 20.4048 2.99855 21.7115 3.54688 22.6565C4.09522 23.6015 5.30855 24.1148 6.94188 24.1148H21.0819C22.7152 24.1148 23.9169 23.6015 24.4769 22.6565C25.0369 21.7115 24.8969 20.4165 24.1035 18.9815L17.0219 6.25315C16.1702 4.73648 15.0969 3.89648 14.0002 3.89648Z" fill="#DD2F41"/>
</svg>
