<svg width="16" height="16" viewBox="0 0 16 16" fill="none" xmlns="http://www.w3.org/2000/svg">
                          <mask id="path-1-inside-1_3002_2214" fill="white">
                          <path d="M7.58699 12.6003C7.36699 12.6003 7.14699 12.5469 6.94699 12.4336C6.54033 12.2069 6.29366 11.7936 6.29366 11.3269V9.27359C6.29366 9.14693 6.19366 8.90026 6.09366 8.77359L4.64699 7.25359C4.37366 6.98026 4.16699 6.50026 4.16699 6.13359V5.24693C4.16699 4.50693 4.72699 3.93359 5.44033 3.93359H10.5537C11.2537 3.93359 11.827 4.50693 11.827 5.20693V6.06026C11.827 6.52693 11.5603 7.04026 11.2937 7.30693L9.60699 8.80026C9.50033 8.89359 9.38699 9.12693 9.38699 9.32026V10.9869C9.38699 11.4069 9.13366 11.8736 8.79366 12.0736L8.26699 12.4136C8.06033 12.5403 7.82699 12.6003 7.58699 12.6003ZM5.44033 4.93359C5.28033 4.93359 5.16699 5.06693 5.16699 5.24693V6.13359C5.16699 6.22026 5.26033 6.44693 5.36699 6.55359L6.84699 8.11359C7.07366 8.40026 7.29366 8.86026 7.29366 9.27359V11.3269C7.29366 11.4603 7.38033 11.5336 7.43366 11.5603C7.50699 11.6003 7.62699 11.6269 7.73366 11.5603L8.26699 11.2136C8.32033 11.1736 8.38699 11.0403 8.38699 10.9736V9.30693C8.38699 8.83359 8.62033 8.30693 8.95366 8.03359L10.607 6.56693C10.6937 6.48026 10.827 6.21359 10.827 6.04693V5.20693C10.827 5.06026 10.7003 4.93359 10.5537 4.93359H5.44033Z"/>
                          </mask>
                          <path d="M7.58699 12.6003C7.36699 12.6003 7.14699 12.5469 6.94699 12.4336C6.54033 12.2069 6.29366 11.7936 6.29366 11.3269V9.27359C6.29366 9.14693 6.19366 8.90026 6.09366 8.77359L4.64699 7.25359C4.37366 6.98026 4.16699 6.50026 4.16699 6.13359V5.24693C4.16699 4.50693 4.72699 3.93359 5.44033 3.93359H10.5537C11.2537 3.93359 11.827 4.50693 11.827 5.20693V6.06026C11.827 6.52693 11.5603 7.04026 11.2937 7.30693L9.60699 8.80026C9.50033 8.89359 9.38699 9.12693 9.38699 9.32026V10.9869C9.38699 11.4069 9.13366 11.8736 8.79366 12.0736L8.26699 12.4136C8.06033 12.5403 7.82699 12.6003 7.58699 12.6003ZM5.44033 4.93359C5.28033 4.93359 5.16699 5.06693 5.16699 5.24693V6.13359C5.16699 6.22026 5.26033 6.44693 5.36699 6.55359L6.84699 8.11359C7.07366 8.40026 7.29366 8.86026 7.29366 9.27359V11.3269C7.29366 11.4603 7.38033 11.5336 7.43366 11.5603C7.50699 11.6003 7.62699 11.6269 7.73366 11.5603L8.26699 11.2136C8.32033 11.1736 8.38699 11.0403 8.38699 10.9736V9.30693C8.38699 8.83359 8.62033 8.30693 8.95366 8.03359L10.607 6.56693C10.6937 6.48026 10.827 6.21359 10.827 6.04693V5.20693C10.827 5.06026 10.7003 4.93359 10.5537 4.93359H5.44033Z" fill="#64748B"/>
                          <path d="M6.94699 12.4336L7.68653 11.1285L7.67728 11.1234L6.94699 12.4336ZM6.09366 8.77359L7.27098 7.84413L7.22801 7.7897L7.18021 7.73947L6.09366 8.77359ZM4.64699 7.25359L5.73354 6.21947L5.72076 6.20604L5.70765 6.19293L4.64699 7.25359ZM11.2937 7.30693L12.288 8.43L12.3221 8.3998L12.3543 8.36759L11.2937 7.30693ZM9.60699 8.80026L10.5948 9.92914L10.6013 9.92333L9.60699 8.80026ZM8.79366 12.0736L8.03313 10.7807L8.00628 10.7965L7.9801 10.8134L8.79366 12.0736ZM8.26699 12.4136L9.05084 13.6925L9.0658 13.6833L9.08055 13.6738L8.26699 12.4136ZM5.36699 6.55359L6.45519 5.5212L6.44161 5.50689L6.42765 5.49293L5.36699 6.55359ZM6.84699 8.11359L8.02362 7.18324L7.9817 7.13023L7.93519 7.0812L6.84699 8.11359ZM7.43366 11.5603L8.15194 10.2434L8.12843 10.2306L8.10448 10.2186L7.43366 11.5603ZM7.73366 11.5603L8.52866 12.8323L8.53996 12.8252L8.55114 12.8179L7.73366 11.5603ZM8.26699 11.2136L9.08448 12.4713L9.1267 12.4438L9.16699 12.4136L8.26699 11.2136ZM8.95366 8.03359L9.90478 9.1935L9.9273 9.17503L9.94908 9.15571L8.95366 8.03359ZM10.607 6.56693L11.6024 7.68904L11.636 7.65929L11.6677 7.62759L10.607 6.56693ZM7.58699 12.6003V11.1003C7.61083 11.1003 7.64798 11.1067 7.68651 11.1286L6.94699 12.4336L6.20747 13.7386C6.646 13.9871 7.12316 14.1003 7.58699 14.1003V12.6003ZM6.94699 12.4336L7.67728 11.1234C7.70197 11.1371 7.73362 11.1639 7.75854 11.206C7.78371 11.2485 7.79366 11.2927 7.79366 11.3269H6.29366H4.79366C4.79366 12.3456 5.34185 13.2562 6.2167 13.7438L6.94699 12.4336ZM6.29366 11.3269H7.79366V9.27359H6.29366H4.79366V11.3269H6.29366ZM6.29366 9.27359H7.79366C7.79366 8.91755 7.68081 8.60821 7.62302 8.46437C7.55281 8.28962 7.43873 8.0566 7.27098 7.84413L6.09366 8.77359L4.91633 9.70306C4.87513 9.65087 4.85508 9.61446 4.85062 9.60629C4.84417 9.59448 4.8412 9.58755 4.8393 9.58282C4.83786 9.57922 4.8311 9.56234 4.82293 9.53028C4.81867 9.51355 4.81222 9.48566 4.80648 9.44819C4.80105 9.41276 4.79366 9.35222 4.79366 9.27359H6.29366ZM6.09366 8.77359L7.18021 7.73947L5.73354 6.21947L4.64699 7.25359L3.56045 8.28772L5.00711 9.80772L6.09366 8.77359ZM4.64699 7.25359L5.70765 6.19293C5.71732 6.2026 5.72175 6.2082 5.72191 6.2084C5.72216 6.20871 5.7197 6.20562 5.71528 6.19881C5.70583 6.18422 5.6939 6.16263 5.68291 6.13702C5.67184 6.11122 5.66608 6.09153 5.66394 6.08238C5.66301 6.07841 5.66358 6.0799 5.66448 6.08699C5.66535 6.09387 5.66699 6.10964 5.66699 6.13359H4.16699H2.66699C2.66699 6.57296 2.78378 6.98861 2.92607 7.32017C3.07001 7.65556 3.28738 8.01531 3.58633 8.31425L4.64699 7.25359ZM4.16699 6.13359H5.66699V5.24693H4.16699H2.66699V6.13359H4.16699ZM4.16699 5.24693H5.66699C5.66699 5.26258 5.65808 5.3106 5.61191 5.35811C5.56478 5.40661 5.49766 5.43359 5.44033 5.43359V3.93359V2.43359C3.85831 2.43359 2.66699 3.71934 2.66699 5.24693H4.16699ZM5.44033 3.93359V5.43359H10.5537V3.93359V2.43359H5.44033V3.93359ZM10.5537 3.93359V5.43359C10.4252 5.43359 10.327 5.33535 10.327 5.20693H11.827H13.327C13.327 3.6785 12.0821 2.43359 10.5537 2.43359V3.93359ZM11.827 5.20693H10.327V6.06026H11.827H13.327V5.20693H11.827ZM11.827 6.06026H10.327C10.327 6.03635 10.3301 6.03397 10.325 6.05426C10.3202 6.07373 10.3107 6.10288 10.2948 6.13789C10.2789 6.17275 10.261 6.20406 10.2449 6.22807C10.2276 6.25366 10.2211 6.25818 10.233 6.24627L11.2937 7.30693L12.3543 8.36759C12.8482 7.87367 13.327 6.99518 13.327 6.06026H11.827ZM11.2937 7.30693L10.2993 6.18386L8.61265 7.67719L9.60699 8.80026L10.6013 9.92333L12.288 8.43L11.2937 7.30693ZM9.60699 8.80026L8.61924 7.6714C8.3438 7.9124 8.17803 8.20618 8.08528 8.41581C7.98594 8.6403 7.88699 8.95693 7.88699 9.32026H9.38699H10.887C10.887 9.49026 10.8447 9.59356 10.8287 9.62971C10.8168 9.6566 10.7992 9.69095 10.7715 9.73203C10.7478 9.76724 10.6925 9.84359 10.5947 9.92913L9.60699 8.80026ZM9.38699 9.32026H7.88699V10.9869H9.38699H10.887V9.32026H9.38699ZM9.38699 10.9869H7.88699C7.88699 10.9432 7.89324 10.9173 7.89554 10.9089C7.898 10.9 7.89991 10.8964 7.90077 10.8949C7.90149 10.8936 7.90666 10.884 7.92169 10.8675C7.93603 10.8518 7.97071 10.8174 8.03313 10.7807L8.79366 12.0736L9.55419 13.3665C10.3923 12.8735 10.887 11.8904 10.887 10.9869H9.38699ZM8.79366 12.0736L7.9801 10.8134L7.45344 11.1534L8.26699 12.4136L9.08055 13.6738L9.60721 13.3338L8.79366 12.0736ZM8.26699 12.4136L7.48315 11.1347C7.50527 11.1211 7.52802 11.1118 7.5484 11.1063C7.56828 11.1009 7.58186 11.1003 7.58699 11.1003V12.6003V14.1003C8.08004 14.1003 8.58892 13.9756 9.05084 13.6925L8.26699 12.4136ZM5.44033 4.93359V3.43359C4.25608 3.43359 3.66699 4.44892 3.66699 5.24693H5.16699H6.66699C6.66699 5.46768 6.59612 5.75225 6.37775 6.00451C6.14748 6.27051 5.80521 6.43359 5.44033 6.43359V4.93359ZM5.16699 5.24693H3.66699V6.13359H5.16699H6.66699V5.24693H5.16699ZM5.16699 6.13359H3.66699C3.66699 6.37144 3.72088 6.56546 3.74522 6.6475C3.77789 6.75761 3.81846 6.86205 3.86096 6.95574C3.93244 7.11332 4.07182 7.37974 4.30633 7.61425L5.36699 6.55359L6.42765 5.49293C6.50347 5.56875 6.54463 5.63144 6.55898 5.65417C6.57659 5.68206 6.58679 5.70271 6.59302 5.71645C6.59886 5.72931 6.60943 5.75416 6.62127 5.79407C6.62731 5.81442 6.63675 5.849 6.64545 5.89532C6.65302 5.93569 6.66699 6.02081 6.66699 6.13359H5.16699ZM5.36699 6.55359L4.2788 7.58598L5.7588 9.14598L6.84699 8.11359L7.93519 7.0812L6.45519 5.5212L5.36699 6.55359ZM6.84699 8.11359L5.67037 9.04395C5.68045 9.05669 5.69752 9.08055 5.71712 9.11412C5.73647 9.14725 5.75409 9.18266 5.76819 9.21693C5.78246 9.2516 5.79004 9.27756 5.79345 9.29252C5.79705 9.30823 5.79366 9.30123 5.79366 9.27359H7.29366H8.79366C8.79366 8.41384 8.38048 7.63457 8.02362 7.18324L6.84699 8.11359ZM7.29366 9.27359H5.79366V11.3269H7.29366H8.79366V9.27359H7.29366ZM7.29366 11.3269H5.79366C5.79366 12.2101 6.38723 12.7141 6.76284 12.9019L7.43366 11.5603L8.10448 10.2186C8.37342 10.3531 8.79366 10.7104 8.79366 11.3269H7.29366ZM7.43366 11.5603L6.71538 12.8771C7.06026 13.0652 7.7947 13.291 8.52866 12.8323L7.73366 11.5603L6.93866 10.2883C7.1912 10.1304 7.45641 10.09 7.66621 10.1033C7.86096 10.1156 8.02361 10.1734 8.15194 10.2434L7.43366 11.5603ZM7.73366 11.5603L8.55114 12.8179L9.08448 12.4713L8.26699 11.2136L7.44951 9.95593L6.91618 10.3026L7.73366 11.5603ZM8.26699 11.2136L9.16699 12.4136C9.4815 12.1777 9.63876 11.8742 9.68863 11.7744C9.73851 11.6747 9.88699 11.3667 9.88699 10.9736H8.38699H6.88699C6.88699 10.7732 6.93057 10.6289 6.94497 10.5832C6.96523 10.5188 6.98717 10.4691 7.00535 10.4328C7.02353 10.3964 7.0501 10.3491 7.08943 10.2942C7.11738 10.2553 7.2067 10.1338 7.36699 10.0136L8.26699 11.2136ZM8.38699 10.9736H9.88699V9.30693H8.38699H6.88699V10.9736H8.38699ZM8.38699 9.30693H9.88699C9.88699 9.31012 9.88683 9.29928 9.89198 9.27641C9.89704 9.25395 9.90526 9.22873 9.91604 9.20447C9.92695 9.17993 9.93673 9.16478 9.94058 9.15944C9.94507 9.15322 9.93573 9.16812 9.90478 9.1935L8.95366 8.03359L8.00254 6.87369C7.28212 7.46444 6.88699 8.43816 6.88699 9.30693H8.38699ZM8.95366 8.03359L9.94908 9.15571L11.6024 7.68904L10.607 6.56693L9.61157 5.44482L7.95824 6.91148L8.95366 8.03359ZM10.607 6.56693L11.6677 7.62759C11.9002 7.39499 12.0447 7.11423 12.1178 6.95151C12.1912 6.78819 12.327 6.44804 12.327 6.04693H10.827H9.32699C9.32699 5.90546 9.35244 5.81032 9.3597 5.78421C9.36961 5.74859 9.3783 5.72874 9.38118 5.72235C9.3843 5.71538 9.39032 5.70271 9.40331 5.68176C9.41013 5.67077 9.4226 5.65149 9.44156 5.62622C9.45866 5.60344 9.49336 5.55924 9.54633 5.50627L10.607 6.56693ZM10.827 6.04693H12.327V5.20693H10.827H9.32699V6.04693H10.827ZM10.827 5.20693H12.327C12.327 4.23183 11.5288 3.43359 10.5537 3.43359V4.93359V6.43359C9.8719 6.43359 9.32699 5.88869 9.32699 5.20693H10.827ZM10.5537 4.93359V3.43359H5.44033V4.93359V6.43359H10.5537V4.93359Z" fill="#475569" mask="url(#path-1-inside-1_3002_2214)"/>
                          <mask id="path-3-inside-2_3002_2214" fill="white">
                          <path d="M9.99967 15.1663H5.99967C2.37967 15.1663 0.833008 13.6197 0.833008 9.99967V5.99967C0.833008 2.37967 2.37967 0.833008 5.99967 0.833008H9.99967C13.6197 0.833008 15.1663 2.37967 15.1663 5.99967V9.99967C15.1663 13.6197 13.6197 15.1663 9.99967 15.1663ZM5.99967 1.83301C2.92634 1.83301 1.83301 2.92634 1.83301 5.99967V9.99967C1.83301 13.073 2.92634 14.1663 5.99967 14.1663H9.99967C13.073 14.1663 14.1663 13.073 14.1663 9.99967V5.99967C14.1663 2.92634 13.073 1.83301 9.99967 1.83301H5.99967Z"/>
                          </mask>
                          <path d="M9.99967 15.1663H5.99967C2.37967 15.1663 0.833008 13.6197 0.833008 9.99967V5.99967C0.833008 2.37967 2.37967 0.833008 5.99967 0.833008H9.99967C13.6197 0.833008 15.1663 2.37967 15.1663 5.99967V9.99967C15.1663 13.6197 13.6197 15.1663 9.99967 15.1663ZM5.99967 1.83301C2.92634 1.83301 1.83301 2.92634 1.83301 5.99967V9.99967C1.83301 13.073 2.92634 14.1663 5.99967 14.1663H9.99967C13.073 14.1663 14.1663 13.073 14.1663 9.99967V5.99967C14.1663 2.92634 13.073 1.83301 9.99967 1.83301H5.99967Z" fill="#64748B"/>
                          <path d="M9.99967 15.1663V13.6663H5.99967V15.1663V16.6663H9.99967V15.1663ZM5.99967 15.1663V13.6663C4.36186 13.6663 3.55028 13.3106 3.1195 12.8798C2.68872 12.4491 2.33301 11.6375 2.33301 9.99967H0.833008H-0.666992C-0.666992 11.9819 -0.249374 13.7536 0.998181 15.0012C2.24574 16.2487 4.01749 16.6663 5.99967 16.6663V15.1663ZM0.833008 9.99967H2.33301V5.99967H0.833008H-0.666992V9.99967H0.833008ZM0.833008 5.99967H2.33301C2.33301 4.36186 2.68872 3.55028 3.1195 3.1195C3.55028 2.68872 4.36186 2.33301 5.99967 2.33301V0.833008V-0.666992C4.01749 -0.666992 2.24574 -0.249374 0.998181 0.998181C-0.249374 2.24574 -0.666992 4.01749 -0.666992 5.99967H0.833008ZM5.99967 0.833008V2.33301H9.99967V0.833008V-0.666992H5.99967V0.833008ZM9.99967 0.833008V2.33301C11.6375 2.33301 12.4491 2.68872 12.8798 3.1195C13.3106 3.55028 13.6663 4.36186 13.6663 5.99967H15.1663H16.6663C16.6663 4.01749 16.2487 2.24574 15.0012 0.998181C13.7536 -0.249374 11.9819 -0.666992 9.99967 -0.666992V0.833008ZM15.1663 5.99967H13.6663V9.99967H15.1663H16.6663V5.99967H15.1663ZM15.1663 9.99967H13.6663C13.6663 11.6375 13.3106 12.4491 12.8798 12.8798C12.4491 13.3106 11.6375 13.6663 9.99967 13.6663V15.1663V16.6663C11.9819 16.6663 13.7536 16.2487 15.0012 15.0012C16.2487 13.7536 16.6663 11.9819 16.6663 9.99967H15.1663ZM5.99967 1.83301V0.333008C4.35718 0.333008 2.79681 0.609554 1.70318 1.70318C0.609554 2.79681 0.333008 4.35718 0.333008 5.99967H1.83301H3.33301C3.33301 4.56884 3.60313 4.04587 3.8245 3.8245C4.04587 3.60313 4.56884 3.33301 5.99967 3.33301V1.83301ZM1.83301 5.99967H0.333008V9.99967H1.83301H3.33301V5.99967H1.83301ZM1.83301 9.99967H0.333008C0.333008 11.6422 0.609554 13.2025 1.70318 14.2962C2.79681 15.3898 4.35718 15.6663 5.99967 15.6663V14.1663V12.6663C4.56884 12.6663 4.04587 12.3962 3.8245 12.1748C3.60313 11.9535 3.33301 11.4305 3.33301 9.99967H1.83301ZM5.99967 14.1663V15.6663H9.99967V14.1663V12.6663H5.99967V14.1663ZM9.99967 14.1663V15.6663C11.6422 15.6663 13.2025 15.3898 14.2962 14.2962C15.3898 13.2025 15.6663 11.6422 15.6663 9.99967H14.1663H12.6663C12.6663 11.4305 12.3962 11.9535 12.1748 12.1748C11.9535 12.3962 11.4305 12.6663 9.99967 12.6663V14.1663ZM14.1663 9.99967H15.6663V5.99967H14.1663H12.6663V9.99967H14.1663ZM14.1663 5.99967H15.6663C15.6663 4.35718 15.3898 2.79681 14.2962 1.70318C13.2025 0.609554 11.6422 0.333008 9.99967 0.333008V1.83301V3.33301C11.4305 3.33301 11.9535 3.60313 12.1748 3.8245C12.3962 4.04587 12.6663 4.56884 12.6663 5.99967H14.1663ZM9.99967 1.83301V0.333008H5.99967V1.83301V3.33301H9.99967V1.83301Z" fill="#475569" mask="url(#path-3-inside-2_3002_2214)"/>
                        </svg>