<svg width="20" height="20" viewBox="0 0 20 20" fill="none" xmlns="http://www.w3.org/2000/svg">
                    <path d="M9.99935 1.04134C5.05768 1.04134 1.04102 5.05801 1.04102 9.99967C1.04102 14.9413 5.05768 18.958 9.99935 18.958C14.941 18.958 18.9577 14.9413 18.9577 9.99967C18.9577 5.05801 14.941 1.04134 9.99935 1.04134ZM9.99935 17.708C5.74935 17.708 2.29102 14.2497 2.29102 9.99967C2.29102 5.74967 5.74935 2.29134 9.99935 2.29134C14.2493 2.29134 17.7077 5.74967 17.7077 9.99967C17.7077 14.2497 14.2493 17.708 9.99935 17.708Z" fill="#334155"/>
                    <path d="M10 8.54134C9.65833 8.54134 9.375 8.82467 9.375 9.16634V13.333C9.375 13.6747 9.65833 13.958 10 13.958C10.3417 13.958 10.625 13.6747 10.625 13.333V9.16634C10.625 8.82467 10.3417 8.54134 10 8.54134Z" fill="#334155"/>
                    <path d="M9.99935 5.83359C9.89102 5.83359 9.78268 5.85859 9.68268 5.90026C9.58268 5.94193 9.49102 6.00026 9.40768 6.07526C9.33268 6.15859 9.27435 6.24193 9.23268 6.35026C9.19102 6.45026 9.16602 6.55859 9.16602 6.66693C9.16602 6.77526 9.19102 6.88359 9.23268 6.98359C9.27435 7.08359 9.33268 7.17526 9.40768 7.25859C9.49102 7.33359 9.58268 7.39193 9.68268 7.43359C9.88268 7.51693 10.116 7.51693 10.316 7.43359C10.416 7.39193 10.5077 7.33359 10.591 7.25859C10.666 7.17526 10.7243 7.08359 10.766 6.98359C10.8077 6.88359 10.8327 6.77526 10.8327 6.66693C10.8327 6.55859 10.8077 6.45026 10.766 6.35026C10.7243 6.24193 10.666 6.15859 10.591 6.07526C10.5077 6.00026 10.416 5.94193 10.316 5.90026C10.216 5.85859 10.1077 5.83359 9.99935 5.83359Z" fill="#334155"/>
                  </svg>