<svg width="16" height="16" viewBox="0 0 16 16" fill="none" xmlns="http://www.w3.org/2000/svg">
<mask id="path-1-inside-1_3002_3403" fill="white">
<path d="M13.18 7.49967H10.4867C9.14667 7.49967 8.5 6.90634 8.5 5.67967V2.65301C8.5 1.42634 9.15333 0.833008 10.4867 0.833008H13.18C14.52 0.833008 15.1667 1.42634 15.1667 2.65301V5.67301C15.1667 6.90634 14.5133 7.49967 13.18 7.49967ZM10.4867 1.83301C9.59333 1.83301 9.5 2.08634 9.5 2.65301V5.67301C9.5 6.24634 9.59333 6.49301 10.4867 6.49301H13.18C14.0733 6.49301 14.1667 6.23967 14.1667 5.67301V2.65301C14.1667 2.07967 14.0733 1.83301 13.18 1.83301H10.4867Z"/>
</mask>
<path d="M13.18 7.49967H10.4867C9.14667 7.49967 8.5 6.90634 8.5 5.67967V2.65301C8.5 1.42634 9.15333 0.833008 10.4867 0.833008H13.18C14.52 0.833008 15.1667 1.42634 15.1667 2.65301V5.67301C15.1667 6.90634 14.5133 7.49967 13.18 7.49967ZM10.4867 1.83301C9.59333 1.83301 9.5 2.08634 9.5 2.65301V5.67301C9.5 6.24634 9.59333 6.49301 10.4867 6.49301H13.18C14.0733 6.49301 14.1667 6.23967 14.1667 5.67301V2.65301C14.1667 2.07967 14.0733 1.83301 13.18 1.83301H10.4867Z" fill="white"/>
<path d="M13.18 7.49967V5.99967H10.4867V7.49967V8.99967H13.18V7.49967ZM10.4867 7.49967V5.99967C10.0048 5.99967 9.94443 5.88896 10.0043 5.94383C10.0351 5.97205 10.0412 5.99557 10.0344 5.97655C10.0242 5.94806 10 5.85925 10 5.67967H8.5H7C7 6.54573 7.23299 7.47332 7.97737 8.15552C8.69557 8.81372 9.62849 8.99967 10.4867 8.99967V7.49967ZM8.5 5.67967H10V2.65301H8.5H7V5.67967H8.5ZM8.5 2.65301H10C10 2.47497 10.0242 2.38702 10.0343 2.35898C10.0411 2.34024 10.0351 2.36294 10.0054 2.39013C9.94768 2.4429 10.01 2.33301 10.4867 2.33301V0.833008V-0.666992C9.62995 -0.666992 8.69899 -0.480216 7.98127 0.175885C7.23692 0.856323 7 1.7828 7 2.65301H8.5ZM10.4867 0.833008V2.33301H13.18V0.833008V-0.666992H10.4867V0.833008ZM13.18 0.833008V2.33301C13.6618 2.33301 13.7222 2.44372 13.6624 2.38886C13.6316 2.36063 13.6255 2.33711 13.6322 2.35613C13.6424 2.38462 13.6667 2.47343 13.6667 2.65301H15.1667H16.6667C16.6667 1.78695 16.4337 0.859358 15.6893 0.17716C14.9711 -0.481039 14.0382 -0.666992 13.18 -0.666992V0.833008ZM15.1667 2.65301H13.6667V5.67301H15.1667H16.6667V2.65301H15.1667ZM15.1667 5.67301H13.6667C13.6667 5.85351 13.6422 5.94331 13.6317 5.97273C13.6245 5.99281 13.6299 5.97044 13.6597 5.94311C13.7179 5.88976 13.6567 5.99967 13.18 5.99967V7.49967V8.99967C14.0366 8.99967 14.9687 8.81292 15.6869 8.15457C16.431 7.4725 16.6667 6.5443 16.6667 5.67301H15.1667ZM10.4867 1.83301V0.333008C10.0351 0.333008 9.2075 0.363775 8.60096 0.966569C7.96883 1.5948 8 2.43648 8 2.65301H9.5H11C11 2.52992 11.0076 2.5438 10.9937 2.60747C10.9738 2.69795 10.908 2.90331 10.7157 3.09445C10.5314 3.27757 10.3493 3.32945 10.3093 3.33915C10.2795 3.34639 10.3194 3.33301 10.4867 3.33301V1.83301ZM9.5 2.65301H8V5.67301H9.5H11V2.65301H9.5ZM9.5 5.67301H8C8 5.88786 7.96719 6.73601 8.60428 7.36523C9.2128 7.96624 10.043 7.99301 10.4867 7.99301V6.49301V4.99301C10.3173 4.99301 10.2758 4.97978 10.304 4.98652C10.3419 4.99557 10.5258 5.04651 10.7124 5.23078C10.9077 5.42372 10.974 5.63169 10.9939 5.72229C11.0077 5.78557 11 5.79866 11 5.67301H9.5ZM10.4867 6.49301V7.99301H13.18V6.49301V4.99301H10.4867V6.49301ZM13.18 6.49301V7.99301C13.6316 7.99301 14.4592 7.96224 15.0657 7.35945C15.6978 6.73122 15.6667 5.88954 15.6667 5.67301H14.1667H12.6667C12.6667 5.79609 12.659 5.78222 12.673 5.71855C12.6929 5.62807 12.7586 5.4227 12.951 5.23157C13.1352 5.04844 13.3174 4.99656 13.3574 4.98687C13.3872 4.97962 13.3472 4.99301 13.18 4.99301V6.49301ZM14.1667 5.67301H15.6667V2.65301H14.1667H12.6667V5.67301H14.1667ZM14.1667 2.65301H15.6667C15.6667 2.43816 15.6995 1.59001 15.0624 0.96078C14.4539 0.359775 13.6237 0.333008 13.18 0.333008V1.83301V3.33301C13.3493 3.33301 13.3909 3.34623 13.3627 3.3395C13.3248 3.33044 13.1409 3.2795 12.9543 3.09524C12.7589 2.9023 12.6926 2.69433 12.6728 2.60373C12.659 2.54044 12.6667 2.52736 12.6667 2.65301H14.1667ZM13.18 1.83301V0.333008H10.4867V1.83301V3.33301H13.18V1.83301Z" fill="white" mask="url(#path-1-inside-1_3002_3403)"/>
<mask id="path-3-inside-2_3002_3403" fill="white">
<path d="M13.18 15.1667H10.4867C9.14667 15.1667 8.5 14.5133 8.5 13.18V10.4867C8.5 9.14667 9.15333 8.5 10.4867 8.5H13.18C14.52 8.5 15.1667 9.15333 15.1667 10.4867V13.18C15.1667 14.5133 14.5133 15.1667 13.18 15.1667ZM10.4867 9.5C9.7 9.5 9.5 9.7 9.5 10.4867V13.18C9.5 13.9667 9.7 14.1667 10.4867 14.1667H13.18C13.9667 14.1667 14.1667 13.9667 14.1667 13.18V10.4867C14.1667 9.7 13.9667 9.5 13.18 9.5H10.4867Z"/>
</mask>
<path d="M13.18 15.1667H10.4867C9.14667 15.1667 8.5 14.5133 8.5 13.18V10.4867C8.5 9.14667 9.15333 8.5 10.4867 8.5H13.18C14.52 8.5 15.1667 9.15333 15.1667 10.4867V13.18C15.1667 14.5133 14.5133 15.1667 13.18 15.1667ZM10.4867 9.5C9.7 9.5 9.5 9.7 9.5 10.4867V13.18C9.5 13.9667 9.7 14.1667 10.4867 14.1667H13.18C13.9667 14.1667 14.1667 13.9667 14.1667 13.18V10.4867C14.1667 9.7 13.9667 9.5 13.18 9.5H10.4867Z" fill="white"/>
<path d="M13.18 15.1667V13.6667H10.4867V15.1667V16.6667H13.18V15.1667ZM10.4867 15.1667V13.6667C10.0383 13.6667 9.9964 13.5574 10.0528 13.614C10.1086 13.6699 10 13.6269 10 13.18H8.5H7C7 14.0664 7.21477 15.0168 7.92883 15.7327C8.6436 16.4492 9.59503 16.6667 10.4867 16.6667V15.1667ZM8.5 13.18H10V10.4867H8.5H7V13.18H8.5ZM8.5 10.4867H10C10 10.0383 10.1092 9.9964 10.0527 10.0528C9.99678 10.1086 10.0397 10 10.4867 10V8.5V7C9.60028 7 8.64988 7.21477 7.93401 7.92883C7.21744 8.6436 7 9.59503 7 10.4867H8.5ZM10.4867 8.5V10H13.18V8.5V7H10.4867V8.5ZM13.18 8.5V10C13.6284 10 13.6703 10.1092 13.6138 10.0527C13.5581 9.99678 13.6667 10.0397 13.6667 10.4867H15.1667H16.6667C16.6667 9.60028 16.4519 8.64988 15.7378 7.93401C15.0231 7.21744 14.0716 7 13.18 7V8.5ZM15.1667 10.4867H13.6667V13.18H15.1667H16.6667V10.4867H15.1667ZM15.1667 13.18H13.6667C13.6667 13.6231 13.5584 13.667 13.6127 13.6127C13.667 13.5584 13.6231 13.6667 13.18 13.6667V15.1667V16.6667C14.0702 16.6667 15.0197 16.4483 15.734 15.734C16.4483 15.0197 16.6667 14.0702 16.6667 13.18H15.1667ZM10.4867 9.5V8C10.0989 8 9.2614 8.01395 8.63767 8.63767C8.01395 9.2614 8 10.0989 8 10.4867H9.5H11C11 10.3367 11.0113 10.3123 11.0021 10.3506C10.9889 10.4057 10.934 10.584 10.759 10.759C10.584 10.934 10.4057 10.9889 10.3506 11.0021C10.3123 11.0113 10.3367 11 10.4867 11V9.5ZM9.5 10.4867H8V13.18H9.5H11V10.4867H9.5ZM9.5 13.18H8C8 13.5678 8.01395 14.4053 8.63767 15.029C9.2614 15.6527 10.0989 15.6667 10.4867 15.6667V14.1667V12.6667C10.3367 12.6667 10.3123 12.6553 10.3506 12.6645C10.4057 12.6778 10.584 12.7327 10.759 12.9077C10.934 13.0827 10.9889 13.2609 11.0021 13.3161C11.0113 13.3544 11 13.3299 11 13.18H9.5ZM10.4867 14.1667V15.6667H13.18V14.1667V12.6667H10.4867V14.1667ZM13.18 14.1667V15.6667C13.5678 15.6667 14.4053 15.6527 15.029 15.029C15.6527 14.4053 15.6667 13.5678 15.6667 13.18H14.1667H12.6667C12.6667 13.3299 12.6553 13.3544 12.6645 13.3161C12.6778 13.2609 12.7327 13.0827 12.9077 12.9077C13.0827 12.7327 13.2609 12.6778 13.3161 12.6645C13.3544 12.6553 13.3299 12.6667 13.18 12.6667V14.1667ZM14.1667 13.18H15.6667V10.4867H14.1667H12.6667V13.18H14.1667ZM14.1667 10.4867H15.6667C15.6667 10.0989 15.6527 9.2614 15.029 8.63767C14.4053 8.01395 13.5678 8 13.18 8V9.5V11C13.3299 11 13.3544 11.0113 13.3161 11.0021C13.2609 10.9889 13.0827 10.934 12.9077 10.759C12.7327 10.584 12.6778 10.4057 12.6645 10.3506C12.6553 10.3123 12.6667 10.3367 12.6667 10.4867H14.1667ZM13.18 9.5V8H10.4867V9.5V11H13.18V9.5Z" fill="white" mask="url(#path-3-inside-2_3002_3403)"/>
<mask id="path-5-inside-3_3002_3403" fill="white">
<path d="M5.51301 7.49967H2.81967C1.47967 7.49967 0.833008 6.90634 0.833008 5.67967V2.65301C0.833008 1.42634 1.48634 0.833008 2.81967 0.833008H5.51301C6.85301 0.833008 7.49967 1.42634 7.49967 2.65301V5.67301C7.49967 6.90634 6.84634 7.49967 5.51301 7.49967ZM2.81967 1.83301C1.92634 1.83301 1.83301 2.08634 1.83301 2.65301V5.67301C1.83301 6.24634 1.92634 6.49301 2.81967 6.49301H5.51301C6.40634 6.49301 6.49967 6.23967 6.49967 5.67301V2.65301C6.49967 2.07967 6.40634 1.83301 5.51301 1.83301H2.81967Z"/>
</mask>
<path d="M5.51301 7.49967H2.81967C1.47967 7.49967 0.833008 6.90634 0.833008 5.67967V2.65301C0.833008 1.42634 1.48634 0.833008 2.81967 0.833008H5.51301C6.85301 0.833008 7.49967 1.42634 7.49967 2.65301V5.67301C7.49967 6.90634 6.84634 7.49967 5.51301 7.49967ZM2.81967 1.83301C1.92634 1.83301 1.83301 2.08634 1.83301 2.65301V5.67301C1.83301 6.24634 1.92634 6.49301 2.81967 6.49301H5.51301C6.40634 6.49301 6.49967 6.23967 6.49967 5.67301V2.65301C6.49967 2.07967 6.40634 1.83301 5.51301 1.83301H2.81967Z" fill="white"/>
<path d="M5.51301 7.49967V5.99967H2.81967V7.49967V8.99967H5.51301V7.49967ZM2.81967 7.49967V5.99967C2.33785 5.99967 2.27743 5.88896 2.3373 5.94383C2.3681 5.97205 2.37422 5.99557 2.36742 5.97655C2.35724 5.94806 2.33301 5.85925 2.33301 5.67967H0.833008H-0.666992C-0.666992 6.54573 -0.434006 7.47332 0.310381 8.15552C1.02858 8.81372 1.9615 8.99967 2.81967 8.99967V7.49967ZM0.833008 5.67967H2.33301V2.65301H0.833008H-0.666992V5.67967H0.833008ZM0.833008 2.65301H2.33301C2.33301 2.47497 2.35725 2.38702 2.36734 2.35898C2.37408 2.34024 2.36816 2.36294 2.33841 2.39013C2.28068 2.4429 2.34306 2.33301 2.81967 2.33301V0.833008V-0.666992C1.96296 -0.666992 1.032 -0.480216 0.314274 0.175885C-0.430072 0.856323 -0.666992 1.7828 -0.666992 2.65301H0.833008ZM2.81967 0.833008V2.33301H5.51301V0.833008V-0.666992H2.81967V0.833008ZM5.51301 0.833008V2.33301C5.99483 2.33301 6.05525 2.44372 5.99538 2.38886C5.96459 2.36063 5.95846 2.33711 5.96526 2.35613C5.97545 2.38462 5.99967 2.47343 5.99967 2.65301H7.49967H8.99967C8.99967 1.78695 8.76669 0.859358 8.0223 0.177161C7.3041 -0.481039 6.37118 -0.666992 5.51301 -0.666992V0.833008ZM7.49967 2.65301H5.99967V5.67301H7.49967H8.99967V2.65301H7.49967ZM7.49967 5.67301H5.99967C5.99967 5.85351 5.97522 5.94331 5.96468 5.97273C5.95749 5.99281 5.96294 5.97044 5.99275 5.94311C6.05095 5.88976 5.98971 5.99967 5.51301 5.99967V7.49967V8.99967C6.36964 8.99967 7.30173 8.81292 8.01993 8.15457C8.76401 7.4725 8.99967 6.5443 8.99967 5.67301H7.49967ZM2.81967 1.83301V0.333008C2.36812 0.333008 1.54051 0.363775 0.93397 0.966569C0.301841 1.5948 0.333008 2.43648 0.333008 2.65301H1.83301H3.33301C3.33301 2.52992 3.34064 2.5438 3.32666 2.60747C3.30679 2.69795 3.24103 2.90331 3.04871 3.09445C2.86445 3.27757 2.68229 3.32945 2.64232 3.33915C2.61248 3.34639 2.65244 3.33301 2.81967 3.33301V1.83301ZM1.83301 2.65301H0.333008V5.67301H1.83301H3.33301V2.65301H1.83301ZM1.83301 5.67301H0.333008C0.333008 5.88786 0.300194 6.73601 0.937289 7.36524C1.54581 7.96624 2.37596 7.99301 2.81967 7.99301V6.49301V4.99301C2.65033 4.99301 2.60878 4.97978 2.63698 4.98652C2.67491 4.99557 2.85882 5.04651 3.04539 5.23078C3.24074 5.42372 3.30703 5.63169 3.32686 5.72229C3.34071 5.78557 3.33301 5.79866 3.33301 5.67301H1.83301ZM2.81967 6.49301V7.99301H5.51301V6.49301V4.99301H2.81967V6.49301ZM5.51301 6.49301V7.99301C5.96456 7.99301 6.79217 7.96224 7.39871 7.35945C8.03084 6.73122 7.99967 5.88954 7.99967 5.67301H6.49967H4.99967C4.99967 5.79609 4.99205 5.78222 5.00602 5.71855C5.02589 5.62807 5.09165 5.4227 5.28397 5.23157C5.46823 5.04844 5.6504 4.99656 5.69036 4.98687C5.7202 4.97962 5.68024 4.99301 5.51301 4.99301V6.49301ZM6.49967 5.67301H7.99967V2.65301H6.49967H4.99967V5.67301H6.49967ZM6.49967 2.65301H7.99967C7.99967 2.43816 8.03249 1.59001 7.39539 0.960781C6.78688 0.359775 5.95672 0.333008 5.51301 0.333008V1.83301V3.33301C5.68235 3.33301 5.7239 3.34623 5.6957 3.3395C5.65777 3.33044 5.47386 3.2795 5.28729 3.09523C5.09194 2.9023 5.02565 2.69433 5.00582 2.60373C4.99197 2.54044 4.99967 2.52736 4.99967 2.65301H6.49967ZM5.51301 1.83301V0.333008H2.81967V1.83301V3.33301H5.51301V1.83301Z" fill="white" mask="url(#path-5-inside-3_3002_3403)"/>
<path d="M5.51301 15.1667H2.81967C1.47967 15.1667 0.833008 14.5133 0.833008 13.18V10.4867C0.833008 9.14667 1.48634 8.5 2.81967 8.5H5.51301C6.85301 8.5 7.49967 9.15333 7.49967 10.4867V13.18C7.49967 14.5133 6.84634 15.1667 5.51301 15.1667ZM2.81967 9.5C2.03301 9.5 1.83301 9.7 1.83301 10.4867V13.18C1.83301 13.9667 2.03301 14.1667 2.81967 14.1667H5.51301C6.29967 14.1667 6.49967 13.9667 6.49967 13.18V10.4867C6.49967 9.7 6.29967 9.5 5.51301 9.5H2.81967Z" fill="white"/>
</svg>
