<svg width="16" height="16" viewBox="0 0 16 16" fill="none" xmlns="http://www.w3.org/2000/svg">
<path d="M8.00098 2.08301C11.2599 2.08318 13.917 4.74099 13.917 8C13.9168 11.2589 11.2598 13.9158 8.00098 13.916C4.74197 13.916 2.08416 11.259 2.08398 8C2.08398 4.74088 4.74186 2.08301 8.00098 2.08301ZM10.6768 5.14355C10.2198 4.77131 9.55575 4.77156 9.09863 5.14355L9.00391 5.22949L8.00098 6.23242L6.99805 5.22949L6.90332 5.14355C6.44632 4.77135 5.78229 4.77153 5.3252 5.14355L5.23047 5.22949C4.74424 5.71572 4.74424 6.51084 5.23047 6.99707L6.2334 8L5.23047 9.00293C4.74435 9.48911 4.74442 10.2833 5.23047 10.7695C5.47853 11.0176 5.79941 11.1367 6.11426 11.1367C6.42902 11.1367 6.75006 11.0175 6.99805 10.7695L8.00098 9.7666L9.00391 10.7695C9.25197 11.0176 9.57285 11.1367 9.8877 11.1367C10.2024 11.1366 10.5225 11.0175 10.7705 10.7695C11.2567 10.2833 11.2567 9.48916 10.7705 9.00293L9.76758 8L10.7705 6.99707C11.2263 6.54128 11.2552 5.81396 10.8564 5.32422L10.7705 5.22949L10.6768 5.14355Z" fill="white" stroke="white" stroke-width="1.5"/>
</svg>
