<svg width="494" height="229" viewBox="0 0 494 229" fill="none" xmlns="http://www.w3.org/2000/svg">
<path d="M0.990587 111.416C2.57634 74.8924 12.8318 54.2539 23.0612 42.6813C30.665 34.07 41.2843 28.7578 52.6835 27.329C80.0573 23.9001 102.895 19.0035 102.895 19.0035C120.208 15.6265 153.288 19.588 161.633 20.679C163.01 20.8608 164.375 20.9777 165.753 21.0297C197.078 22.2636 248.056 19.4841 248.056 19.4841C286.894 18.0294 352.924 21.9129 352.924 21.9129C378.66 22.3935 410.219 20.9388 410.219 20.9388C421.527 20.5101 432.458 22.4324 441.154 24.7054C450.773 27.2251 459.351 32.7712 465.629 40.4733C467.67 42.98 469.776 45.3179 471.075 46.7207C471.998 47.7208 472.908 48.7469 473.714 49.8379C490.91 72.9312 492.756 112.13 492.756 112.13C493.731 156.278 470.426 181.994 470.426 181.994C468.593 183.943 467.007 185.93 465.668 187.8C458.441 197.853 447.588 204.815 435.37 206.88C421.605 209.218 408.776 208.673 408.776 208.673C367.508 205.763 351.481 207.698 351.481 207.698C300.503 211.582 250.487 207.698 250.487 207.698C203.811 205.348 174.241 205.529 164.609 205.685C162.386 205.724 160.177 205.945 157.98 206.296C129.398 210.725 100.945 205.763 100.945 205.763C82.1889 202.152 61.6522 199.646 50.3569 198.412C40.9204 197.373 31.9258 193.658 24.7379 187.45C-2.53188 163.85 0.301694 119.65 0.847609 113.364C0.899601 112.715 0.93859 112.052 0.964586 111.39L0.990587 111.416Z" fill="#F1F5F9" stroke="#1D1D1B" stroke-miterlimit="10"/>
<path d="M65.0961 42.345L116.88 46.839C117.66 46.9039 118.128 47.7092 117.829 48.4235C93.8997 104.91 112.188 171.592 115.528 182.684C115.775 183.49 115.164 184.282 114.332 184.282H63.7183C62.1846 184.282 60.7808 183.321 60.2479 181.879C33.706 110.053 55.9455 55.9828 61.4567 44.4231C62.1196 43.0334 63.5624 42.2021 65.0961 42.345Z" fill="#1D1D1B"/>
<path d="M288.298 44.4739L339.51 34.408C343.708 33.5897 347.984 35.2652 350.545 38.6811C398.443 102.831 361.84 169.149 348.829 188.827C346.464 192.411 342.239 194.295 337.989 193.671L286.959 186.151C286.166 186.034 285.659 185.242 285.867 184.462C304.831 114.027 289.974 55.4881 287.31 46.0585C287.102 45.3442 287.57 44.6038 288.298 44.4609V44.4739Z" fill="#1D1D1B"/>
<path d="M98.4867 32.9152C114.37 27.9147 141.354 28.5122 149.452 28.8109C150.076 28.8369 150.258 29.6681 149.699 29.9669C142.576 33.8114 139.794 38.6431 139.131 40.0069C139.014 40.2277 138.78 40.3576 138.52 40.3446C117.204 38.5262 103.361 35.357 98.4996 34.1102C97.9017 33.9543 97.8887 33.1101 98.4737 32.9282L98.4867 32.9152Z" fill="#1D1D1B"/>
<path d="M144.371 40.992C169.574 44.2781 198.572 44.9665 203.616 45.0574C204.07 45.0574 204.473 44.7717 204.629 44.343C206.774 38.2515 211.141 33.2899 213.663 30.8092C214.326 30.1468 213.858 29.0168 212.922 29.0038C179.361 28.2375 158.954 29.822 156.55 30.0169C156.394 30.0299 156.238 30.0818 156.095 30.1597C150.012 33.7056 145.866 37.2254 143.786 39.1737C143.136 39.7841 143.487 40.8881 144.371 41.005V40.992Z" fill="#1D1D1B"/>
<path d="M237.723 28.6673C227.857 34.0055 221.878 40.8114 219.786 43.4611C219.422 43.9157 219.76 44.591 220.332 44.591C271.492 44.3962 330.645 33.5769 333.869 32.9794C333.96 32.9665 334.051 32.9275 334.129 32.8755L338.535 29.8233C339.094 29.4336 338.821 28.5634 338.145 28.5634C276.054 27.6802 240.738 28.5244 238.048 28.5894C237.931 28.5894 237.827 28.6283 237.723 28.6803V28.6673Z" fill="#1D1D1B"/>
<path d="M320.662 30.6404C328.435 34.524 327.941 31.121 327.941 31.121C324.86 24.9645 325.133 20.9382 325.38 19.5484C325.458 19.1458 325.458 18.7171 325.38 18.3145C322.534 5.15729 312.915 1.63744 311.213 1.11791C311.057 1.06595 310.901 1.03997 310.732 1.014L307.326 0.533434C305.363 0.24769 303.635 1.83226 303.765 3.80649C304.259 11.1839 310.797 21.2109 313.344 24.8736C313.89 25.6529 314.748 26.1725 315.684 26.1984C320.155 26.3153 320.662 30.6404 320.662 30.6404Z" fill="white" stroke="#1D1D1B" stroke-miterlimit="10"/>
<path d="M210.568 44.4736C217.847 33.7972 238.371 19.8477 238.371 19.8477" stroke="#1D1D1B" stroke-miterlimit="10" stroke-linecap="round"/>
<path d="M140.652 40.4612C145.15 34.3957 163.841 21.0566 163.841 21.0566" stroke="#1D1D1B" stroke-miterlimit="10" stroke-linecap="round"/>
<path d="M97.9945 196.464C113.878 201.465 140.862 200.867 148.96 200.569C149.583 200.543 149.765 199.712 149.206 199.413C142.084 195.568 139.302 190.737 138.639 189.373C138.522 189.152 138.288 189.022 138.028 189.035C116.712 190.853 102.869 194.023 98.0075 195.27C97.4096 195.425 97.3965 196.27 97.9814 196.451L97.9945 196.464Z" fill="#1D1D1B"/>
<path d="M143.888 188.387C169.091 185.101 198.09 184.412 203.133 184.321C203.588 184.321 203.991 184.607 204.147 185.036C206.292 191.127 210.659 196.089 213.181 198.57C213.843 199.232 213.376 200.362 212.44 200.375C178.879 201.141 158.472 199.557 156.067 199.362C155.911 199.349 155.755 199.297 155.613 199.219C149.529 195.673 145.383 192.153 143.303 190.205C142.654 189.595 143.004 188.491 143.888 188.374V188.387Z" fill="#1D1D1B"/>
<path d="M237.241 200.723C227.375 195.384 221.396 188.578 219.303 185.929C218.939 185.474 219.277 184.799 219.849 184.799C271.009 184.994 330.163 195.813 333.387 196.41C333.478 196.423 333.569 196.462 333.647 196.514L338.053 199.567C338.612 199.956 338.339 200.826 337.663 200.826C275.572 201.71 240.256 200.865 237.566 200.8C237.449 200.8 237.345 200.762 237.241 200.71V200.723Z" fill="#1D1D1B"/>
<path d="M210.088 184.918C217.367 195.594 234.238 207.154 234.238 207.154" stroke="#1D1D1B" stroke-miterlimit="10" stroke-linecap="round"/>
<path d="M140.172 188.918C144.669 194.984 160.137 206.063 160.137 206.063" stroke="#1D1D1B" stroke-miterlimit="10" stroke-linecap="round"/>
<path d="M337.17 35.5001C359.383 30.3697 447.692 38.8381 447.692 38.8381" stroke="#1D1D1B" stroke-miterlimit="10" stroke-linecap="round"/>
<path d="M336.922 192.917C375.825 196.84 447.444 189.579 447.444 189.579" stroke="#1D1D1B" stroke-miterlimit="10" stroke-linecap="round"/>
<path d="M26.5566 39.0965L37.176 34.6025C38.0598 34.2128 39.0087 33.992 39.9835 33.9141C51.0708 32.979 59.1815 26.6406 59.1815 26.6406" stroke="#1D1D1B" stroke-miterlimit="10" stroke-linecap="round"/>
<path d="M21.2793 184.111L31.1967 188.865C32.0676 189.281 33.0165 189.514 33.9783 189.631C45.0396 190.852 53.6182 198.84 53.6182 198.84" stroke="#1D1D1B" stroke-miterlimit="10" stroke-linecap="round"/>
<path d="M441.179 24.707C440.945 29.0322 465.655 40.4749 465.655 40.4749" stroke="#1D1D1B" stroke-miterlimit="10" stroke-linecap="round"/>
<path d="M439.359 205.323C439.125 200.997 463.834 189.555 463.834 189.555" stroke="#1D1D1B" stroke-miterlimit="10" stroke-linecap="round"/>
<path d="M320.779 198.36C328.552 194.477 328.058 197.879 328.058 197.879C324.978 204.036 325.251 208.062 325.498 209.452C325.576 209.855 325.576 210.283 325.498 210.686C322.651 223.843 313.032 227.363 311.33 227.883C311.174 227.935 311.018 227.961 310.849 227.987L307.443 228.467C305.481 228.753 303.752 227.168 303.882 225.194C304.376 217.817 310.914 207.79 313.461 204.127C314.007 203.348 314.865 202.828 315.801 202.802C320.272 202.685 320.779 198.36 320.779 198.36Z" fill="white" stroke="#1D1D1B" stroke-miterlimit="10"/>
</svg>
