<svg width="214" height="50" viewBox="0 0 214 50" fill="none" xmlns="http://www.w3.org/2000/svg">
<path d="M120.451 30.0147C119.46 29.6907 118.737 29.2048 118.283 28.5569C117.828 27.909 117.6 27.1477 117.6 26.2731C117.6 25.6414 117.706 25.0664 117.917 24.548C118.144 24.0135 118.477 23.56 118.916 23.1875C119.354 22.7987 119.906 22.4991 120.572 22.2885C121.254 22.0779 122.05 21.9727 122.96 21.9727H129.049V34.8496H125.834V30.4034H123.52L120.718 34.8496H117.113L120.451 30.0147ZM120.816 26.2731C120.816 26.8238 120.995 27.2287 121.352 27.4879C121.725 27.747 122.221 27.8766 122.838 27.8766H125.834V24.6452H122.838C122.221 24.6452 121.725 24.7829 121.352 25.0583C120.995 25.3174 120.816 25.7224 120.816 26.2731Z" fill="#F8FAFC"/>
<path d="M102.971 21.9727H106.186V30.2333L111.935 21.9727H114.907V34.8496H111.691V26.5889L105.943 34.8496H102.971V21.9727Z" fill="#F8FAFC"/>
<path d="M98.0635 34.8496H87.6133V21.9727H90.8287V32.177H95.8468V21.9727H99.0622V32.177H100.889V37.8866H98.0635V34.8496Z" fill="#F8FAFC"/>
<path d="M77.4814 35.1417C76.7831 35.1417 76.166 35.0445 75.6301 34.8501C75.0942 34.6396 74.6395 34.3561 74.266 33.9998C73.8925 33.6272 73.6083 33.198 73.4134 32.7121C73.2185 32.2099 73.1211 31.6673 73.1211 31.0842C73.1211 28.4926 74.6639 27.1969 77.7494 27.1969H81.5982V26.5894C81.5982 25.7472 81.4033 25.156 81.0136 24.8158C80.64 24.4757 80.0392 24.3056 79.211 24.3056C78.4802 24.3056 77.9524 24.4352 77.6276 24.6944C77.3028 24.9373 77.116 25.2451 77.0673 25.6176H73.8519C73.8844 25.0669 74.0224 24.5486 74.266 24.0627C74.5258 23.5767 74.8831 23.1637 75.3378 22.8236C75.8088 22.4672 76.3771 22.1919 77.043 21.9975C77.7088 21.7869 78.4721 21.6816 79.3328 21.6816C80.161 21.6816 80.908 21.7707 81.5738 21.9489C82.2559 22.1271 82.8324 22.4186 83.3033 22.8236C83.7905 23.2123 84.164 23.7225 84.4239 24.3542C84.6837 24.9859 84.8136 25.7472 84.8136 26.638V31.5701C84.8136 32.2504 84.8217 32.8497 84.838 33.3681C84.8705 33.8702 84.9192 34.3642 84.9841 34.8501H81.9879C81.923 34.4938 81.8824 34.2265 81.8661 34.0483C81.8661 33.854 81.8661 33.5705 81.8661 33.198C81.5089 33.7163 80.9648 34.1698 80.2341 34.5586C79.5195 34.9473 78.602 35.1417 77.4814 35.1417ZM78.4802 32.6635C78.8699 32.6635 79.2516 32.6149 79.6251 32.5177C79.9986 32.4043 80.3315 32.2423 80.6238 32.0318C80.9161 31.805 81.1516 31.5216 81.3302 31.1814C81.5089 30.8413 81.5982 30.4444 81.5982 29.9909V29.3835H78.3584C77.7413 29.3835 77.2541 29.5293 76.8968 29.8208C76.5558 30.0962 76.3853 30.4768 76.3853 30.9627C76.3853 31.4811 76.5639 31.8941 76.9212 32.2018C77.2784 32.5096 77.7981 32.6635 78.4802 32.6635Z" fill="#F8FAFC"/>
<path d="M64.814 24.6452H60.6973V21.9727H72.1462V24.6452H68.0295V34.8496H64.814V24.6452Z" fill="#F8FAFC"/>
<path d="M49.2599 40.0003C49.0163 40.0003 48.7727 39.9761 48.5291 39.9275V37.2063C48.7727 37.2549 49.0163 37.2792 49.2599 37.2792C49.7471 37.2792 50.1206 37.0929 50.3805 36.7204C50.6565 36.364 50.9651 35.7404 51.3061 34.8496L45.8496 21.9727H49.4548L52.9626 30.865L56.178 21.9727H59.4909L54.5216 34.8496C54.1643 35.7566 53.8233 36.5341 53.4985 37.182C53.1899 37.8461 52.8408 38.3806 52.451 38.7855C52.0613 39.2067 51.6147 39.5144 51.1113 39.7088C50.6078 39.9032 49.9907 40.0003 49.2599 40.0003Z" fill="#F8FAFC"/>
<path d="M32.457 21.9727H44.1496V34.8496H40.9341V24.6452H35.6725V34.8496H32.457V21.9727Z" fill="#F8FAFC"/>
<path d="M24.1779 35.1417C23.301 35.1417 22.4646 35.0121 21.6689 34.7529C20.8894 34.4776 20.2073 34.0726 19.6227 33.5381C19.0381 32.9874 18.5752 32.299 18.2342 31.473C17.8932 30.6307 17.7227 29.6508 17.7227 28.5331V28.0472C17.7227 26.9782 17.8851 26.0468 18.2098 25.2532C18.5346 24.4595 18.9812 23.8035 19.5496 23.2852C20.118 22.7507 20.7757 22.3538 21.5227 22.0947C22.2698 21.8193 23.0736 21.6816 23.9343 21.6816C25.9643 21.6816 27.507 22.2162 28.5626 23.2852C29.6182 24.3542 30.146 25.9011 30.146 27.9257V29.2863H21.0112C21.0274 29.8532 21.1249 30.3472 21.3035 30.7684C21.4821 31.1733 21.7176 31.5054 22.0099 31.7645C22.3022 32.0237 22.6351 32.218 23.0087 32.3476C23.3984 32.461 23.7882 32.5177 24.1779 32.5177C25.0061 32.5177 25.6314 32.3962 26.0536 32.1533C26.4758 31.9103 26.7763 31.554 26.9549 31.0842H29.9024C29.6425 32.4286 29.0011 33.4409 27.978 34.1212C26.9549 34.8015 25.6882 35.1417 24.1779 35.1417ZM24.0561 24.3056C23.6826 24.3056 23.3091 24.3542 22.9356 24.4514C22.5783 24.5486 22.2616 24.7025 21.9856 24.913C21.7095 25.1236 21.4821 25.407 21.3035 25.7634C21.1249 26.1197 21.0274 26.549 21.0112 27.0511H27.028C27.0117 26.5166 26.9224 26.0711 26.76 25.7148C26.6139 25.3584 26.4027 25.075 26.1267 24.8644C25.8668 24.6539 25.5583 24.5081 25.201 24.4271C24.8437 24.3461 24.4621 24.3056 24.0561 24.3056Z" fill="#F8FAFC"/>
<path d="M0 22.6777H3.97676V34.8574H0V22.6777Z" fill="#DD2F41"/>
<path d="M7.06398 10H0V13.8279H7.06398C9.37207 13.8279 11.25 15.7905 11.25 18.2026C11.25 20.6148 9.37207 22.5774 7.06398 22.5774H0L3.6628 26.4053H7.06398C11.3989 26.4053 14.9128 22.733 14.9128 18.2026C14.9128 13.6723 11.3989 10 7.06398 10Z" fill="#DD2F41"/>
<path d="M12.4736 26.6543C11.2071 27.4089 9.75236 27.8825 8.19727 27.9935L11.423 34.8569H16.3993L12.5441 26.6543H12.4736Z" fill="#DD2F41"/>
<mask id="path-12-outside-1_3002_5219" maskUnits="userSpaceOnUse" x="142" y="11" width="41" height="30" fill="black">
<rect fill="white" x="142" y="11" width="41" height="30"/>
<path d="M148.215 40V11.8713H154.431V40H148.215ZM142.797 17.1703V11.8713H154.032V17.1703H142.797ZM170.365 40.4383C168.107 40.4383 166.062 39.8273 164.229 38.6055C162.397 37.3837 160.949 35.6837 159.886 33.5057C158.851 31.3011 158.333 28.7644 158.333 25.8958C158.333 23.0006 158.851 20.4772 159.886 18.3257C160.922 16.1477 162.343 14.461 164.15 13.2657C165.956 12.0439 168.001 11.433 170.285 11.433C172.596 11.433 174.655 12.0439 176.461 13.2657C178.267 14.461 179.688 16.1477 180.724 18.3257C181.786 20.5038 182.318 23.0404 182.318 25.9356C182.318 28.8308 181.786 31.3675 180.724 33.5455C179.688 35.7236 178.267 37.4235 176.461 38.6454C174.681 39.8406 172.649 40.4383 170.365 40.4383ZM170.325 34.9002C171.494 34.9002 172.503 34.5681 173.353 33.9041C174.203 33.2135 174.854 32.2042 175.305 30.8761C175.784 29.5214 176.023 27.8746 176.023 25.9356C176.023 23.9701 175.784 22.3232 175.305 20.9952C174.854 19.6671 174.203 18.671 173.353 18.007C172.503 17.3164 171.481 16.9711 170.285 16.9711C169.143 16.9711 168.134 17.3031 167.257 17.9671C166.407 18.6312 165.757 19.6272 165.305 20.9553C164.853 22.2834 164.628 23.9302 164.628 25.8958C164.628 27.8613 164.853 29.5082 165.305 30.8362C165.757 32.1643 166.407 33.1737 167.257 33.8643C168.134 34.5549 169.156 34.9002 170.325 34.9002Z"/>
</mask>
<g filter="url(#filter0_iii_3002_5219)">
<path d="M148.215 40V11.8713H154.431V40H148.215ZM142.797 17.1703V11.8713H154.032V17.1703H142.797ZM170.365 40.4383C168.107 40.4383 166.062 39.8273 164.229 38.6055C162.397 37.3837 160.949 35.6837 159.886 33.5057C158.851 31.3011 158.333 28.7644 158.333 25.8958C158.333 23.0006 158.851 20.4772 159.886 18.3257C160.922 16.1477 162.343 14.461 164.15 13.2657C165.956 12.0439 168.001 11.433 170.285 11.433C172.596 11.433 174.655 12.0439 176.461 13.2657C178.267 14.461 179.688 16.1477 180.724 18.3257C181.786 20.5038 182.318 23.0404 182.318 25.9356C182.318 28.8308 181.786 31.3675 180.724 33.5455C179.688 35.7236 178.267 37.4235 176.461 38.6454C174.681 39.8406 172.649 40.4383 170.365 40.4383ZM170.325 34.9002C171.494 34.9002 172.503 34.5681 173.353 33.9041C174.203 33.2135 174.854 32.2042 175.305 30.8761C175.784 29.5214 176.023 27.8746 176.023 25.9356C176.023 23.9701 175.784 22.3232 175.305 20.9952C174.854 19.6671 174.203 18.671 173.353 18.007C172.503 17.3164 171.481 16.9711 170.285 16.9711C169.143 16.9711 168.134 17.3031 167.257 17.9671C166.407 18.6312 165.757 19.6272 165.305 20.9553C164.853 22.2834 164.628 23.9302 164.628 25.8958C164.628 27.8613 164.853 29.5082 165.305 30.8362C165.757 32.1643 166.407 33.1737 167.257 33.8643C168.134 34.5549 169.156 34.9002 170.325 34.9002Z" fill="#DD2F41"/>
</g>
<path d="M148.215 40H148.194V40.021H148.215V40ZM148.215 11.8713V11.8503H148.194V11.8713H148.215ZM154.431 11.8713H154.452V11.8503H154.431V11.8713ZM154.431 40V40.021H154.452V40H154.431ZM142.797 17.1703H142.776V17.1913H142.797V17.1703ZM142.797 11.8713V11.8503H142.776V11.8713H142.797ZM154.032 11.8713H154.053V11.8503H154.032V11.8713ZM154.032 17.1703V17.1913H154.053V17.1703H154.032ZM148.215 40H148.236V11.8713H148.215H148.194V40H148.215ZM148.215 11.8713V11.8922H154.431V11.8713V11.8503H148.215V11.8713ZM154.431 11.8713H154.41V40H154.431H154.452V11.8713H154.431ZM154.431 40V39.979H148.215V40V40.021H154.431V40ZM142.797 17.1703H142.818V11.8713H142.797H142.776V17.1703H142.797ZM142.797 11.8713V11.8922H154.032V11.8713V11.8503H142.797V11.8713ZM154.032 11.8713H154.011V17.1703H154.032H154.053V11.8713H154.032ZM154.032 17.1703V17.1493H142.797V17.1703V17.1913H154.032V17.1703ZM164.229 38.6055L164.218 38.623L164.229 38.6055ZM159.886 33.5057L159.867 33.5146L159.868 33.5149L159.886 33.5057ZM159.886 18.3257L159.905 18.3348L159.905 18.3347L159.886 18.3257ZM164.15 13.2657L164.161 13.2832L164.161 13.2831L164.15 13.2657ZM176.461 13.2657L176.449 13.2831L176.449 13.2832L176.461 13.2657ZM180.724 18.3257L180.705 18.3347L180.705 18.3349L180.724 18.3257ZM180.724 33.5455L180.705 33.5363L180.705 33.5365L180.724 33.5455ZM176.461 38.6454L176.473 38.6628L176.473 38.6627L176.461 38.6454ZM173.353 33.9041L173.366 33.9206L173.366 33.9204L173.353 33.9041ZM175.305 30.8761L175.286 30.8691L175.286 30.8693L175.305 30.8761ZM175.305 20.9952L175.286 21.0019L175.286 21.0023L175.305 20.9952ZM173.353 18.007L173.34 18.0233L173.34 18.0235L173.353 18.007ZM167.257 17.9671L167.245 17.9504L167.244 17.9506L167.257 17.9671ZM165.305 20.9553L165.325 20.9621L165.305 20.9553ZM165.305 30.8362L165.325 30.8295L165.305 30.8362ZM167.257 33.8643L167.244 33.8805L167.244 33.8807L167.257 33.8643ZM170.365 40.4383V40.4173C168.111 40.4173 166.07 39.8075 164.241 38.5881L164.229 38.6055L164.218 38.623C166.054 39.8472 168.103 40.4592 170.365 40.4592V40.4383ZM164.229 38.6055L164.241 38.5881C162.412 37.3685 160.966 35.6715 159.905 33.4965L159.886 33.5057L159.868 33.5149C160.932 35.6959 162.381 37.3989 164.218 38.623L164.229 38.6055ZM159.886 33.5057L159.905 33.4968C158.871 31.2954 158.354 28.7619 158.354 25.8958H158.333H158.312C158.312 28.767 158.83 31.3067 159.867 33.5146L159.886 33.5057ZM158.333 25.8958H158.354C158.354 23.0031 158.871 20.4829 159.905 18.3348L159.886 18.3257L159.868 18.3166C158.83 20.4715 158.312 22.9981 158.312 25.8958H158.333ZM159.886 18.3257L159.905 18.3347C160.94 16.1597 162.358 14.4762 164.161 13.2832L164.15 13.2657L164.138 13.2483C162.328 14.4459 160.905 16.1356 159.868 18.3167L159.886 18.3257ZM164.15 13.2657L164.161 13.2831C165.964 12.0637 168.005 11.454 170.285 11.454V11.433V11.412C167.997 11.412 165.948 12.0241 164.138 13.2484L164.15 13.2657ZM170.285 11.433V11.454C172.592 11.454 174.647 12.0638 176.449 13.2831L176.461 13.2657L176.473 13.2484C174.663 12.024 172.6 11.412 170.285 11.412V11.433ZM176.461 13.2657L176.449 13.2832C178.252 14.4762 179.671 16.1597 180.705 18.3347L180.724 18.3257L180.743 18.3167C179.706 16.1356 178.282 14.4459 176.472 13.2483L176.461 13.2657ZM180.724 18.3257L180.705 18.3349C181.766 20.5096 182.297 23.043 182.297 25.9356H182.318H182.339C182.339 23.0378 181.807 20.4979 180.743 18.3165L180.724 18.3257ZM182.318 25.9356H182.297C182.297 28.8283 181.766 31.3617 180.705 33.5363L180.724 33.5455L180.743 33.5547C181.807 31.3733 182.339 28.8334 182.339 25.9356H182.318ZM180.724 33.5455L180.705 33.5365C179.671 35.7116 178.252 37.4085 176.449 38.628L176.461 38.6454L176.473 38.6627C178.282 37.4386 179.706 35.7356 180.743 33.5545L180.724 33.5455ZM176.461 38.6454L176.449 38.6279C174.673 39.8207 172.645 40.4173 170.365 40.4173V40.4383V40.4592C172.653 40.4592 174.689 39.8605 176.473 38.6628L176.461 38.6454ZM170.325 34.9002V34.9211C171.498 34.9211 172.512 34.5878 173.366 33.9206L173.353 33.9041L173.34 33.8876C172.494 34.5485 171.49 34.8792 170.325 34.8792V34.9002ZM173.353 33.9041L173.366 33.9204C174.22 33.2267 174.873 32.2136 175.325 30.8828L175.305 30.8761L175.286 30.8693C174.835 32.1947 174.186 33.2003 173.34 33.8878L173.353 33.9041ZM175.305 30.8761L175.325 30.8831C175.804 29.5255 176.044 27.8762 176.044 25.9356H176.023H176.002C176.002 27.873 175.763 29.5173 175.286 30.8691L175.305 30.8761ZM176.023 25.9356H176.044C176.044 23.9685 175.804 22.3191 175.325 20.9881L175.305 20.9952L175.286 21.0023C175.763 22.3274 176.002 23.9716 176.002 25.9356H176.023ZM175.305 20.9952L175.325 20.9884C174.873 19.6576 174.22 18.6577 173.366 17.9905L173.353 18.007L173.34 18.0235C174.186 18.6844 174.835 19.6766 175.286 21.0019L175.305 20.9952ZM173.353 18.007L173.366 17.9907C172.512 17.2968 171.485 16.9501 170.285 16.9501V16.9711V16.9921C171.476 16.9921 172.494 17.336 173.34 18.0233L173.353 18.007ZM170.285 16.9711V16.9501C169.139 16.9501 168.125 17.2835 167.245 17.9504L167.257 17.9671L167.27 17.9839C168.143 17.3227 169.148 16.9921 170.285 16.9921V16.9711ZM167.257 17.9671L167.244 17.9506C166.39 18.6178 165.738 19.6178 165.285 20.9486L165.305 20.9553L165.325 20.9621C165.775 19.6367 166.424 18.6445 167.27 17.9837L167.257 17.9671ZM165.305 20.9553L165.285 20.9486C164.833 22.2795 164.607 23.9288 164.607 25.8958H164.628H164.649C164.649 23.9317 164.874 22.2873 165.325 20.9621L165.305 20.9553ZM164.628 25.8958H164.607C164.607 27.8628 164.833 29.5121 165.285 30.843L165.305 30.8362L165.325 30.8295C164.874 29.5043 164.649 27.8599 164.649 25.8958H164.628ZM165.305 30.8362L165.285 30.843C165.738 32.1738 166.39 33.1868 167.244 33.8805L167.257 33.8643L167.271 33.848C166.424 33.1605 165.775 32.1549 165.325 30.8295L165.305 30.8362ZM167.257 33.8643L167.244 33.8807C168.125 34.5744 169.152 34.9211 170.325 34.9211V34.9002V34.8792C169.161 34.8792 168.143 34.5353 167.27 33.8478L167.257 33.8643Z" fill="#DD2F41" mask="url(#path-12-outside-1_3002_5219)"/>
<g filter="url(#filter1_i_3002_5219)">
<mask id="path-14-outside-2_3002_5219" maskUnits="userSpaceOnUse" x="142.039" y="10" width="41" height="32" fill="black">
<rect fill="white" x="142.039" y="10" width="41" height="32"/>
<path d="M148.254 40V11.8713H154.47V40H148.254ZM142.836 17.1703V11.8713H154.071V17.1703H142.836ZM170.404 40.4383C168.146 40.4383 166.101 39.8273 164.268 38.6055C162.436 37.3837 160.988 35.6837 159.926 33.5057C158.89 31.3011 158.372 28.7644 158.372 25.8958C158.372 23.0006 158.89 20.4772 159.926 18.3257C160.961 16.1477 162.382 14.461 164.189 13.2657C165.995 12.0439 168.04 11.433 170.324 11.433C172.635 11.433 174.694 12.0439 176.5 13.2657C178.306 14.461 179.727 16.1477 180.763 18.3257C181.826 20.5038 182.357 23.0404 182.357 25.9356C182.357 28.8308 181.826 31.3675 180.763 33.5455C179.727 35.7236 178.306 37.4235 176.5 38.6454C174.72 39.8406 172.688 40.4383 170.404 40.4383ZM170.364 34.9002C171.533 34.9002 172.542 34.5681 173.392 33.9041C174.242 33.2135 174.893 32.2042 175.345 30.8761C175.823 29.5214 176.062 27.8746 176.062 25.9356C176.062 23.9701 175.823 22.3232 175.345 20.9952C174.893 19.6671 174.242 18.671 173.392 18.007C172.542 17.3164 171.52 16.9711 170.324 16.9711C169.182 16.9711 168.173 17.3031 167.296 17.9671C166.446 18.6312 165.796 19.6272 165.344 20.9553C164.893 22.2834 164.667 23.9302 164.667 25.8958C164.667 27.8613 164.893 29.5082 165.344 30.8362C165.796 32.1643 166.446 33.1737 167.296 33.8643C168.173 34.5549 169.196 34.9002 170.364 34.9002Z"/>
</mask>
<path d="M148.254 40H147.625V40.6291H148.254V40ZM148.254 11.8713V11.2422H147.625V11.8713H148.254ZM154.47 11.8713H155.099V11.2422H154.47V11.8713ZM154.47 40V40.6291H155.099V40H154.47ZM142.836 17.1703H142.207V17.7994H142.836V17.1703ZM142.836 11.8713V11.2422H142.207V11.8713H142.836ZM154.071 11.8713H154.701V11.2422H154.071V11.8713ZM154.071 17.1703V17.7994H154.701V17.1703H154.071ZM148.254 40H148.884V11.8713H148.254H147.625V40H148.254ZM148.254 11.8713V12.5003H154.47V11.8713V11.2422H148.254V11.8713ZM154.47 11.8713H153.841V40H154.47H155.099V11.8713H154.47ZM154.47 40V39.3709H148.254V40V40.6291H154.47V40ZM142.836 17.1703H143.465V11.8713H142.836H142.207V17.1703H142.836ZM142.836 11.8713V12.5003H154.071V11.8713V11.2422H142.836V11.8713ZM154.071 11.8713H153.442V17.1703H154.071H154.701V11.8713H154.071ZM154.071 17.1703V16.5412H142.836V17.1703V17.7994H154.071V17.1703ZM164.268 38.6055L163.919 39.129L164.268 38.6055ZM159.926 33.5057L159.356 33.7733L159.36 33.7815L159.926 33.5057ZM159.926 18.3257L160.492 18.5986L160.494 18.5959L159.926 18.3257ZM164.189 13.2657L164.536 13.7904L164.541 13.7868L164.189 13.2657ZM176.5 13.2657L176.147 13.7868L176.153 13.7904L176.5 13.2657ZM180.763 18.3257L180.195 18.5959L180.198 18.6015L180.763 18.3257ZM180.763 33.5455L180.198 33.2697L180.195 33.2753L180.763 33.5455ZM176.5 38.6454L176.851 39.1676L176.852 39.1664L176.5 38.6454ZM173.392 33.9041L173.78 34.3999L173.789 34.3924L173.392 33.9041ZM175.345 30.8761L174.751 30.6667L174.749 30.6736L175.345 30.8761ZM175.345 20.9952L174.749 21.1977L174.753 21.2083L175.345 20.9952ZM173.392 18.007L172.995 18.4953L173.005 18.5027L173.392 18.007ZM167.296 17.9671L166.916 17.4656L166.909 17.4714L167.296 17.9671ZM165.344 20.9553L165.94 21.1578L165.344 20.9553ZM165.344 30.8362L165.94 30.6337L165.344 30.8362ZM167.296 33.8643L166.9 34.3526L166.907 34.3584L167.296 33.8643ZM170.404 40.4383V39.8092C168.267 39.8092 166.344 39.2332 164.617 38.0821L164.268 38.6055L163.919 39.129C165.858 40.4215 168.025 41.0674 170.404 41.0674V40.4383ZM164.268 38.6055L164.617 38.0821C162.886 36.9282 161.51 35.318 160.491 33.2299L159.926 33.5057L159.36 33.7815C160.466 36.0495 161.985 37.8391 163.919 39.129L164.268 38.6055ZM159.926 33.5057L160.495 33.2382C159.505 31.1308 159.001 28.6882 159.001 25.8958H158.372H157.743C157.743 28.8406 158.275 31.4713 159.356 33.7732L159.926 33.5057ZM158.372 25.8958H159.001C159.001 23.0753 159.505 20.6488 160.492 18.5986L159.926 18.3257L159.359 18.0528C158.274 20.3056 157.743 22.9258 157.743 25.8958H158.372ZM159.926 18.3257L160.494 18.5959C161.486 16.5091 162.836 14.9155 164.536 13.7904L164.189 13.2657L163.841 12.7411C161.929 14.0065 160.437 15.7862 159.357 18.0555L159.926 18.3257ZM164.189 13.2657L164.541 13.7868C166.238 12.6388 168.159 12.0621 170.324 12.0621V11.433V10.8039C167.921 10.8039 165.752 11.449 163.836 12.7447L164.189 13.2657ZM170.324 11.433V12.0621C172.517 12.0621 174.452 12.6397 176.147 13.7868L176.5 13.2657L176.852 12.7447C174.936 11.4481 172.753 10.8039 170.324 10.8039V11.433ZM176.5 13.2657L176.153 13.7904C177.853 14.9155 179.202 16.5091 180.195 18.5959L180.763 18.3257L181.331 18.0555C180.252 15.7862 178.759 14.0065 176.847 12.7411L176.5 13.2657ZM180.763 18.3257L180.198 18.6015C181.211 20.6785 181.728 23.1176 181.728 25.9356H182.357H182.986C182.986 22.9632 182.44 20.329 181.328 18.0499L180.763 18.3257ZM182.357 25.9356H181.728C181.728 28.7537 181.211 31.1927 180.198 33.2697L180.763 33.5455L181.328 33.8213C182.44 31.5422 182.986 28.908 182.986 25.9356H182.357ZM180.763 33.5455L180.195 33.2753C179.202 35.3631 177.851 36.9719 176.147 38.1243L176.5 38.6454L176.852 39.1664C178.761 37.8752 180.252 36.0841 181.331 33.8157L180.763 33.5455ZM176.5 38.6454L176.149 38.1231C174.48 39.2441 172.572 39.8092 170.404 39.8092V40.4383V41.0674C172.805 41.0674 174.96 40.4372 176.851 39.1676L176.5 38.6454ZM170.364 34.9002V35.5293C171.661 35.5293 172.81 35.1577 173.78 34.3998L173.392 33.9041L173.005 33.4084C172.275 33.9786 171.405 34.2711 170.364 34.2711V34.9002ZM173.392 33.9041L173.789 34.3924C174.753 33.6088 175.461 32.4876 175.94 31.0786L175.345 30.8761L174.749 30.6736C174.325 31.9207 173.731 32.8182 172.996 33.4159L173.392 33.9041ZM175.345 30.8761L175.938 31.0855C176.446 29.6446 176.691 27.9226 176.691 25.9356H176.062H175.433C175.433 27.8266 175.199 29.3983 174.751 30.6667L175.345 30.8761ZM176.062 25.9356H176.691C176.691 23.9238 176.447 22.1996 175.936 20.7821L175.345 20.9952L174.753 21.2083C175.199 22.4469 175.433 24.0163 175.433 25.9356H176.062ZM175.345 20.9952L175.94 20.7927C175.461 19.383 174.751 18.2703 173.78 17.5112L173.392 18.007L173.005 18.5027C173.733 19.0718 174.325 19.9511 174.749 21.1977L175.345 20.9952ZM173.392 18.007L173.789 17.5187C172.816 16.7285 171.65 16.342 170.324 16.342V16.9711V17.6002C171.389 17.6002 172.268 17.9043 172.996 18.4952L173.392 18.007ZM170.324 16.9711V16.342C169.051 16.342 167.907 16.7155 166.916 17.4657L167.296 17.9671L167.676 18.4686C168.439 17.8907 169.314 17.6002 170.324 17.6002V16.9711ZM167.296 17.9671L166.909 17.4714C165.937 18.2304 165.228 19.3432 164.748 20.7528L165.344 20.9553L165.94 21.1578C166.364 19.9113 166.955 19.0319 167.684 18.4629L167.296 17.9671ZM165.344 20.9553L164.748 20.7528C164.268 22.1665 164.038 23.8868 164.038 25.8958H164.667H165.296C165.296 23.9737 165.517 22.4003 165.94 21.1578L165.344 20.9553ZM164.667 25.8958H164.038C164.038 27.9048 164.268 29.6251 164.748 31.0387L165.344 30.8362L165.94 30.6337C165.517 29.3912 165.296 27.8179 165.296 25.8958H164.667ZM165.344 30.8362L164.748 31.0387C165.228 32.4478 165.935 33.569 166.9 34.3525L167.296 33.8643L167.693 33.376C166.957 32.7784 166.364 31.8808 165.94 30.6337L165.344 30.8362ZM167.296 33.8643L166.907 34.3584C167.9 35.1408 169.061 35.5293 170.364 35.5293V34.9002V34.2711C169.33 34.2711 168.446 33.969 167.686 33.3701L167.296 33.8643Z" fill="#DD2F41" mask="url(#path-14-outside-2_3002_5219)"/>
</g>
<mask id="mask0_3002_5219" style="mask-type:alpha" maskUnits="userSpaceOnUse" x="142" y="11" width="41" height="30">
<mask id="path-16-outside-3_3002_5219" maskUnits="userSpaceOnUse" x="142" y="11.001" width="41" height="30" fill="black">
<rect fill="white" x="142" y="11.001" width="41" height="30"/>
<path d="M148.215 40.001V11.8722H154.431V40.001H148.215ZM142.797 17.1713V11.8722H154.032V17.1713H142.797ZM170.365 40.4392C168.107 40.4392 166.062 39.8283 164.229 38.6065C162.397 37.3847 160.949 35.6847 159.886 33.5067C158.851 31.302 158.333 28.7654 158.333 25.8968C158.333 23.0015 158.851 20.4782 159.886 18.3267C160.922 16.1486 162.343 14.462 164.15 13.2667C165.956 12.0449 168.001 11.434 170.285 11.434C172.596 11.434 174.655 12.0449 176.461 13.2667C178.267 14.462 179.688 16.1486 180.724 18.3267C181.786 20.5048 182.318 23.0414 182.318 25.9366C182.318 28.8318 181.786 31.3685 180.724 33.5465C179.688 35.7246 178.267 37.4245 176.461 38.6463C174.681 39.8416 172.649 40.4392 170.365 40.4392ZM170.325 34.9011C171.494 34.9011 172.503 34.5691 173.353 33.9051C174.203 33.2145 174.854 32.2051 175.305 30.8771C175.784 29.5224 176.023 27.8756 176.023 25.9366C176.023 23.971 175.784 22.3242 175.305 20.9961C174.854 19.6681 174.203 18.672 173.353 18.008C172.503 17.3174 171.481 16.9721 170.285 16.9721C169.143 16.9721 168.134 17.3041 167.257 17.9681C166.407 18.6322 165.757 19.6282 165.305 20.9563C164.853 22.2844 164.628 23.9312 164.628 25.8968C164.628 27.8623 164.853 29.5091 165.305 30.8372C165.757 32.1653 166.407 33.1746 167.257 33.8652C168.134 34.5558 169.156 34.9011 170.325 34.9011Z"/>
</mask>
<path d="M148.215 40.001V11.8722H154.431V40.001H148.215ZM142.797 17.1713V11.8722H154.032V17.1713H142.797ZM170.365 40.4392C168.107 40.4392 166.062 39.8283 164.229 38.6065C162.397 37.3847 160.949 35.6847 159.886 33.5067C158.851 31.302 158.333 28.7654 158.333 25.8968C158.333 23.0015 158.851 20.4782 159.886 18.3267C160.922 16.1486 162.343 14.462 164.15 13.2667C165.956 12.0449 168.001 11.434 170.285 11.434C172.596 11.434 174.655 12.0449 176.461 13.2667C178.267 14.462 179.688 16.1486 180.724 18.3267C181.786 20.5048 182.318 23.0414 182.318 25.9366C182.318 28.8318 181.786 31.3685 180.724 33.5465C179.688 35.7246 178.267 37.4245 176.461 38.6463C174.681 39.8416 172.649 40.4392 170.365 40.4392ZM170.325 34.9011C171.494 34.9011 172.503 34.5691 173.353 33.9051C174.203 33.2145 174.854 32.2051 175.305 30.8771C175.784 29.5224 176.023 27.8756 176.023 25.9366C176.023 23.971 175.784 22.3242 175.305 20.9961C174.854 19.6681 174.203 18.672 173.353 18.008C172.503 17.3174 171.481 16.9721 170.285 16.9721C169.143 16.9721 168.134 17.3041 167.257 17.9681C166.407 18.6322 165.757 19.6282 165.305 20.9563C164.853 22.2844 164.628 23.9312 164.628 25.8968C164.628 27.8623 164.853 29.5091 165.305 30.8372C165.757 32.1653 166.407 33.1746 167.257 33.8652C168.134 34.5558 169.156 34.9011 170.325 34.9011Z" fill="#6B80FF"/>
<path d="M148.215 40.001H148.194V40.0219H148.215V40.001ZM148.215 11.8722V11.8513H148.194V11.8722H148.215ZM154.431 11.8722H154.452V11.8513H154.431V11.8722ZM154.431 40.001V40.0219H154.452V40.001H154.431ZM142.797 17.1713H142.776V17.1922H142.797V17.1713ZM142.797 11.8722V11.8513H142.776V11.8722H142.797ZM154.032 11.8722H154.053V11.8513H154.032V11.8722ZM154.032 17.1713V17.1922H154.053V17.1713H154.032ZM148.215 40.001H148.236V11.8722H148.215H148.194V40.001H148.215ZM148.215 11.8722V11.8932H154.431V11.8722V11.8513H148.215V11.8722ZM154.431 11.8722H154.41V40.001H154.431H154.452V11.8722H154.431ZM154.431 40.001V39.98H148.215V40.001V40.0219H154.431V40.001ZM142.797 17.1713H142.818V11.8722H142.797H142.776V17.1713H142.797ZM142.797 11.8722V11.8932H154.032V11.8722V11.8513H142.797V11.8722ZM154.032 11.8722H154.011V17.1713H154.032H154.053V11.8722H154.032ZM154.032 17.1713V17.1503H142.797V17.1713V17.1922H154.032V17.1713ZM164.229 38.6065L164.218 38.6239L164.229 38.6065ZM159.886 33.5067L159.867 33.5156L159.868 33.5159L159.886 33.5067ZM159.886 18.3267L159.905 18.3358L159.905 18.3357L159.886 18.3267ZM164.15 13.2667L164.161 13.2842L164.161 13.2841L164.15 13.2667ZM176.461 13.2667L176.449 13.2841L176.449 13.2842L176.461 13.2667ZM180.724 18.3267L180.705 18.3357L180.705 18.3359L180.724 18.3267ZM180.724 33.5465L180.705 33.5373L180.705 33.5375L180.724 33.5465ZM176.461 38.6463L176.473 38.6637L176.473 38.6637L176.461 38.6463ZM173.353 33.9051L173.366 33.9216L173.366 33.9214L173.353 33.9051ZM175.305 30.8771L175.286 30.8701L175.286 30.8703L175.305 30.8771ZM175.305 20.9961L175.286 21.0029L175.286 21.0032L175.305 20.9961ZM173.353 18.008L173.34 18.0242L173.34 18.0245L173.353 18.008ZM167.257 17.9681L167.245 17.9514L167.244 17.9516L167.257 17.9681ZM165.305 20.9563L165.325 20.9631L165.305 20.9563ZM165.305 30.8372L165.325 30.8305L165.305 30.8372ZM167.257 33.8652L167.244 33.8815L167.244 33.8817L167.257 33.8652ZM170.365 40.4392V40.4183C168.111 40.4183 166.07 39.8085 164.241 38.589L164.229 38.6065L164.218 38.6239C166.054 39.8481 168.103 40.4602 170.365 40.4602V40.4392ZM164.229 38.6065L164.241 38.589C162.412 37.3695 160.966 35.6725 159.905 33.4975L159.886 33.5067L159.868 33.5159C160.932 35.6969 162.381 37.3998 164.218 38.6239L164.229 38.6065ZM159.886 33.5067L159.905 33.4977C158.871 31.2964 158.354 28.7629 158.354 25.8968H158.333H158.312C158.312 28.768 158.83 31.3077 159.867 33.5156L159.886 33.5067ZM158.333 25.8968H158.354C158.354 23.004 158.871 20.4839 159.905 18.3358L159.886 18.3267L159.868 18.3176C158.83 20.4725 158.312 22.9991 158.312 25.8968H158.333ZM159.886 18.3267L159.905 18.3357C160.94 16.1607 162.358 14.4771 164.161 13.2842L164.15 13.2667L164.138 13.2492C162.328 14.4468 160.905 16.1366 159.868 18.3177L159.886 18.3267ZM164.15 13.2667L164.161 13.2841C165.964 12.0647 168.005 11.4549 170.285 11.4549V11.434V11.413C167.997 11.413 165.948 12.025 164.138 13.2493L164.15 13.2667ZM170.285 11.434V11.4549C172.592 11.4549 174.647 12.0647 176.449 13.2841L176.461 13.2667L176.473 13.2493C174.663 12.025 172.6 11.413 170.285 11.413V11.434ZM176.461 13.2667L176.449 13.2842C178.252 14.4771 179.671 16.1607 180.705 18.3357L180.724 18.3267L180.743 18.3177C179.706 16.1366 178.282 14.4468 176.472 13.2492L176.461 13.2667ZM180.724 18.3267L180.705 18.3359C181.766 20.5106 182.297 23.044 182.297 25.9366H182.318H182.339C182.339 23.0388 181.807 20.4989 180.743 18.3175L180.724 18.3267ZM182.318 25.9366H182.297C182.297 28.8292 181.766 31.3626 180.705 33.5373L180.724 33.5465L180.743 33.5557C181.807 31.3743 182.339 28.8344 182.339 25.9366H182.318ZM180.724 33.5465L180.705 33.5375C179.671 35.7125 178.252 37.4094 176.449 38.629L176.461 38.6463L176.473 38.6637C178.282 37.4396 179.706 35.7366 180.743 33.5555L180.724 33.5465ZM176.461 38.6463L176.449 38.6289C174.673 39.8217 172.645 40.4183 170.365 40.4183V40.4392V40.4602C172.653 40.4602 174.689 39.8615 176.473 38.6637L176.461 38.6463ZM170.325 34.9011V34.9221C171.498 34.9221 172.512 34.5888 173.366 33.9216L173.353 33.9051L173.34 33.8886C172.494 34.5495 171.49 34.8802 170.325 34.8802V34.9011ZM173.353 33.9051L173.366 33.9214C174.22 33.2277 174.873 32.2146 175.325 30.8838L175.305 30.8771L175.286 30.8703C174.835 32.1957 174.186 33.2013 173.34 33.8888L173.353 33.9051ZM175.305 30.8771L175.325 30.884C175.804 29.5265 176.044 27.8772 176.044 25.9366H176.023H176.002C176.002 27.874 175.763 29.5183 175.286 30.8701L175.305 30.8771ZM176.023 25.9366H176.044C176.044 23.9695 175.804 22.3201 175.325 20.989L175.305 20.9961L175.286 21.0032C175.763 22.3283 176.002 23.9726 176.002 25.9366H176.023ZM175.305 20.9961L175.325 20.9894C174.873 19.6586 174.22 18.6586 173.366 17.9914L173.353 18.008L173.34 18.0245C174.186 18.6854 174.835 19.6775 175.286 21.0029L175.305 20.9961ZM173.353 18.008L173.366 17.9917C172.512 17.2978 171.485 16.9511 170.285 16.9511V16.9721V16.993C171.476 16.993 172.494 17.337 173.34 18.0242L173.353 18.008ZM170.285 16.9721V16.9511C169.139 16.9511 168.125 17.2845 167.245 17.9514L167.257 17.9681L167.27 17.9848C168.143 17.3237 169.148 16.993 170.285 16.993V16.9721ZM167.257 17.9681L167.244 17.9516C166.39 18.6188 165.738 19.6188 165.285 20.9495L165.305 20.9563L165.325 20.9631C165.775 19.6377 166.424 18.6455 167.27 17.9846L167.257 17.9681ZM165.305 20.9563L165.285 20.9495C164.833 22.2805 164.607 23.9298 164.607 25.8968H164.628H164.649C164.649 23.9326 164.874 22.2883 165.325 20.9631L165.305 20.9563ZM164.628 25.8968H164.607C164.607 27.8638 164.833 29.513 165.285 30.844L165.305 30.8372L165.325 30.8305C164.874 29.5052 164.649 27.8609 164.649 25.8968H164.628ZM165.305 30.8372L165.285 30.844C165.738 32.1748 166.39 33.1878 167.244 33.8815L167.257 33.8652L167.271 33.849C166.424 33.1615 165.775 32.1558 165.325 30.8305L165.305 30.8372ZM167.257 33.8652L167.244 33.8817C168.125 34.5754 169.152 34.9221 170.325 34.9221V34.9011V34.8802C169.161 34.8802 168.143 34.5363 167.27 33.8488L167.257 33.8652Z" fill="#DD2F41" mask="url(#path-16-outside-3_3002_5219)"/>
</mask>
<g mask="url(#mask0_3002_5219)">
<g style="mix-blend-mode:overlay" opacity="0.7" filter="url(#filter2_df_3002_5219)">
<rect x="142.01" y="18.1501" width="40.3892" height="0.230667" fill="white" fill-opacity="0.05" stroke="#DD2F41" stroke-width="0.0209697"/>
<rect x="142.01" y="27.9021" width="40.3892" height="0.230667" fill="white" fill-opacity="0.05" stroke="#DD2F41" stroke-width="0.0209697"/>
<rect x="142.01" y="11.6501" width="40.3892" height="0.230667" fill="white" fill-opacity="0.05" stroke="#DD2F41" stroke-width="0.0209697"/>
<rect x="142.01" y="21.4001" width="40.3892" height="0.230667" fill="white" fill-opacity="0.05" stroke="#DD2F41" stroke-width="0.0209697"/>
<rect x="142.01" y="31.1511" width="40.3892" height="0.230667" fill="white" fill-opacity="0.05" stroke="#DD2F41" stroke-width="0.0209697"/>
<rect x="142.01" y="14.9001" width="40.3892" height="0.230667" fill="white" fill-opacity="0.05" stroke="#DD2F41" stroke-width="0.0209697"/>
<rect x="142.01" y="24.6511" width="40.3892" height="0.230667" fill="white" fill-opacity="0.05" stroke="#DD2F41" stroke-width="0.0209697"/>
<rect x="142.01" y="34.4021" width="40.3892" height="0.230667" fill="white" fill-opacity="0.05" stroke="#DD2F41" stroke-width="0.0209697"/>
<rect x="142.01" y="38.3035" width="40.3892" height="0.230667" fill="white" fill-opacity="0.05" stroke="#DD2F41" stroke-width="0.0209697"/>
<rect x="142.01" y="18.8005" width="40.3892" height="0.230667" fill="white" fill-opacity="0.05" stroke="#DD2F41" stroke-width="0.0209697"/>
<rect x="142.01" y="28.5515" width="40.3892" height="0.230667" fill="white" fill-opacity="0.05" stroke="#DD2F41" stroke-width="0.0209697"/>
<rect x="142.01" y="12.2995" width="40.3892" height="0.230667" fill="white" fill-opacity="0.05" stroke="#DD2F41" stroke-width="0.0209697"/>
<rect x="142.01" y="22.0515" width="40.3892" height="0.230667" fill="white" fill-opacity="0.05" stroke="#DD2F41" stroke-width="0.0209697"/>
<rect x="142.01" y="31.8025" width="40.3892" height="0.230667" fill="white" fill-opacity="0.05" stroke="#DD2F41" stroke-width="0.0209697"/>
<rect x="142.01" y="15.5505" width="40.3892" height="0.230667" fill="white" fill-opacity="0.05" stroke="#DD2F41" stroke-width="0.0209697"/>
<rect x="142.01" y="25.3005" width="40.3892" height="0.230667" fill="white" fill-opacity="0.05" stroke="#DD2F41" stroke-width="0.0209697"/>
<rect x="142.01" y="35.0525" width="40.3892" height="0.230667" fill="white" fill-opacity="0.05" stroke="#DD2F41" stroke-width="0.0209697"/>
<rect x="142.01" y="38.9529" width="40.3892" height="0.230667" fill="white" fill-opacity="0.05" stroke="#DD2F41" stroke-width="0.0209697"/>
<rect x="142.01" y="19.4509" width="40.3892" height="0.230667" fill="white" fill-opacity="0.05" stroke="#DD2F41" stroke-width="0.0209697"/>
<rect x="142.01" y="29.2019" width="40.3892" height="0.230667" fill="white" fill-opacity="0.05" stroke="#DD2F41" stroke-width="0.0209697"/>
<rect x="142.01" y="12.9509" width="40.3892" height="0.230667" fill="white" fill-opacity="0.05" stroke="#DD2F41" stroke-width="0.0209697"/>
<rect x="142.01" y="22.7009" width="40.3892" height="0.230667" fill="white" fill-opacity="0.05" stroke="#DD2F41" stroke-width="0.0209697"/>
<rect x="142.01" y="32.4519" width="40.3892" height="0.230667" fill="white" fill-opacity="0.05" stroke="#DD2F41" stroke-width="0.0209697"/>
<rect x="142.01" y="16.1999" width="40.3892" height="0.230667" fill="white" fill-opacity="0.05" stroke="#DD2F41" stroke-width="0.0209697"/>
<rect x="142.01" y="25.9519" width="40.3892" height="0.230667" fill="white" fill-opacity="0.05" stroke="#DD2F41" stroke-width="0.0209697"/>
<rect x="142.01" y="35.7019" width="40.3892" height="0.230667" fill="white" fill-opacity="0.05" stroke="#DD2F41" stroke-width="0.0209697"/>
<rect x="142.01" y="39.6023" width="40.3892" height="0.230667" fill="white" fill-opacity="0.05" stroke="#DD2F41" stroke-width="0.0209697"/>
<rect x="142.01" y="20.1013" width="40.3892" height="0.230667" fill="white" fill-opacity="0.05" stroke="#DD2F41" stroke-width="0.0209697"/>
<rect x="142.01" y="29.8523" width="40.3892" height="0.230667" fill="white" fill-opacity="0.05" stroke="#DD2F41" stroke-width="0.0209697"/>
<rect x="142.01" y="13.6003" width="40.3892" height="0.230667" fill="white" fill-opacity="0.05" stroke="#DD2F41" stroke-width="0.0209697"/>
<rect x="142.01" y="23.3503" width="40.3892" height="0.230667" fill="white" fill-opacity="0.05" stroke="#DD2F41" stroke-width="0.0209697"/>
<rect x="142.01" y="33.1023" width="40.3892" height="0.230667" fill="white" fill-opacity="0.05" stroke="#DD2F41" stroke-width="0.0209697"/>
<rect x="142.01" y="16.8503" width="40.3892" height="0.230667" fill="white" fill-opacity="0.05" stroke="#DD2F41" stroke-width="0.0209697"/>
<rect x="142.01" y="26.6013" width="40.3892" height="0.230667" fill="white" fill-opacity="0.05" stroke="#DD2F41" stroke-width="0.0209697"/>
<rect x="142.01" y="36.3523" width="40.3892" height="0.230667" fill="white" fill-opacity="0.05" stroke="#DD2F41" stroke-width="0.0209697"/>
<rect x="142.01" y="40.2517" width="40.3892" height="0.230667" fill="white" fill-opacity="0.05" stroke="#DD2F41" stroke-width="0.0209697"/>
<rect x="142.01" y="20.7507" width="40.3892" height="0.230667" fill="white" fill-opacity="0.05" stroke="#DD2F41" stroke-width="0.0209697"/>
<rect x="142.01" y="30.5017" width="40.3892" height="0.230667" fill="white" fill-opacity="0.05" stroke="#DD2F41" stroke-width="0.0209697"/>
<rect x="142.01" y="14.2507" width="40.3892" height="0.230667" fill="white" fill-opacity="0.05" stroke="#DD2F41" stroke-width="0.0209697"/>
<rect x="142.01" y="24.0017" width="40.3892" height="0.230667" fill="white" fill-opacity="0.05" stroke="#DD2F41" stroke-width="0.0209697"/>
<rect x="142.01" y="33.7517" width="40.3892" height="0.230667" fill="white" fill-opacity="0.05" stroke="#DD2F41" stroke-width="0.0209697"/>
<rect x="142.01" y="37.6521" width="40.3892" height="0.230667" fill="white" fill-opacity="0.05" stroke="#DD2F41" stroke-width="0.0209697"/>
<rect x="142.01" y="17.5007" width="40.3892" height="0.230667" fill="white" fill-opacity="0.05" stroke="#DD2F41" stroke-width="0.0209697"/>
<rect x="142.01" y="27.2507" width="40.3892" height="0.230667" fill="white" fill-opacity="0.05" stroke="#DD2F41" stroke-width="0.0209697"/>
<rect x="142.01" y="37.0027" width="40.3892" height="0.230667" fill="white" fill-opacity="0.05" stroke="#DD2F41" stroke-width="0.0209697"/>
</g>
</g>
<mask id="path-63-outside-4_3002_5219" maskUnits="userSpaceOnUse" x="175.234" y="27.6074" width="38" height="14" fill="black">
<rect fill="white" x="175.234" y="27.6074" width="38" height="14"/>
<path d="M186.847 40.6074H184.434V30.3703H181.007C180.857 32.2343 180.669 33.8353 180.443 35.1732C180.233 36.496 179.955 37.5709 179.609 38.3976C179.278 39.2244 178.865 39.8332 178.369 40.2241C177.888 40.5999 177.309 40.7878 176.632 40.7878C176.392 40.7878 176.159 40.7653 175.933 40.7202C175.708 40.6901 175.512 40.6375 175.347 40.5623V38.7359C175.452 38.7659 175.565 38.796 175.685 38.8261C175.821 38.8411 175.956 38.8486 176.091 38.8486C176.392 38.8486 176.662 38.7284 176.903 38.4878C177.159 38.2473 177.384 37.8715 177.579 37.3604C177.79 36.8493 177.978 36.1879 178.143 35.3761C178.324 34.5493 178.474 33.5647 178.594 32.4222C178.729 31.2798 178.85 29.9569 178.955 28.4537H186.847V40.6074ZM195.363 28.2282C196.43 28.2282 197.347 28.4537 198.114 28.9046C198.88 29.3406 199.466 29.9719 199.872 30.7987C200.293 31.6255 200.504 32.6026 200.504 33.7301V35.0379H192.341C192.371 36.2856 192.694 37.2401 193.311 37.9016C193.942 38.563 194.821 38.8937 195.949 38.8937C196.731 38.8937 197.422 38.8261 198.023 38.6908C198.64 38.5405 199.271 38.3225 199.917 38.0369V40.0212C199.316 40.2917 198.7 40.4947 198.068 40.63C197.452 40.7653 196.716 40.8329 195.859 40.8329C194.686 40.8329 193.649 40.5999 192.747 40.1339C191.845 39.6679 191.138 38.9764 190.627 38.0594C190.131 37.1274 189.883 35.9849 189.883 34.632C189.883 33.2641 190.109 32.1066 190.56 31.1595C191.026 30.2125 191.665 29.4909 192.476 28.9948C193.303 28.4837 194.265 28.2282 195.363 28.2282ZM195.363 30.0772C194.506 30.0772 193.814 30.3553 193.288 30.9115C192.777 31.4677 192.476 32.2569 192.386 33.2791H198.114C198.114 32.6477 198.016 32.0915 197.82 31.6105C197.625 31.1294 197.324 30.7536 196.918 30.4831C196.513 30.2125 195.994 30.0772 195.363 30.0772ZM212.37 30.3703H208.402V40.6074H206.034V30.3703H202.088V28.4537H212.37V30.3703Z"/>
</mask>
<g filter="url(#filter3_iii_3002_5219)">
<path d="M186.847 40.6074H184.434V30.3703H181.007C180.857 32.2343 180.669 33.8353 180.443 35.1732C180.233 36.496 179.955 37.5709 179.609 38.3976C179.278 39.2244 178.865 39.8332 178.369 40.2241C177.888 40.5999 177.309 40.7878 176.632 40.7878C176.392 40.7878 176.159 40.7653 175.933 40.7202C175.708 40.6901 175.512 40.6375 175.347 40.5623V38.7359C175.452 38.7659 175.565 38.796 175.685 38.8261C175.821 38.8411 175.956 38.8486 176.091 38.8486C176.392 38.8486 176.662 38.7284 176.903 38.4878C177.159 38.2473 177.384 37.8715 177.579 37.3604C177.79 36.8493 177.978 36.1879 178.143 35.3761C178.324 34.5493 178.474 33.5647 178.594 32.4222C178.729 31.2798 178.85 29.9569 178.955 28.4537H186.847V40.6074ZM195.363 28.2282C196.43 28.2282 197.347 28.4537 198.114 28.9046C198.88 29.3406 199.466 29.9719 199.872 30.7987C200.293 31.6255 200.504 32.6026 200.504 33.7301V35.0379H192.341C192.371 36.2856 192.694 37.2401 193.311 37.9016C193.942 38.563 194.821 38.8937 195.949 38.8937C196.731 38.8937 197.422 38.8261 198.023 38.6908C198.64 38.5405 199.271 38.3225 199.917 38.0369V40.0212C199.316 40.2917 198.7 40.4947 198.068 40.63C197.452 40.7653 196.716 40.8329 195.859 40.8329C194.686 40.8329 193.649 40.5999 192.747 40.1339C191.845 39.6679 191.138 38.9764 190.627 38.0594C190.131 37.1274 189.883 35.9849 189.883 34.632C189.883 33.2641 190.109 32.1066 190.56 31.1595C191.026 30.2125 191.665 29.4909 192.476 28.9948C193.303 28.4837 194.265 28.2282 195.363 28.2282ZM195.363 30.0772C194.506 30.0772 193.814 30.3553 193.288 30.9115C192.777 31.4677 192.476 32.2569 192.386 33.2791H198.114C198.114 32.6477 198.016 32.0915 197.82 31.6105C197.625 31.1294 197.324 30.7536 196.918 30.4831C196.513 30.2125 195.994 30.0772 195.363 30.0772ZM212.37 30.3703H208.402V40.6074H206.034V30.3703H202.088V28.4537H212.37V30.3703Z" fill="#6B80FF"/>
</g>
<path d="M186.847 40.6074V40.6193H186.859V40.6074H186.847ZM184.434 40.6074H184.422V40.6193H184.434V40.6074ZM184.434 30.3703H184.446V30.3584H184.434V30.3703ZM181.007 30.3703V30.3584H180.996L180.995 30.3694L181.007 30.3703ZM180.443 35.1732L180.431 35.1712L180.431 35.1713L180.443 35.1732ZM179.609 38.3976L179.598 38.3931L179.598 38.3932L179.609 38.3976ZM178.369 40.2241L178.376 40.2334L178.376 40.2334L178.369 40.2241ZM175.933 40.7202L175.936 40.7085L175.935 40.7084L175.933 40.7202ZM175.347 40.5623H175.318L175.342 40.5731L175.347 40.5623ZM175.347 38.7359L175.35 38.7245L175.335 38.7201V38.7359H175.347ZM175.685 38.8261L175.682 38.8377L175.684 38.8379L175.685 38.8261ZM176.903 38.4878L176.895 38.4792L176.895 38.4795L176.903 38.4878ZM177.579 37.3604L177.568 37.3559L177.568 37.3562L177.579 37.3604ZM178.143 35.3761L178.132 35.3736L178.132 35.3738L178.143 35.3761ZM178.594 32.4222L178.582 32.4208L178.582 32.421L178.594 32.4222ZM178.955 28.4537V28.4418H178.944L178.943 28.4528L178.955 28.4537ZM186.847 28.4537H186.859V28.4418H186.847V28.4537ZM186.847 40.6074V40.5956H184.434V40.6074V40.6193H186.847V40.6074ZM184.434 40.6074H184.446V30.3703H184.434H184.422V40.6074H184.434ZM184.434 30.3703V30.3584H181.007V30.3703V30.3822H184.434V30.3703ZM181.007 30.3703L180.995 30.3694C180.845 32.2332 180.657 33.8338 180.431 35.1712L180.443 35.1732L180.455 35.1752C180.68 33.8368 180.868 32.2355 181.019 30.3713L181.007 30.3703ZM180.443 35.1732L180.431 35.1713C180.221 36.4937 179.943 37.5675 179.598 38.3931L179.609 38.3976L179.62 38.4022C179.966 37.5743 180.244 36.4984 180.455 35.175L180.443 35.1732ZM179.609 38.3976L179.598 38.3932C179.268 39.2188 178.855 39.8256 178.361 40.2148L178.369 40.2241L178.376 40.2334C178.874 39.8409 179.289 39.23 179.62 38.4021L179.609 38.3976ZM178.369 40.2241L178.361 40.2147C177.883 40.5887 177.307 40.7759 176.632 40.7759V40.7878V40.7997C177.311 40.7997 177.893 40.6111 178.376 40.2334L178.369 40.2241ZM176.632 40.7878V40.7759C176.393 40.7759 176.16 40.7535 175.936 40.7085L175.933 40.7202L175.931 40.7318C176.157 40.7771 176.391 40.7997 176.632 40.7997V40.7878ZM175.933 40.7202L175.935 40.7084C175.71 40.6785 175.516 40.6261 175.352 40.5515L175.347 40.5623L175.342 40.5731C175.509 40.6489 175.705 40.7017 175.932 40.7319L175.933 40.7202ZM175.347 40.5623H175.359V38.7359H175.347H175.335V40.5623H175.347ZM175.347 38.7359L175.344 38.7473C175.449 38.7774 175.562 38.8075 175.682 38.8376L175.685 38.8261L175.688 38.8146C175.568 38.7845 175.455 38.7545 175.35 38.7245L175.347 38.7359ZM175.685 38.8261L175.684 38.8379C175.82 38.8529 175.955 38.8605 176.091 38.8605V38.8486V38.8368C175.956 38.8368 175.822 38.8293 175.687 38.8143L175.685 38.8261ZM176.091 38.8486V38.8605C176.395 38.8605 176.669 38.7387 176.911 38.4962L176.903 38.4878L176.895 38.4795C176.656 38.7181 176.388 38.8368 176.091 38.8368V38.8486ZM176.903 38.4878L176.911 38.4965C177.168 38.2542 177.395 37.8766 177.591 37.3646L177.579 37.3604L177.568 37.3562C177.373 37.8664 177.149 38.2404 176.895 38.4792L176.903 38.4878ZM177.579 37.3604L177.59 37.3649C177.801 36.8529 177.989 36.1907 178.155 35.3785L178.143 35.3761L178.132 35.3738C177.966 36.1851 177.779 36.8457 177.568 37.3559L177.579 37.3604ZM178.143 35.3761L178.155 35.3787C178.335 34.5513 178.486 33.5662 178.606 32.4235L178.594 32.4222L178.582 32.421C178.462 33.5632 178.312 34.5473 178.132 35.3736L178.143 35.3761ZM178.594 32.4222L178.606 32.4236C178.741 31.2809 178.862 29.9579 178.967 28.4545L178.955 28.4537L178.943 28.4528C178.838 29.956 178.718 31.2786 178.582 32.4208L178.594 32.4222ZM178.955 28.4537V28.4655H186.847V28.4537V28.4418H178.955V28.4537ZM186.847 28.4537H186.835V40.6074H186.847H186.859V28.4537H186.847ZM198.114 28.9046L198.108 28.9149L198.108 28.915L198.114 28.9046ZM199.872 30.7987L199.862 30.804L199.862 30.8041L199.872 30.7987ZM200.504 35.0379V35.0498H200.516V35.0379H200.504ZM192.341 35.0379V35.026H192.329L192.329 35.0382L192.341 35.0379ZM193.311 37.9016L193.302 37.9097L193.302 37.9098L193.311 37.9016ZM198.023 38.6908L198.026 38.7024L198.026 38.7023L198.023 38.6908ZM199.917 38.0369H199.929V38.0187L199.913 38.026L199.917 38.0369ZM199.917 40.0212L199.929 40.0475V40.0212H199.917ZM198.068 40.63L198.066 40.6184L198.066 40.6184L198.068 40.63ZM192.747 40.1339L192.752 40.1234L192.747 40.1339ZM190.627 38.0594L190.617 38.065L190.617 38.0652L190.627 38.0594ZM190.56 31.1595L190.549 31.1543L190.549 31.1544L190.56 31.1595ZM192.476 28.9948L192.483 29.005L192.483 29.0049L192.476 28.9948ZM193.288 30.9115L193.28 30.9033L193.279 30.9034L193.288 30.9115ZM192.386 33.2791L192.374 33.278L192.373 33.291H192.386V33.2791ZM198.114 33.2791V33.291H198.125V33.2791H198.114ZM197.82 31.6105L197.809 31.615L197.82 31.6105ZM196.918 30.4831L196.925 30.4732L196.918 30.4831ZM195.363 28.2282V28.24C196.428 28.24 197.343 28.4652 198.108 28.9149L198.114 28.9046L198.12 28.8944C197.351 28.4422 196.432 28.2163 195.363 28.2163V28.2282ZM198.114 28.9046L198.108 28.915C198.872 29.3497 199.457 29.9792 199.862 30.804L199.872 30.7987L199.883 30.7935C199.476 29.9647 198.888 29.3315 198.119 28.8943L198.114 28.9046ZM199.872 30.7987L199.862 30.8041C200.282 31.6289 200.492 32.6041 200.492 33.7301H200.504H200.516C200.516 32.6012 200.305 31.6221 199.883 30.7933L199.872 30.7987ZM200.504 33.7301H200.492V35.0379H200.504H200.516V33.7301H200.504ZM200.504 35.0379V35.026H192.341V35.0379V35.0498H200.504V35.0379ZM192.341 35.0379L192.329 35.0382C192.359 36.2877 192.683 37.2454 193.302 37.9097L193.311 37.9016L193.319 37.8935C192.706 37.2349 192.383 36.2835 192.353 35.0376L192.341 35.0379ZM193.311 37.9016L193.302 37.9098C193.936 38.5741 194.819 38.9056 195.949 38.9056V38.8937V38.8819C194.824 38.8819 193.948 38.5519 193.319 37.8934L193.311 37.9016ZM195.949 38.8937V38.9056C196.731 38.9056 197.424 38.8379 198.026 38.7024L198.023 38.6908L198.021 38.6792C197.421 38.8143 196.73 38.8819 195.949 38.8819V38.8937ZM198.023 38.6908L198.026 38.7023C198.643 38.5518 199.275 38.3336 199.922 38.0477L199.917 38.0369L199.913 38.026C199.267 38.3114 198.636 38.5291 198.021 38.6793L198.023 38.6908ZM199.917 38.0369H199.906V40.0212H199.917H199.929V38.0369H199.917ZM199.917 40.0212L199.913 40.0103C199.312 40.2806 198.697 40.4833 198.066 40.6184L198.068 40.63L198.071 40.6416C198.703 40.5061 199.32 40.3029 199.922 40.032L199.917 40.0212ZM198.068 40.63L198.066 40.6184C197.451 40.7534 196.715 40.821 195.859 40.821V40.8329V40.8448C196.716 40.8448 197.454 40.7771 198.071 40.6416L198.068 40.63ZM195.859 40.8329V40.821C194.688 40.821 193.652 40.5884 192.752 40.1234L192.747 40.1339L192.742 40.1444C193.645 40.6114 194.685 40.8448 195.859 40.8448V40.8329ZM192.747 40.1339L192.752 40.1234C191.853 39.6585 191.148 38.9687 190.638 38.0536L190.627 38.0594L190.617 38.0652C191.129 38.9841 191.837 39.6773 192.742 40.1444L192.747 40.1339ZM190.627 38.0594L190.638 38.0538C190.143 37.124 189.895 35.9835 189.895 34.632H189.883H189.871C189.871 35.9863 190.12 37.1308 190.617 38.065L190.627 38.0594ZM189.883 34.632H189.895C189.895 33.2653 190.12 32.1097 190.57 31.1646L190.56 31.1595L190.549 31.1544C190.097 32.1035 189.871 33.2628 189.871 34.632H189.883ZM190.56 31.1595L190.57 31.1648C191.036 30.2195 191.673 29.4997 192.483 29.005L192.476 28.9948L192.47 28.9847C191.656 29.4821 191.016 30.2054 190.549 31.1543L190.56 31.1595ZM192.476 28.9948L192.483 29.0049C193.307 28.4951 194.267 28.24 195.363 28.24V28.2282V28.2163C194.263 28.2163 193.299 28.4723 192.47 28.9847L192.476 28.9948ZM195.363 30.0772V30.0653C194.503 30.0653 193.808 30.3445 193.28 30.9033L193.288 30.9115L193.297 30.9196C193.82 30.3661 194.509 30.089 195.363 30.089V30.0772ZM193.288 30.9115L193.279 30.9034C192.766 31.4622 192.465 32.2542 192.374 33.278L192.386 33.2791L192.398 33.2801C192.488 32.2596 192.788 31.4732 193.297 30.9195L193.288 30.9115ZM192.386 33.2791V33.291H198.114V33.2791V33.2672H192.386V33.2791ZM198.114 33.2791H198.125C198.125 32.6465 198.028 32.0887 197.831 31.606L197.82 31.6105L197.809 31.615C198.004 32.0943 198.102 32.6489 198.102 33.2791H198.114ZM197.82 31.6105L197.831 31.606C197.635 31.1229 197.333 30.7452 196.925 30.4732L196.918 30.4831L196.912 30.4929C197.316 30.7621 197.615 31.136 197.809 31.615L197.82 31.6105ZM196.918 30.4831L196.925 30.4732C196.517 30.201 195.996 30.0653 195.363 30.0653V30.0772V30.089C195.992 30.089 196.508 30.224 196.912 30.4929L196.918 30.4831ZM212.37 30.3703V30.3822H212.382V30.3703H212.37ZM208.402 30.3703V30.3584H208.39V30.3703H208.402ZM208.402 40.6074V40.6193H208.414V40.6074H208.402ZM206.034 40.6074H206.022V40.6193H206.034V40.6074ZM206.034 30.3703H206.046V30.3584H206.034V30.3703ZM202.088 30.3703H202.076V30.3822H202.088V30.3703ZM202.088 28.4537V28.4418H202.076V28.4537H202.088ZM212.37 28.4537H212.382V28.4418H212.37V28.4537ZM212.37 30.3703V30.3584H208.402V30.3703V30.3822H212.37V30.3703ZM208.402 30.3703H208.39V40.6074H208.402H208.414V30.3703H208.402ZM208.402 40.6074V40.5956H206.034V40.6074V40.6193H208.402V40.6074ZM206.034 40.6074H206.046V30.3703H206.034H206.022V40.6074H206.034ZM206.034 30.3703V30.3584H202.088V30.3703V30.3822H206.034V30.3703ZM202.088 30.3703H202.1V28.4537H202.088H202.076V30.3703H202.088ZM202.088 28.4537V28.4655H212.37V28.4537V28.4418H202.088V28.4537ZM212.37 28.4537H212.358V30.3703H212.37H212.382V28.4537H212.37Z" fill="#6B80FF" mask="url(#path-63-outside-4_3002_5219)"/>
<g filter="url(#filter4_i_3002_5219)">
<mask id="path-65-outside-5_3002_5219" maskUnits="userSpaceOnUse" x="174.234" y="27.6074" width="39" height="14" fill="black">
<rect fill="white" x="174.234" y="27.6074" width="39" height="14"/>
<path d="M186.847 40.6074H184.434V30.3703H181.007C180.857 32.2343 180.669 33.8353 180.443 35.1732C180.233 36.496 179.955 37.5709 179.609 38.3976C179.278 39.2244 178.865 39.8332 178.369 40.2241C177.888 40.5999 177.309 40.7878 176.632 40.7878C176.392 40.7878 176.159 40.7653 175.933 40.7202C175.708 40.6901 175.512 40.6375 175.347 40.5623V38.7359C175.452 38.7659 175.565 38.796 175.685 38.8261C175.821 38.8411 175.956 38.8486 176.091 38.8486C176.392 38.8486 176.662 38.7284 176.903 38.4878C177.159 38.2473 177.384 37.8715 177.579 37.3604C177.79 36.8493 177.978 36.1879 178.143 35.3761C178.324 34.5493 178.474 33.5647 178.594 32.4222C178.729 31.2798 178.85 29.9569 178.955 28.4537H186.847V40.6074ZM195.363 28.2282C196.43 28.2282 197.347 28.4537 198.114 28.9046C198.88 29.3406 199.466 29.9719 199.872 30.7987C200.293 31.6255 200.504 32.6026 200.504 33.7301V35.0379H192.341C192.371 36.2856 192.694 37.2401 193.311 37.9016C193.942 38.563 194.821 38.8937 195.949 38.8937C196.731 38.8937 197.422 38.8261 198.023 38.6908C198.64 38.5405 199.271 38.3225 199.917 38.0369V40.0212C199.316 40.2917 198.7 40.4947 198.068 40.63C197.452 40.7653 196.716 40.8329 195.859 40.8329C194.686 40.8329 193.649 40.5999 192.747 40.1339C191.845 39.6679 191.138 38.9764 190.627 38.0594C190.131 37.1274 189.883 35.9849 189.883 34.632C189.883 33.2641 190.109 32.1066 190.56 31.1595C191.026 30.2125 191.665 29.4909 192.476 28.9948C193.303 28.4837 194.265 28.2282 195.363 28.2282ZM195.363 30.0772C194.506 30.0772 193.814 30.3553 193.288 30.9115C192.777 31.4677 192.476 32.2569 192.386 33.2791H198.114C198.114 32.6477 198.016 32.0915 197.82 31.6105C197.625 31.1294 197.324 30.7536 196.918 30.4831C196.513 30.2125 195.994 30.0772 195.363 30.0772ZM212.37 30.3703H208.402V40.6074H206.034V30.3703H202.088V28.4537H212.37V30.3703Z"/>
</mask>
<path d="M186.847 40.6074V40.9635H187.203V40.6074H186.847ZM184.434 40.6074H184.078V40.9635H184.434V40.6074ZM184.434 30.3703H184.79V30.0143H184.434V30.3703ZM181.007 30.3703V30.0143H180.678L180.652 30.3417L181.007 30.3703ZM180.443 35.1732L180.092 35.114L180.092 35.1172L180.443 35.1732ZM179.609 38.3976L179.28 38.2603L179.278 38.2654L179.609 38.3976ZM178.369 40.2241L178.588 40.5047L178.589 40.5038L178.369 40.2241ZM175.933 40.7202L176.003 40.371L175.992 40.3688L175.98 40.3673L175.933 40.7202ZM175.347 40.5623H174.991V40.7916L175.2 40.8864L175.347 40.5623ZM175.347 38.7359L175.445 38.3935L174.991 38.2639V38.7359H175.347ZM175.685 38.8261L175.599 39.1715L175.622 39.1773L175.646 39.1799L175.685 38.8261ZM176.903 38.4878L176.659 38.2285L176.651 38.2361L176.903 38.4878ZM177.579 37.3604L177.25 37.2248L177.247 37.2333L177.579 37.3604ZM178.143 35.3761L177.795 35.3002L177.794 35.3051L178.143 35.3761ZM178.594 32.4222L178.241 32.3804L178.24 32.385L178.594 32.4222ZM178.955 28.4537V28.0976H178.623L178.6 28.4288L178.955 28.4537ZM186.847 28.4537H187.203V28.0976H186.847V28.4537ZM186.847 40.6074V40.2514H184.434V40.6074V40.9635H186.847V40.6074ZM184.434 40.6074H184.79V30.3703H184.434H184.078V40.6074H184.434ZM184.434 30.3703V30.0143H181.007V30.3703V30.7263H184.434V30.3703ZM181.007 30.3703L180.652 30.3417C180.502 32.199 180.315 33.7892 180.092 35.114L180.443 35.1732L180.794 35.2324C181.022 33.8814 181.211 32.2697 181.362 30.3989L181.007 30.3703ZM180.443 35.1732L180.092 35.1172C179.884 36.4245 179.611 37.4691 179.28 38.2603L179.609 38.3976L179.937 38.535C180.298 37.6727 180.582 36.5676 180.795 35.2291L180.443 35.1732ZM179.609 38.3976L179.278 38.2654C178.962 39.0568 178.579 39.6049 178.148 39.9444L178.369 40.2241L178.589 40.5038C179.15 40.0616 179.595 39.3921 179.939 38.5299L179.609 38.3976ZM178.369 40.2241L178.149 39.9435C177.738 40.2651 177.239 40.4318 176.632 40.4318V40.7878V41.1438C177.379 41.1438 178.037 40.9347 178.588 40.5047L178.369 40.2241ZM176.632 40.7878V40.4318C176.414 40.4318 176.205 40.4113 176.003 40.371L175.933 40.7202L175.864 41.0693C176.113 41.1192 176.37 41.1438 176.632 41.1438V40.7878ZM175.933 40.7202L175.98 40.3673C175.781 40.3407 175.621 40.2958 175.494 40.2382L175.347 40.5623L175.2 40.8864C175.404 40.9792 175.635 41.0395 175.886 41.0731L175.933 40.7202ZM175.347 40.5623H175.703V38.7359H175.347H174.991V40.5623H175.347ZM175.347 38.7359L175.249 39.0782C175.359 39.1095 175.475 39.1406 175.599 39.1715L175.685 38.8261L175.772 38.4807C175.655 38.4514 175.546 38.4224 175.445 38.3935L175.347 38.7359ZM175.685 38.8261L175.646 39.1799C175.794 39.1964 175.943 39.2047 176.091 39.2047V38.8486V38.4926C175.969 38.4926 175.847 38.4858 175.725 38.4722L175.685 38.8261ZM176.091 38.8486V39.2047C176.499 39.2047 176.857 39.0373 177.155 38.7396L176.903 38.4878L176.651 38.2361C176.468 38.4194 176.285 38.4926 176.091 38.4926V38.8486ZM176.903 38.4878L177.147 38.7471C177.457 38.4549 177.707 38.0236 177.912 37.4876L177.579 37.3604L177.247 37.2333C177.061 37.7194 176.86 38.0397 176.659 38.2286L176.903 38.4878ZM177.579 37.3604L177.909 37.496C178.131 36.9565 178.324 36.2713 178.492 35.4472L178.143 35.3761L177.794 35.3051C177.631 36.1045 177.449 36.7421 177.25 37.2248L177.579 37.3604ZM178.143 35.3761L178.491 35.452C178.675 34.6089 178.827 33.6107 178.948 32.4595L178.594 32.4222L178.24 32.385C178.121 33.5187 177.972 34.4898 177.795 35.3002L178.143 35.3761ZM178.594 32.4222L178.948 32.4641C179.084 31.3146 179.205 29.9858 179.31 28.4785L178.955 28.4537L178.6 28.4288C178.495 29.928 178.375 31.245 178.241 32.3804L178.594 32.4222ZM178.955 28.4537V28.8097H186.847V28.4537V28.0976H178.955V28.4537ZM186.847 28.4537H186.491V40.6074H186.847H187.203V28.4537H186.847ZM198.114 28.9046L197.933 29.2116L197.938 29.2141L198.114 28.9046ZM199.872 30.7987L199.553 30.9556L199.555 30.9603L199.872 30.7987ZM200.504 35.0379V35.3939H200.86V35.0379H200.504ZM192.341 35.0379V34.6819H191.976L191.985 35.0465L192.341 35.0379ZM193.311 37.9016L193.05 38.1443L193.053 38.1474L193.311 37.9016ZM198.023 38.6908L198.102 39.0382L198.108 39.0367L198.023 38.6908ZM199.917 38.0369H200.273V37.4903L199.774 37.7112L199.917 38.0369ZM199.917 40.0212L200.064 40.3458L200.273 40.2514V40.0212H199.917ZM198.068 40.63L197.994 40.2818L197.992 40.2822L198.068 40.63ZM192.747 40.1339L192.91 39.8176L192.747 40.1339ZM190.627 38.0594L190.313 38.2267L190.316 38.2328L190.627 38.0594ZM190.56 31.1595L190.24 31.0023L190.238 31.0064L190.56 31.1595ZM192.476 28.9948L192.662 29.2986L192.664 29.2977L192.476 28.9948ZM193.288 30.9115L193.029 30.6668L193.026 30.6706L193.288 30.9115ZM192.386 33.2791L192.032 33.2478L191.997 33.6351H192.386V33.2791ZM198.114 33.2791V33.6351H198.47V33.2791H198.114ZM197.82 31.6105L197.491 31.7445V31.7445L197.82 31.6105ZM196.918 30.4831L197.116 30.1868L196.918 30.4831ZM195.363 28.2282V28.5842C196.379 28.5842 197.231 28.7986 197.933 29.2115L198.114 28.9046L198.294 28.5978C197.463 28.1087 196.481 27.8721 195.363 27.8721V28.2282ZM198.114 28.9046L197.938 29.2141C198.639 29.6131 199.177 30.19 199.553 30.9556L199.872 30.7987L200.192 30.6418C199.756 29.7539 199.121 29.068 198.29 28.5951L198.114 28.9046ZM199.872 30.7987L199.555 30.9603C199.946 31.7274 200.148 32.6468 200.148 33.7301H200.504H200.86C200.86 32.5584 200.641 31.5237 200.19 30.6372L199.872 30.7987ZM200.504 33.7301H200.148V35.0379H200.504H200.86V33.7301H200.504ZM200.504 35.0379V34.6819H192.341V35.0379V35.3939H200.504V35.0379ZM192.341 35.0379L191.985 35.0465C192.017 36.348 192.355 37.3984 193.05 38.1443L193.311 37.9016L193.571 37.6589C193.034 37.0819 192.726 36.2231 192.697 35.0293L192.341 35.0379ZM193.311 37.9016L193.053 38.1474C193.767 38.895 194.748 39.2498 195.949 39.2498V38.8937V38.5377C194.895 38.5377 194.117 38.231 193.568 37.6557L193.311 37.9016ZM195.949 38.8937V39.2498C196.75 39.2498 197.469 39.1805 198.102 39.0381L198.023 38.6908L197.945 38.3434C197.375 38.4717 196.711 38.5377 195.949 38.5377V38.8937ZM198.023 38.6908L198.108 39.0367C198.747 38.8808 199.398 38.6557 200.061 38.3625L199.917 38.0369L199.774 37.7112C199.144 37.9893 198.533 38.2001 197.939 38.3449L198.023 38.6908ZM199.917 38.0369H199.561V40.0212H199.917H200.273V38.0369H199.917ZM199.917 40.0212L199.771 39.6965C199.193 39.957 198.6 40.1519 197.994 40.2818L198.068 40.63L198.143 40.9781C198.8 40.8374 199.44 40.6265 200.064 40.3458L199.917 40.0212ZM198.068 40.63L197.992 40.2822C197.408 40.4104 196.698 40.4769 195.859 40.4769V40.8329V41.1889C196.733 41.1889 197.496 41.1201 198.145 40.9777L198.068 40.63ZM195.859 40.8329V40.4769C194.734 40.4769 193.755 40.2537 192.91 39.8176L192.747 40.1339L192.584 40.4502C193.543 40.9461 194.638 41.1889 195.859 41.1889V40.8329ZM192.747 40.1339L192.91 39.8176C192.073 39.3848 191.417 38.7441 190.938 37.8861L190.627 38.0594L190.316 38.2328C190.86 39.2087 191.617 39.9509 192.584 40.4502L192.747 40.1339ZM190.627 38.0594L190.942 37.8921C190.48 37.0241 190.239 35.9426 190.239 34.632H189.883H189.527C189.527 36.0273 189.783 37.2307 190.313 38.2267L190.627 38.0594ZM189.883 34.632H190.239C190.239 33.3016 190.459 32.1996 190.881 31.3126L190.56 31.1595L190.238 31.0064C189.759 32.0135 189.527 33.2266 189.527 34.632H189.883ZM190.56 31.1595L190.879 31.3167C191.319 30.4234 191.914 29.7557 192.662 29.2986L192.476 28.9948L192.291 28.691C191.415 29.2261 190.733 30.0016 190.24 31.0023L190.56 31.1595ZM192.476 28.9948L192.664 29.2977C193.427 28.8257 194.323 28.5842 195.363 28.5842V28.2282V27.8721C194.208 27.8721 193.179 28.1418 192.289 28.692L192.476 28.9948ZM195.363 30.0772V29.7211C194.421 29.7211 193.631 30.0307 193.029 30.6668L193.288 30.9115L193.547 31.1561C193.997 30.6799 194.591 30.4332 195.363 30.4332V30.0772ZM193.288 30.9115L193.026 30.6706C192.446 31.3021 192.126 32.1752 192.032 33.2478L192.386 33.2791L192.741 33.3104C192.827 32.3386 193.108 31.6332 193.55 31.1524L193.288 30.9115ZM192.386 33.2791V33.6351H198.114V33.2791V32.9231H192.386V33.2791ZM198.114 33.2791H198.47C198.47 32.6114 198.366 32.0082 198.15 31.4765L197.82 31.6105L197.491 31.7445C197.665 32.1749 197.758 32.684 197.758 33.2791H198.114ZM197.82 31.6105L198.15 31.4765C197.93 30.9338 197.585 30.4996 197.116 30.1868L196.918 30.4831L196.721 30.7793C197.064 31.0077 197.32 31.3251 197.491 31.7445L197.82 31.6105ZM196.918 30.4831L197.116 30.1868C196.637 29.8672 196.044 29.7211 195.363 29.7211V30.0772V30.4332C195.944 30.4332 196.389 30.5577 196.721 30.7793L196.918 30.4831ZM212.37 30.3703V30.7263H212.726V30.3703H212.37ZM208.402 30.3703V30.0143H208.046V30.3703H208.402ZM208.402 40.6074V40.9635H208.758V40.6074H208.402ZM206.034 40.6074H205.678V40.9635H206.034V40.6074ZM206.034 30.3703H206.39V30.0143H206.034V30.3703ZM202.088 30.3703H201.732V30.7263H202.088V30.3703ZM202.088 28.4537V28.0976H201.732V28.4537H202.088ZM212.37 28.4537H212.726V28.0976H212.37V28.4537ZM212.37 30.3703V30.0143H208.402V30.3703V30.7263H212.37V30.3703ZM208.402 30.3703H208.046V40.6074H208.402H208.758V30.3703H208.402ZM208.402 40.6074V40.2514H206.034V40.6074V40.9635H208.402V40.6074ZM206.034 40.6074H206.39V30.3703H206.034H205.678V40.6074H206.034ZM206.034 30.3703V30.0143H202.088V30.3703V30.7263H206.034V30.3703ZM202.088 30.3703H202.444V28.4537H202.088H201.732V30.3703H202.088ZM202.088 28.4537V28.8097H212.37V28.4537V28.0976H202.088V28.4537ZM212.37 28.4537H212.014V30.3703H212.37H212.726V28.4537H212.37Z" fill="#6B80FF" mask="url(#path-65-outside-5_3002_5219)"/>
</g>
<mask id="mask1_3002_5219" style="mask-type:alpha" maskUnits="userSpaceOnUse" x="175" y="28" width="38" height="13">
<mask id="path-67-outside-6_3002_5219" maskUnits="userSpaceOnUse" x="175.234" y="27.6074" width="38" height="14" fill="black">
<rect fill="white" x="175.234" y="27.6074" width="38" height="14"/>
<path d="M186.847 40.6074H184.434V30.3703H181.007C180.857 32.2343 180.669 33.8353 180.443 35.1732C180.233 36.496 179.955 37.5709 179.609 38.3976C179.278 39.2244 178.865 39.8332 178.369 40.2241C177.888 40.5999 177.309 40.7878 176.632 40.7878C176.392 40.7878 176.159 40.7653 175.933 40.7202C175.708 40.6901 175.512 40.6375 175.347 40.5623V38.7359C175.452 38.7659 175.565 38.796 175.685 38.8261C175.821 38.8411 175.956 38.8486 176.091 38.8486C176.392 38.8486 176.662 38.7284 176.903 38.4878C177.159 38.2473 177.384 37.8715 177.579 37.3604C177.79 36.8493 177.978 36.1879 178.143 35.3761C178.324 34.5493 178.474 33.5647 178.594 32.4222C178.729 31.2798 178.85 29.9569 178.955 28.4537H186.847V40.6074ZM195.363 28.2282C196.43 28.2282 197.347 28.4537 198.114 28.9046C198.88 29.3406 199.466 29.9719 199.872 30.7987C200.293 31.6255 200.504 32.6026 200.504 33.7301V35.0379H192.341C192.371 36.2856 192.694 37.2401 193.311 37.9016C193.942 38.563 194.821 38.8937 195.949 38.8937C196.731 38.8937 197.422 38.8261 198.023 38.6908C198.64 38.5405 199.271 38.3225 199.917 38.0369V40.0212C199.316 40.2917 198.7 40.4947 198.068 40.63C197.452 40.7653 196.716 40.8329 195.859 40.8329C194.686 40.8329 193.649 40.5999 192.747 40.1339C191.845 39.6679 191.138 38.9764 190.627 38.0594C190.131 37.1274 189.883 35.9849 189.883 34.632C189.883 33.2641 190.109 32.1066 190.56 31.1595C191.026 30.2125 191.665 29.4909 192.476 28.9948C193.303 28.4837 194.265 28.2282 195.363 28.2282ZM195.363 30.0772C194.506 30.0772 193.814 30.3553 193.288 30.9115C192.777 31.4677 192.476 32.2569 192.386 33.2791H198.114C198.114 32.6477 198.016 32.0915 197.82 31.6105C197.625 31.1294 197.324 30.7536 196.918 30.4831C196.513 30.2125 195.994 30.0772 195.363 30.0772ZM212.37 30.3703H208.402V40.6074H206.034V30.3703H202.088V28.4537H212.37V30.3703Z"/>
</mask>
<path d="M186.847 40.6074H184.434V30.3703H181.007C180.857 32.2343 180.669 33.8353 180.443 35.1732C180.233 36.496 179.955 37.5709 179.609 38.3976C179.278 39.2244 178.865 39.8332 178.369 40.2241C177.888 40.5999 177.309 40.7878 176.632 40.7878C176.392 40.7878 176.159 40.7653 175.933 40.7202C175.708 40.6901 175.512 40.6375 175.347 40.5623V38.7359C175.452 38.7659 175.565 38.796 175.685 38.8261C175.821 38.8411 175.956 38.8486 176.091 38.8486C176.392 38.8486 176.662 38.7284 176.903 38.4878C177.159 38.2473 177.384 37.8715 177.579 37.3604C177.79 36.8493 177.978 36.1879 178.143 35.3761C178.324 34.5493 178.474 33.5647 178.594 32.4222C178.729 31.2798 178.85 29.9569 178.955 28.4537H186.847V40.6074ZM195.363 28.2282C196.43 28.2282 197.347 28.4537 198.114 28.9046C198.88 29.3406 199.466 29.9719 199.872 30.7987C200.293 31.6255 200.504 32.6026 200.504 33.7301V35.0379H192.341C192.371 36.2856 192.694 37.2401 193.311 37.9016C193.942 38.563 194.821 38.8937 195.949 38.8937C196.731 38.8937 197.422 38.8261 198.023 38.6908C198.64 38.5405 199.271 38.3225 199.917 38.0369V40.0212C199.316 40.2917 198.7 40.4947 198.068 40.63C197.452 40.7653 196.716 40.8329 195.859 40.8329C194.686 40.8329 193.649 40.5999 192.747 40.1339C191.845 39.6679 191.138 38.9764 190.627 38.0594C190.131 37.1274 189.883 35.9849 189.883 34.632C189.883 33.2641 190.109 32.1066 190.56 31.1595C191.026 30.2125 191.665 29.4909 192.476 28.9948C193.303 28.4837 194.265 28.2282 195.363 28.2282ZM195.363 30.0772C194.506 30.0772 193.814 30.3553 193.288 30.9115C192.777 31.4677 192.476 32.2569 192.386 33.2791H198.114C198.114 32.6477 198.016 32.0915 197.82 31.6105C197.625 31.1294 197.324 30.7536 196.918 30.4831C196.513 30.2125 195.994 30.0772 195.363 30.0772ZM212.37 30.3703H208.402V40.6074H206.034V30.3703H202.088V28.4537H212.37V30.3703Z" fill="#FFA923"/>
<path d="M186.847 40.6074V40.6193H186.859V40.6074H186.847ZM184.434 40.6074H184.422V40.6193H184.434V40.6074ZM184.434 30.3703H184.446V30.3584H184.434V30.3703ZM181.007 30.3703V30.3584H180.996L180.995 30.3694L181.007 30.3703ZM180.443 35.1732L180.431 35.1712L180.431 35.1713L180.443 35.1732ZM179.609 38.3976L179.598 38.3931L179.598 38.3932L179.609 38.3976ZM178.369 40.2241L178.376 40.2334L178.376 40.2334L178.369 40.2241ZM175.933 40.7202L175.936 40.7085L175.935 40.7084L175.933 40.7202ZM175.347 40.5623H175.318L175.342 40.5731L175.347 40.5623ZM175.347 38.7359L175.35 38.7245L175.335 38.7201V38.7359H175.347ZM175.685 38.8261L175.682 38.8377L175.684 38.8379L175.685 38.8261ZM176.903 38.4878L176.895 38.4792L176.895 38.4795L176.903 38.4878ZM177.579 37.3604L177.568 37.3559L177.568 37.3562L177.579 37.3604ZM178.143 35.3761L178.132 35.3736L178.132 35.3738L178.143 35.3761ZM178.594 32.4222L178.582 32.4208L178.582 32.421L178.594 32.4222ZM178.955 28.4537V28.4418H178.944L178.943 28.4528L178.955 28.4537ZM186.847 28.4537H186.859V28.4418H186.847V28.4537ZM186.847 40.6074V40.5956H184.434V40.6074V40.6193H186.847V40.6074ZM184.434 40.6074H184.446V30.3703H184.434H184.422V40.6074H184.434ZM184.434 30.3703V30.3584H181.007V30.3703V30.3822H184.434V30.3703ZM181.007 30.3703L180.995 30.3694C180.845 32.2332 180.657 33.8338 180.431 35.1712L180.443 35.1732L180.455 35.1752C180.68 33.8368 180.868 32.2355 181.019 30.3713L181.007 30.3703ZM180.443 35.1732L180.431 35.1713C180.221 36.4937 179.943 37.5675 179.598 38.3931L179.609 38.3976L179.62 38.4022C179.966 37.5743 180.244 36.4984 180.455 35.175L180.443 35.1732ZM179.609 38.3976L179.598 38.3932C179.268 39.2188 178.855 39.8256 178.361 40.2148L178.369 40.2241L178.376 40.2334C178.874 39.8409 179.289 39.23 179.62 38.4021L179.609 38.3976ZM178.369 40.2241L178.361 40.2147C177.883 40.5887 177.307 40.7759 176.632 40.7759V40.7878V40.7997C177.311 40.7997 177.893 40.6111 178.376 40.2334L178.369 40.2241ZM176.632 40.7878V40.7759C176.393 40.7759 176.16 40.7535 175.936 40.7085L175.933 40.7202L175.931 40.7318C176.157 40.7771 176.391 40.7997 176.632 40.7997V40.7878ZM175.933 40.7202L175.935 40.7084C175.71 40.6785 175.516 40.6261 175.352 40.5515L175.347 40.5623L175.342 40.5731C175.509 40.6489 175.705 40.7017 175.932 40.7319L175.933 40.7202ZM175.347 40.5623H175.359V38.7359H175.347H175.335V40.5623H175.347ZM175.347 38.7359L175.344 38.7473C175.449 38.7774 175.562 38.8075 175.682 38.8376L175.685 38.8261L175.688 38.8146C175.568 38.7845 175.455 38.7545 175.35 38.7245L175.347 38.7359ZM175.685 38.8261L175.684 38.8379C175.82 38.8529 175.955 38.8605 176.091 38.8605V38.8486V38.8368C175.956 38.8368 175.822 38.8293 175.687 38.8143L175.685 38.8261ZM176.091 38.8486V38.8605C176.395 38.8605 176.669 38.7387 176.911 38.4962L176.903 38.4878L176.895 38.4795C176.656 38.7181 176.388 38.8368 176.091 38.8368V38.8486ZM176.903 38.4878L176.911 38.4965C177.168 38.2542 177.395 37.8766 177.591 37.3646L177.579 37.3604L177.568 37.3562C177.373 37.8664 177.149 38.2404 176.895 38.4792L176.903 38.4878ZM177.579 37.3604L177.59 37.3649C177.801 36.8529 177.989 36.1907 178.155 35.3785L178.143 35.3761L178.132 35.3738C177.966 36.1851 177.779 36.8457 177.568 37.3559L177.579 37.3604ZM178.143 35.3761L178.155 35.3787C178.335 34.5513 178.486 33.5662 178.606 32.4235L178.594 32.4222L178.582 32.421C178.462 33.5632 178.312 34.5473 178.132 35.3736L178.143 35.3761ZM178.594 32.4222L178.606 32.4236C178.741 31.2809 178.862 29.9579 178.967 28.4545L178.955 28.4537L178.943 28.4528C178.838 29.956 178.718 31.2786 178.582 32.4208L178.594 32.4222ZM178.955 28.4537V28.4655H186.847V28.4537V28.4418H178.955V28.4537ZM186.847 28.4537H186.835V40.6074H186.847H186.859V28.4537H186.847ZM198.114 28.9046L198.108 28.9149L198.108 28.915L198.114 28.9046ZM199.872 30.7987L199.862 30.804L199.862 30.8041L199.872 30.7987ZM200.504 35.0379V35.0498H200.516V35.0379H200.504ZM192.341 35.0379V35.026H192.329L192.329 35.0382L192.341 35.0379ZM193.311 37.9016L193.302 37.9097L193.302 37.9098L193.311 37.9016ZM198.023 38.6908L198.026 38.7024L198.026 38.7023L198.023 38.6908ZM199.917 38.0369H199.929V38.0187L199.913 38.026L199.917 38.0369ZM199.917 40.0212L199.929 40.0475V40.0212H199.917ZM198.068 40.63L198.066 40.6184L198.066 40.6184L198.068 40.63ZM192.747 40.1339L192.752 40.1234L192.747 40.1339ZM190.627 38.0594L190.617 38.065L190.617 38.0652L190.627 38.0594ZM190.56 31.1595L190.549 31.1543L190.549 31.1544L190.56 31.1595ZM192.476 28.9948L192.483 29.005L192.483 29.0049L192.476 28.9948ZM193.288 30.9115L193.28 30.9033L193.279 30.9034L193.288 30.9115ZM192.386 33.2791L192.374 33.278L192.373 33.291H192.386V33.2791ZM198.114 33.2791V33.291H198.125V33.2791H198.114ZM197.82 31.6105L197.809 31.615L197.82 31.6105ZM196.918 30.4831L196.925 30.4732L196.918 30.4831ZM195.363 28.2282V28.24C196.428 28.24 197.343 28.4652 198.108 28.9149L198.114 28.9046L198.12 28.8944C197.351 28.4422 196.432 28.2163 195.363 28.2163V28.2282ZM198.114 28.9046L198.108 28.915C198.872 29.3497 199.457 29.9792 199.862 30.804L199.872 30.7987L199.883 30.7935C199.476 29.9647 198.888 29.3315 198.119 28.8943L198.114 28.9046ZM199.872 30.7987L199.862 30.8041C200.282 31.6289 200.492 32.6041 200.492 33.7301H200.504H200.516C200.516 32.6012 200.305 31.6221 199.883 30.7933L199.872 30.7987ZM200.504 33.7301H200.492V35.0379H200.504H200.516V33.7301H200.504ZM200.504 35.0379V35.026H192.341V35.0379V35.0498H200.504V35.0379ZM192.341 35.0379L192.329 35.0382C192.359 36.2877 192.683 37.2454 193.302 37.9097L193.311 37.9016L193.319 37.8935C192.706 37.2349 192.383 36.2835 192.353 35.0376L192.341 35.0379ZM193.311 37.9016L193.302 37.9098C193.936 38.5741 194.819 38.9056 195.949 38.9056V38.8937V38.8819C194.824 38.8819 193.948 38.5519 193.319 37.8934L193.311 37.9016ZM195.949 38.8937V38.9056C196.731 38.9056 197.424 38.8379 198.026 38.7024L198.023 38.6908L198.021 38.6792C197.421 38.8143 196.73 38.8819 195.949 38.8819V38.8937ZM198.023 38.6908L198.026 38.7023C198.643 38.5518 199.275 38.3336 199.922 38.0477L199.917 38.0369L199.913 38.026C199.267 38.3114 198.636 38.5291 198.021 38.6793L198.023 38.6908ZM199.917 38.0369H199.906V40.0212H199.917H199.929V38.0369H199.917ZM199.917 40.0212L199.913 40.0103C199.312 40.2806 198.697 40.4833 198.066 40.6184L198.068 40.63L198.071 40.6416C198.703 40.5061 199.32 40.3029 199.922 40.032L199.917 40.0212ZM198.068 40.63L198.066 40.6184C197.451 40.7534 196.715 40.821 195.859 40.821V40.8329V40.8448C196.716 40.8448 197.454 40.7771 198.071 40.6416L198.068 40.63ZM195.859 40.8329V40.821C194.688 40.821 193.652 40.5884 192.752 40.1234L192.747 40.1339L192.742 40.1444C193.645 40.6114 194.685 40.8448 195.859 40.8448V40.8329ZM192.747 40.1339L192.752 40.1234C191.853 39.6585 191.148 38.9687 190.638 38.0536L190.627 38.0594L190.617 38.0652C191.129 38.9841 191.837 39.6773 192.742 40.1444L192.747 40.1339ZM190.627 38.0594L190.638 38.0538C190.143 37.124 189.895 35.9835 189.895 34.632H189.883H189.871C189.871 35.9863 190.12 37.1308 190.617 38.065L190.627 38.0594ZM189.883 34.632H189.895C189.895 33.2653 190.12 32.1097 190.57 31.1646L190.56 31.1595L190.549 31.1544C190.097 32.1035 189.871 33.2628 189.871 34.632H189.883ZM190.56 31.1595L190.57 31.1648C191.036 30.2195 191.673 29.4997 192.483 29.005L192.476 28.9948L192.47 28.9847C191.656 29.4821 191.016 30.2054 190.549 31.1543L190.56 31.1595ZM192.476 28.9948L192.483 29.0049C193.307 28.4951 194.267 28.24 195.363 28.24V28.2282V28.2163C194.263 28.2163 193.299 28.4723 192.47 28.9847L192.476 28.9948ZM195.363 30.0772V30.0653C194.503 30.0653 193.808 30.3445 193.28 30.9033L193.288 30.9115L193.297 30.9196C193.82 30.3661 194.509 30.089 195.363 30.089V30.0772ZM193.288 30.9115L193.279 30.9034C192.766 31.4622 192.465 32.2542 192.374 33.278L192.386 33.2791L192.398 33.2801C192.488 32.2596 192.788 31.4732 193.297 30.9195L193.288 30.9115ZM192.386 33.2791V33.291H198.114V33.2791V33.2672H192.386V33.2791ZM198.114 33.2791H198.125C198.125 32.6465 198.028 32.0887 197.831 31.606L197.82 31.6105L197.809 31.615C198.004 32.0943 198.102 32.6489 198.102 33.2791H198.114ZM197.82 31.6105L197.831 31.606C197.635 31.1229 197.333 30.7452 196.925 30.4732L196.918 30.4831L196.912 30.4929C197.316 30.7621 197.615 31.136 197.809 31.615L197.82 31.6105ZM196.918 30.4831L196.925 30.4732C196.517 30.201 195.996 30.0653 195.363 30.0653V30.0772V30.089C195.992 30.089 196.508 30.224 196.912 30.4929L196.918 30.4831ZM212.37 30.3703V30.3822H212.382V30.3703H212.37ZM208.402 30.3703V30.3584H208.39V30.3703H208.402ZM208.402 40.6074V40.6193H208.414V40.6074H208.402ZM206.034 40.6074H206.022V40.6193H206.034V40.6074ZM206.034 30.3703H206.046V30.3584H206.034V30.3703ZM202.088 30.3703H202.076V30.3822H202.088V30.3703ZM202.088 28.4537V28.4418H202.076V28.4537H202.088ZM212.37 28.4537H212.382V28.4418H212.37V28.4537ZM212.37 30.3703V30.3584H208.402V30.3703V30.3822H212.37V30.3703ZM208.402 30.3703H208.39V40.6074H208.402H208.414V30.3703H208.402ZM208.402 40.6074V40.5956H206.034V40.6074V40.6193H208.402V40.6074ZM206.034 40.6074H206.046V30.3703H206.034H206.022V40.6074H206.034ZM206.034 30.3703V30.3584H202.088V30.3703V30.3822H206.034V30.3703ZM202.088 30.3703H202.1V28.4537H202.088H202.076V30.3703H202.088ZM202.088 28.4537V28.4655H212.37V28.4537V28.4418H202.088V28.4537ZM212.37 28.4537H212.358V30.3703H212.37H212.382V28.4537H212.37Z" fill="#6B80FF" mask="url(#path-67-outside-6_3002_5219)"/>
</mask>
<g mask="url(#mask1_3002_5219)">
<g style="mix-blend-mode:overlay" opacity="0.7" filter="url(#filter5_df_3002_5219)">
<rect x="175.24" y="29.2344" width="37.6385" height="0.130545" fill="white" fill-opacity="0.05" stroke="#6B80FF" stroke-width="0.0118677"/>
<rect x="175.24" y="34.754" width="37.6385" height="0.130545" fill="white" fill-opacity="0.05" stroke="#6B80FF" stroke-width="0.0118677"/>
<rect x="175.24" y="31.0743" width="37.6385" height="0.130545" fill="white" fill-opacity="0.05" stroke="#6B80FF" stroke-width="0.0118677"/>
<rect x="175.24" y="36.5938" width="37.6385" height="0.130545" fill="white" fill-opacity="0.05" stroke="#6B80FF" stroke-width="0.0118677"/>
<rect x="175.24" y="32.9151" width="37.6385" height="0.130545" fill="white" fill-opacity="0.05" stroke="#6B80FF" stroke-width="0.0118677"/>
<rect x="175.24" y="38.4327" width="37.6385" height="0.130545" fill="white" fill-opacity="0.05" stroke="#6B80FF" stroke-width="0.0118677"/>
<rect x="175.24" y="40.6407" width="37.6385" height="0.130545" fill="white" fill-opacity="0.05" stroke="#6B80FF" stroke-width="0.0118677"/>
<rect x="175.24" y="29.6036" width="37.6385" height="0.130545" fill="white" fill-opacity="0.05" stroke="#6B80FF" stroke-width="0.0118677"/>
<rect x="175.24" y="35.1221" width="37.6385" height="0.130545" fill="white" fill-opacity="0.05" stroke="#6B80FF" stroke-width="0.0118677"/>
<rect x="175.24" y="31.4425" width="37.6385" height="0.130545" fill="white" fill-opacity="0.05" stroke="#6B80FF" stroke-width="0.0118677"/>
<rect x="175.24" y="36.961" width="37.6385" height="0.130545" fill="white" fill-opacity="0.05" stroke="#6B80FF" stroke-width="0.0118677"/>
<rect x="175.24" y="33.2823" width="37.6385" height="0.130545" fill="white" fill-opacity="0.05" stroke="#6B80FF" stroke-width="0.0118677"/>
<rect x="175.24" y="38.7999" width="37.6385" height="0.130545" fill="white" fill-opacity="0.05" stroke="#6B80FF" stroke-width="0.0118677"/>
<rect x="175.24" y="29.9708" width="37.6385" height="0.130545" fill="white" fill-opacity="0.05" stroke="#6B80FF" stroke-width="0.0118677"/>
<rect x="175.24" y="35.4903" width="37.6385" height="0.130545" fill="white" fill-opacity="0.05" stroke="#6B80FF" stroke-width="0.0118677"/>
<rect x="175.24" y="31.8106" width="37.6385" height="0.130545" fill="white" fill-opacity="0.05" stroke="#6B80FF" stroke-width="0.0118677"/>
<rect x="175.24" y="37.3292" width="37.6385" height="0.130545" fill="white" fill-opacity="0.05" stroke="#6B80FF" stroke-width="0.0118677"/>
<rect x="175.24" y="28.1319" width="37.6385" height="0.130545" fill="white" fill-opacity="0.05" stroke="#6B80FF" stroke-width="0.0118677"/>
<rect x="175.24" y="33.6495" width="37.6385" height="0.130545" fill="white" fill-opacity="0.05" stroke="#6B80FF" stroke-width="0.0118677"/>
<rect x="175.24" y="39.169" width="37.6385" height="0.130545" fill="white" fill-opacity="0.05" stroke="#6B80FF" stroke-width="0.0118677"/>
<rect x="175.24" y="30.3399" width="37.6385" height="0.130545" fill="white" fill-opacity="0.05" stroke="#6B80FF" stroke-width="0.0118677"/>
<rect x="175.24" y="35.8575" width="37.6385" height="0.130545" fill="white" fill-opacity="0.05" stroke="#6B80FF" stroke-width="0.0118677"/>
<rect x="175.24" y="32.1788" width="37.6385" height="0.130545" fill="white" fill-opacity="0.05" stroke="#6B80FF" stroke-width="0.0118677"/>
<rect x="175.24" y="37.6973" width="37.6385" height="0.130545" fill="white" fill-opacity="0.05" stroke="#6B80FF" stroke-width="0.0118677"/>
<rect x="175.24" y="28.5001" width="37.6385" height="0.130545" fill="white" fill-opacity="0.05" stroke="#6B80FF" stroke-width="0.0118677"/>
<rect x="175.24" y="34.0177" width="37.6385" height="0.130545" fill="white" fill-opacity="0.05" stroke="#6B80FF" stroke-width="0.0118677"/>
<rect x="175.24" y="39.5362" width="37.6385" height="0.130545" fill="white" fill-opacity="0.05" stroke="#6B80FF" stroke-width="0.0118677"/>
<rect x="175.24" y="30.7071" width="37.6385" height="0.130545" fill="white" fill-opacity="0.05" stroke="#6B80FF" stroke-width="0.0118677"/>
<rect x="175.24" y="36.2247" width="37.6385" height="0.130545" fill="white" fill-opacity="0.05" stroke="#6B80FF" stroke-width="0.0118677"/>
<rect x="175.24" y="32.546" width="37.6385" height="0.130545" fill="white" fill-opacity="0.05" stroke="#6B80FF" stroke-width="0.0118677"/>
<rect x="175.24" y="38.0655" width="37.6385" height="0.130545" fill="white" fill-opacity="0.05" stroke="#6B80FF" stroke-width="0.0118677"/>
<rect x="175.24" y="40.2725" width="37.6385" height="0.130545" fill="white" fill-opacity="0.05" stroke="#6B80FF" stroke-width="0.0118677"/>
<rect x="175.24" y="28.8673" width="37.6385" height="0.130545" fill="white" fill-opacity="0.05" stroke="#6B80FF" stroke-width="0.0118677"/>
<rect x="175.24" y="34.3858" width="37.6385" height="0.130545" fill="white" fill-opacity="0.05" stroke="#6B80FF" stroke-width="0.0118677"/>
<rect x="175.24" y="39.9044" width="37.6385" height="0.130545" fill="white" fill-opacity="0.05" stroke="#6B80FF" stroke-width="0.0118677"/>
</g>
</g>
<defs>
<filter id="filter0_iii_3002_5219" x="142.356" y="10.9927" width="40.612" height="30.0954" filterUnits="userSpaceOnUse" color-interpolation-filters="sRGB">
<feFlood flood-opacity="0" result="BackgroundImageFix"/>
<feBlend mode="normal" in="SourceGraphic" in2="BackgroundImageFix" result="shape"/>
<feColorMatrix in="SourceAlpha" type="matrix" values="0 0 0 0 0 0 0 0 0 0 0 0 0 0 0 0 0 0 127 0" result="hardAlpha"/>
<feOffset dx="0.629091" dy="0.629091"/>
<feGaussianBlur stdDeviation="0.524242"/>
<feComposite in2="hardAlpha" operator="arithmetic" k2="-1" k3="1"/>
<feColorMatrix type="matrix" values="0 0 0 0 0.395833 0 0 0 0 0 0 0 0 0 0 0 0 0 0.5 0"/>
<feBlend mode="normal" in2="shape" result="effect1_innerShadow_3002_5219"/>
<feColorMatrix in="SourceAlpha" type="matrix" values="0 0 0 0 0 0 0 0 0 0 0 0 0 0 0 0 0 0 127 0" result="hardAlpha"/>
<feOffset dx="0.104848" dy="0.104848"/>
<feGaussianBlur stdDeviation="0.209697"/>
<feComposite in2="hardAlpha" operator="arithmetic" k2="-1" k3="1"/>
<feColorMatrix type="matrix" values="0 0 0 0 0.396078 0 0 0 0 0 0 0 0 0 0 0 0 0 0.5 0"/>
<feBlend mode="normal" in2="effect1_innerShadow_3002_5219" result="effect2_innerShadow_3002_5219"/>
<feColorMatrix in="SourceAlpha" type="matrix" values="0 0 0 0 0 0 0 0 0 0 0 0 0 0 0 0 0 0 127 0" result="hardAlpha"/>
<feOffset dx="-0.419394" dy="-0.419394"/>
<feGaussianBlur stdDeviation="0.419394"/>
<feComposite in2="hardAlpha" operator="arithmetic" k2="-1" k3="1"/>
<feColorMatrix type="matrix" values="0 0 0 0 1 0 0 0 0 1 0 0 0 0 1 0 0 0 0.3 0"/>
<feBlend mode="normal" in2="effect2_innerShadow_3002_5219" result="effect3_innerShadow_3002_5219"/>
</filter>
<filter id="filter1_i_3002_5219" x="142.207" y="10.8037" width="40.8422" height="30.3266" filterUnits="userSpaceOnUse" color-interpolation-filters="sRGB">
<feFlood flood-opacity="0" result="BackgroundImageFix"/>
<feBlend mode="normal" in="SourceGraphic" in2="BackgroundImageFix" result="shape"/>
<feColorMatrix in="SourceAlpha" type="matrix" values="0 0 0 0 0 0 0 0 0 0 0 0 0 0 0 0 0 0 127 0" result="hardAlpha"/>
<feOffset dx="0.0629091" dy="0.0629091"/>
<feGaussianBlur stdDeviation="0.0524242"/>
<feComposite in2="hardAlpha" operator="arithmetic" k2="-1" k3="1"/>
<feColorMatrix type="matrix" values="0 0 0 0 1 0 0 0 0 1 0 0 0 0 1 0 0 0 0.9 0"/>
<feBlend mode="normal" in2="shape" result="effect1_innerShadow_3002_5219"/>
</filter>
<filter id="filter2_df_3002_5219" x="141.916" y="8.32576" width="40.5779" height="33.0075" filterUnits="userSpaceOnUse" color-interpolation-filters="sRGB">
<feFlood flood-opacity="0" result="BackgroundImageFix"/>
<feColorMatrix in="SourceAlpha" type="matrix" values="0 0 0 0 0 0 0 0 0 0 0 0 0 0 0 0 0 0 127 0" result="hardAlpha"/>
<feOffset dy="0.104848"/>
<feGaussianBlur stdDeviation="0.0419394"/>
<feComposite in2="hardAlpha" operator="out"/>
<feColorMatrix type="matrix" values="0 0 0 0 0 0 0 0 0 0 0 0 0 0 0 0 0 0 0.5 0"/>
<feBlend mode="normal" in2="BackgroundImageFix" result="effect1_dropShadow_3002_5219"/>
<feBlend mode="normal" in="SourceGraphic" in2="effect1_dropShadow_3002_5219" result="shape"/>
<feGaussianBlur stdDeviation="0.0314545" result="effect2_foregroundBlur_3002_5219"/>
</filter>
<filter id="filter3_iii_3002_5219" x="175.081" y="27.9794" width="37.5975" height="13.162" filterUnits="userSpaceOnUse" color-interpolation-filters="sRGB">
<feFlood flood-opacity="0" result="BackgroundImageFix"/>
<feBlend mode="normal" in="SourceGraphic" in2="BackgroundImageFix" result="shape"/>
<feColorMatrix in="SourceAlpha" type="matrix" values="0 0 0 0 0 0 0 0 0 0 0 0 0 0 0 0 0 0 127 0" result="hardAlpha"/>
<feOffset dx="0.296694" dy="0.296694"/>
<feGaussianBlur stdDeviation="0.249223"/>
<feComposite in2="hardAlpha" operator="arithmetic" k2="-1" k3="1"/>
<feColorMatrix type="matrix" values="0 0 0 0 0.0862745 0 0 0 0 0.173856 0 0 0 0 0.611765 0 0 0 0.5 0"/>
<feBlend mode="normal" in2="shape" result="effect1_innerShadow_3002_5219"/>
<feColorMatrix in="SourceAlpha" type="matrix" values="0 0 0 0 0 0 0 0 0 0 0 0 0 0 0 0 0 0 127 0" result="hardAlpha"/>
<feOffset dx="0.0593387" dy="0.0593387"/>
<feGaussianBlur stdDeviation="0.118677"/>
<feComposite in2="hardAlpha" operator="arithmetic" k2="-1" k3="1"/>
<feColorMatrix type="matrix" values="0 0 0 0 0.165098 0 0 0 0 0.0862745 0 0 0 0 0.611765 0 0 0 0.9 0"/>
<feBlend mode="normal" in2="effect1_innerShadow_3002_5219" result="effect2_innerShadow_3002_5219"/>
<feColorMatrix in="SourceAlpha" type="matrix" values="0 0 0 0 0 0 0 0 0 0 0 0 0 0 0 0 0 0 127 0" result="hardAlpha"/>
<feOffset dx="-0.237355" dy="-0.237355"/>
<feGaussianBlur stdDeviation="0.207685"/>
<feComposite in2="hardAlpha" operator="arithmetic" k2="-1" k3="1"/>
<feColorMatrix type="matrix" values="0 0 0 0 1 0 0 0 0 1 0 0 0 0 1 0 0 0 0.3 0"/>
<feBlend mode="normal" in2="effect2_innerShadow_3002_5219" result="effect3_innerShadow_3002_5219"/>
</filter>
<filter id="filter4_i_3002_5219" x="174.991" y="27.8721" width="37.771" height="13.352" filterUnits="userSpaceOnUse" color-interpolation-filters="sRGB">
<feFlood flood-opacity="0" result="BackgroundImageFix"/>
<feBlend mode="normal" in="SourceGraphic" in2="BackgroundImageFix" result="shape"/>
<feColorMatrix in="SourceAlpha" type="matrix" values="0 0 0 0 0 0 0 0 0 0 0 0 0 0 0 0 0 0 127 0" result="hardAlpha"/>
<feOffset dx="0.0356032" dy="0.0356032"/>
<feGaussianBlur stdDeviation="0.0296694"/>
<feComposite in2="hardAlpha" operator="arithmetic" k2="-1" k3="1"/>
<feColorMatrix type="matrix" values="0 0 0 0 1 0 0 0 0 1 0 0 0 0 1 0 0 0 0.9 0"/>
<feBlend mode="normal" in2="shape" result="effect1_innerShadow_3002_5219"/>
</filter>
<filter id="filter5_df_3002_5219" x="175.187" y="23.6753" width="37.7453" height="18.6795" filterUnits="userSpaceOnUse" color-interpolation-filters="sRGB">
<feFlood flood-opacity="0" result="BackgroundImageFix"/>
<feColorMatrix in="SourceAlpha" type="matrix" values="0 0 0 0 0 0 0 0 0 0 0 0 0 0 0 0 0 0 127 0" result="hardAlpha"/>
<feOffset dy="0.0593387"/>
<feGaussianBlur stdDeviation="0.0237355"/>
<feComposite in2="hardAlpha" operator="out"/>
<feColorMatrix type="matrix" values="0 0 0 0 0 0 0 0 0 0 0 0 0 0 0 0 0 0 0.5 0"/>
<feBlend mode="normal" in2="BackgroundImageFix" result="effect1_dropShadow_3002_5219"/>
<feBlend mode="normal" in="SourceGraphic" in2="effect1_dropShadow_3002_5219" result="shape"/>
<feGaussianBlur stdDeviation="0.0178016" result="effect2_foregroundBlur_3002_5219"/>
</filter>
</defs>
</svg>
