<svg width="152" height="24" viewBox="0 0 152 24" fill="none" xmlns="http://www.w3.org/2000/svg">
<path d="M92.7897 15.418C92.0265 15.1684 91.4698 14.7941 91.1195 14.295C90.7692 13.7958 90.5941 13.2094 90.5941 12.5356C90.5941 12.0489 90.6754 11.606 90.838 11.2067C91.0132 10.7949 91.2696 10.4455 91.6074 10.1585C91.9452 9.85903 92.3706 9.62819 92.8835 9.46598C93.4089 9.30376 94.0219 9.22266 94.7225 9.22266H99.414V19.1427H96.9369V15.7174H95.1542L92.9961 19.1427H90.2188L92.7897 15.418ZM93.0711 12.5356C93.0711 12.9598 93.2088 13.2718 93.484 13.4714C93.7717 13.6711 94.1533 13.7709 94.6287 13.7709H96.9369V11.2815H94.6287C94.1533 11.2815 93.7717 11.3876 93.484 11.5997C93.2088 11.7994 93.0711 12.1113 93.0711 12.5356Z" fill="#1E293B"/>
<path d="M79.3301 9.22266H81.8072V15.5864L86.2359 9.22266H88.5253V19.1427H86.0482V12.7789L81.6195 19.1427H79.3301V9.22266Z" fill="#1E293B"/>
<path d="M75.5427 19.1427H67.4922V9.22266H69.9693V17.0838H73.835V9.22266H76.3121V17.0838H77.7195V21.4823H75.5427V19.1427Z" fill="#1E293B"/>
<path d="M59.6892 19.3673C59.1512 19.3673 58.6758 19.2924 58.263 19.1427C57.8501 18.9804 57.4998 18.7621 57.2121 18.4876C56.9243 18.2006 56.7054 17.8699 56.5553 17.4956C56.4051 17.1087 56.3301 16.6907 56.3301 16.2415C56.3301 14.245 57.5186 13.2468 59.8956 13.2468H62.8606V12.7789C62.8606 12.13 62.7104 11.6746 62.4102 11.4125C62.1225 11.1505 61.6596 11.0195 61.0215 11.0195C60.4586 11.0195 60.052 11.1193 59.8017 11.319C59.5515 11.5061 59.4077 11.7432 59.3701 12.0302H56.8931C56.9181 11.6059 57.0244 11.2067 57.2121 10.8323C57.4122 10.458 57.6875 10.1398 58.0378 9.87775C58.4006 9.60323 58.8384 9.3911 59.3514 9.24137C59.8643 9.07915 60.4523 8.99805 61.1154 8.99805C61.7534 8.99805 62.3289 9.06668 62.8418 9.20393C63.3673 9.34119 63.8114 9.5658 64.1742 9.87775C64.5495 10.1772 64.8372 10.5703 65.0374 11.0569C65.2376 11.5436 65.3377 12.13 65.3377 12.8163V16.6159C65.3377 17.1399 65.3439 17.6016 65.3564 18.0009C65.3814 18.3877 65.419 18.7683 65.469 19.1427H63.1608C63.1108 18.8681 63.0795 18.6623 63.067 18.525C63.067 18.3753 63.067 18.1569 63.067 17.8699C62.7918 18.2692 62.3727 18.6186 61.8097 18.918C61.2592 19.2175 60.5524 19.3673 59.6892 19.3673ZM60.4586 17.4581C60.7588 17.4581 61.0528 17.4207 61.3405 17.3458C61.6283 17.2585 61.8848 17.1337 62.1099 16.9715C62.3351 16.7968 62.5165 16.5784 62.6542 16.3164C62.7918 16.0544 62.8606 15.7486 62.8606 15.3993V14.9313H60.3647C59.8893 14.9313 59.514 15.0436 59.2388 15.2682C58.9761 15.4804 58.8447 15.7736 58.8447 16.1479C58.8447 16.5472 58.9823 16.8654 59.2575 17.1025C59.5328 17.3396 59.9331 17.4581 60.4586 17.4581Z" fill="#1E293B"/>
<path d="M49.9312 11.2815H46.7598V9.22266H55.5797V11.2815H52.4083V19.1427H49.9312V11.2815Z" fill="#1E293B"/>
<path d="M37.9534 23.1107C37.7657 23.1107 37.5781 23.0919 37.3904 23.0545V20.9582C37.5781 20.9956 37.7657 21.0144 37.9534 21.0144C38.3287 21.0144 38.6164 20.8709 38.8166 20.5839C39.0293 20.3093 39.267 19.8289 39.5297 19.1427L35.3262 9.22266H38.1035L40.8058 16.0731L43.2829 9.22266H45.835L42.0068 19.1427C41.7316 19.8414 41.4688 20.4404 41.2186 20.9395C40.9809 21.4511 40.712 21.8629 40.4117 22.1748C40.1114 22.4992 39.7674 22.7363 39.3796 22.8861C38.9918 23.0358 38.5164 23.1107 37.9534 23.1107Z" fill="#1E293B"/>
<path d="M25.0059 9.22266H34.0134V19.1427H31.5364V11.2815H27.4829V19.1427H25.0059V9.22266Z" fill="#1E293B"/>
<path d="M18.6253 19.3673C17.9497 19.3673 17.3054 19.2674 16.6924 19.0678C16.0919 18.8557 15.5665 18.5437 15.1161 18.1319C14.6657 17.7077 14.3091 17.1774 14.0464 16.541C13.7837 15.8921 13.6523 15.1372 13.6523 14.2762V13.9019C13.6523 13.0784 13.7774 12.3609 14.0277 11.7494C14.2779 11.138 14.6219 10.6327 15.0598 10.2334C15.4976 9.8216 16.0043 9.51588 16.5798 9.31624C17.1553 9.10411 17.7746 8.99805 18.4376 8.99805C20.0014 8.99805 21.1899 9.40982 22.0031 10.2334C22.8163 11.0569 23.2229 12.2486 23.2229 13.8083V14.8565H16.1857C16.1982 15.2932 16.2733 15.6738 16.4109 15.9982C16.5485 16.3102 16.7299 16.5659 16.9551 16.7656C17.1803 16.9652 17.4368 17.115 17.7245 17.2148C18.0248 17.3021 18.325 17.3458 18.6253 17.3458C19.2633 17.3458 19.745 17.2522 20.0702 17.0651C20.3955 16.8779 20.627 16.6034 20.7646 16.2415H23.0352C22.8351 17.2772 22.3409 18.0571 21.5527 18.5811C20.7646 19.1052 19.7888 19.3673 18.6253 19.3673ZM18.5315 11.0195C18.2437 11.0195 17.956 11.0569 17.6682 11.1318C17.393 11.2067 17.149 11.3252 16.9364 11.4874C16.7237 11.6496 16.5485 11.868 16.4109 12.1425C16.2733 12.417 16.1982 12.7477 16.1857 13.1345H20.8209C20.8084 12.7227 20.7396 12.3796 20.6145 12.1051C20.5019 11.8306 20.3392 11.6122 20.1265 11.45C19.9264 11.2878 19.6887 11.1755 19.4134 11.1131C19.1382 11.0507 18.8442 11.0195 18.5315 11.0195Z" fill="#1E293B"/>
<path d="M0 9.76562H3.06358V19.1485H0V9.76562Z" fill="#DD2F41"/>
<path d="M5.44188 0H0V2.9489H5.44188C7.21996 2.9489 8.6667 4.46085 8.6667 6.31908C8.6667 8.17731 7.21996 9.68925 5.44188 9.68925H0L2.82172 12.6382H5.44188C8.78138 12.6382 11.4884 9.8091 11.4884 6.31908C11.4884 2.82905 8.78138 0 5.44188 0Z" fill="#DD2F41"/>
<path d="M9.61075 12.8301C8.6351 13.4114 7.51441 13.7763 6.31641 13.8618L8.80143 19.1492H12.635L9.66506 12.8301H9.61075Z" fill="#DD2F41"/>
<path d="M144.428 19.3312C143.748 19.3312 143.1 19.2287 142.482 19.0237C141.878 18.806 141.349 18.4793 140.895 18.0437C140.442 17.6082 140.083 17.0637 139.819 16.4104C139.554 15.757 139.422 14.9884 139.422 14.1045V13.7201C139.422 12.8874 139.554 12.1572 139.819 11.5295C140.083 10.9018 140.442 10.3766 140.895 9.9538C141.349 9.53105 141.878 9.21719 142.482 9.01222C143.1 8.79444 143.748 8.68555 144.428 8.68555C145.108 8.68555 145.751 8.79444 146.355 9.01222C146.96 9.21719 147.489 9.53105 147.942 9.9538C148.408 10.3766 148.773 10.9018 149.038 11.5295C149.302 12.1572 149.435 12.8874 149.435 13.7201V14.1045C149.435 14.9756 149.302 15.7378 149.038 16.3912C148.773 17.0445 148.408 17.5889 147.942 18.0245C147.489 18.4601 146.96 18.7867 146.355 19.0045C145.751 19.2223 145.108 19.3312 144.428 19.3312ZM144.428 17.179C145.134 17.179 145.719 16.9228 146.185 16.4104C146.664 15.8979 146.903 15.1293 146.903 14.1045V13.7201C146.903 12.785 146.664 12.074 146.185 11.5872C145.719 11.0875 145.134 10.8377 144.428 10.8377C143.71 10.8377 143.118 11.0875 142.652 11.5872C142.186 12.074 141.953 12.785 141.953 13.7201V14.1045C141.953 15.1421 142.186 15.9172 142.652 16.4296C143.118 16.9292 143.71 17.179 144.428 17.179Z" fill="#1E293B"/>
<path d="M132.884 11.0298H129.691V8.91602H138.571V11.0298H135.378V19.1005H132.884V11.0298Z" fill="#1E293B"/>
<path d="M119.766 8.91602H124.791C125.433 8.91602 125.981 8.98647 126.435 9.12739C126.901 9.2555 127.285 9.44125 127.587 9.68466C127.889 9.92806 128.11 10.2163 128.248 10.5494C128.387 10.8824 128.456 11.2476 128.456 11.6447C128.456 12.1187 128.311 12.5671 128.021 12.9898C127.744 13.3997 127.36 13.6752 126.869 13.8161C127.486 13.9698 127.965 14.2645 128.305 14.7C128.658 15.1228 128.834 15.6224 128.834 16.1989C128.834 17.0828 128.532 17.7874 127.927 18.3126C127.322 18.8379 126.403 19.1005 125.169 19.1005H119.766V8.91602ZM124.678 17.0636C125.244 17.0636 125.66 16.9803 125.924 16.8138C126.202 16.6344 126.34 16.3526 126.34 15.9683C126.34 15.584 126.208 15.3085 125.943 15.142C125.691 14.9626 125.27 14.873 124.678 14.873H122.259V17.0636H124.678ZM124.432 12.9898C125.011 12.9898 125.408 12.9065 125.622 12.74C125.849 12.5735 125.962 12.3172 125.962 11.9714C125.962 11.6383 125.849 11.3885 125.622 11.2219C125.395 11.0426 124.999 10.9529 124.432 10.9529H122.259V12.9898H124.432Z" fill="#1E293B"/>
<path d="M114.43 16.3527H109.537L108.536 19.1006H105.777L110.689 5.64941H113.523L118.435 19.1006H115.45L114.43 16.3527ZM110.406 13.9699H113.58L111.993 9.30045L110.406 13.9699Z" fill="#1E293B"/>
</svg>
