<svg width="170" height="27" viewBox="0 0 170 27" fill="none" xmlns="http://www.w3.org/2000/svg">
<path d="M104.388 17.3457C103.53 17.065 102.904 16.6438 102.509 16.0823C102.115 15.5208 101.918 14.861 101.918 14.103C101.918 13.5555 102.01 13.0572 102.193 12.608C102.39 12.1447 102.678 11.7517 103.058 11.4288C103.438 11.0919 103.917 10.8322 104.494 10.6497C105.085 10.4672 105.775 10.376 106.563 10.376H111.841V21.536H109.054V17.6826H107.048L104.621 21.536H101.496L104.388 17.3457ZM104.705 14.103C104.705 14.5803 104.86 14.9312 105.169 15.1558C105.493 15.3804 105.922 15.4927 106.457 15.4927H109.054V12.6922H106.457C105.922 12.6922 105.493 12.8115 105.169 13.0502C104.86 13.2748 104.705 13.6257 104.705 14.103Z" fill="#1E293B"/>
<path d="M89.2461 10.376H92.0328V17.5352L97.0151 10.376H99.5907V21.536H96.804V14.3767L91.8217 21.536H89.2461V10.376Z" fill="#1E293B"/>
<path d="M84.9865 21.536H75.9297V10.376H78.7164V19.2197H83.0654V10.376H85.8521V19.2197H87.4355V24.1681H84.9865V21.536Z" fill="#1E293B"/>
<path d="M67.1501 21.7884C66.5449 21.7884 66.01 21.7042 65.5456 21.5357C65.0811 21.3532 64.687 21.1076 64.3633 20.7987C64.0396 20.4759 63.7933 20.1039 63.6244 19.6827C63.4555 19.2476 63.3711 18.7773 63.3711 18.272C63.3711 16.0259 64.7082 14.9029 67.3823 14.9029H70.7179V14.3765C70.7179 13.6465 70.549 13.1341 70.2112 12.8393C69.8875 12.5446 69.3668 12.3972 68.649 12.3972C68.0156 12.3972 67.5582 12.5095 67.2767 12.7341C66.9952 12.9446 66.8334 13.2113 66.7912 13.5342H64.0044C64.0326 13.0569 64.1522 12.6077 64.3633 12.1866C64.5885 11.7655 64.8982 11.4075 65.2922 11.1127C65.7004 10.8039 66.193 10.5652 66.77 10.3968C67.3471 10.2143 68.0086 10.123 68.7545 10.123C69.4723 10.123 70.1197 10.2003 70.6968 10.3547C71.2879 10.5091 71.7876 10.7618 72.1957 11.1127C72.6179 11.4496 72.9416 11.8918 73.1668 12.4393C73.392 12.9867 73.5046 13.6465 73.5046 14.4186V18.6931C73.5046 19.2827 73.5117 19.8021 73.5257 20.2513C73.5539 20.6864 73.5961 21.1146 73.6524 21.5357H71.0557C70.9994 21.2269 70.9642 20.9953 70.9501 20.8409C70.9501 20.6724 70.9501 20.4267 70.9501 20.1039C70.6405 20.5531 70.169 20.9461 69.5357 21.283C68.9164 21.62 68.1212 21.7884 67.1501 21.7884ZM68.0156 19.6406C68.3534 19.6406 68.6842 19.5985 69.0079 19.5143C69.3316 19.416 69.6201 19.2757 69.8734 19.0932C70.1268 18.8966 70.3309 18.651 70.4857 18.3562C70.6405 18.0614 70.7179 17.7175 70.7179 17.3244V16.798H67.9101C67.3752 16.798 66.953 16.9243 66.6434 17.177C66.3478 17.4157 66.2 17.7455 66.2 18.1667C66.2 18.6159 66.3549 18.9738 66.6645 19.2406C66.9741 19.5073 67.4245 19.6406 68.0156 19.6406Z" fill="#1E293B"/>
<path d="M56.1733 12.6922H52.6055V10.376H62.5279V12.6922H58.96V21.536H56.1733V12.6922Z" fill="#1E293B"/>
<path d="M42.6978 26C42.4867 26 42.2756 25.9789 42.0645 25.9368V23.5785C42.2756 23.6206 42.4867 23.6416 42.6978 23.6416C43.12 23.6416 43.4437 23.4802 43.6689 23.1573C43.9082 22.8485 44.1756 22.3081 44.4712 21.536L39.7422 10.376H42.8667L45.9068 18.0827L48.6935 10.376H51.5646L47.2579 21.536C46.9483 22.3221 46.6527 22.9959 46.3712 23.5574C46.1038 24.133 45.8012 24.5962 45.4634 24.9471C45.1256 25.3121 44.7386 25.5788 44.3023 25.7473C43.866 25.9158 43.3311 26 42.6978 26Z" fill="#1E293B"/>
<path d="M28.1328 10.376H38.2663V21.536H35.4796V12.6922H30.9195V21.536H28.1328V10.376Z" fill="#1E293B"/>
<path d="M20.9539 21.7884C20.1939 21.7884 19.4691 21.6761 18.7794 21.4515C18.1039 21.2129 17.5127 20.8619 17.0061 20.3987C16.4994 19.9214 16.0983 19.3248 15.8027 18.6089C15.5072 17.8789 15.3594 17.0296 15.3594 16.061V15.6399C15.3594 14.7134 15.5001 13.9062 15.7816 13.2184C16.0631 12.5305 16.4501 11.962 16.9427 11.5128C17.4353 11.0495 18.0054 10.7056 18.6528 10.481C19.3002 10.2424 19.9969 10.123 20.7428 10.123C22.5021 10.123 23.8392 10.5863 24.754 11.5128C25.6688 12.4393 26.1262 13.7799 26.1262 15.5346V16.7138H18.2094C18.2235 17.2051 18.308 17.6332 18.4628 17.9982C18.6176 18.3492 18.8217 18.6369 19.075 18.8615C19.3283 19.0861 19.6169 19.2546 19.9406 19.3669C20.2784 19.4652 20.6161 19.5143 20.9539 19.5143C21.6717 19.5143 22.2136 19.409 22.5795 19.1984C22.9454 18.9879 23.2058 18.679 23.3606 18.272H25.9151C25.6899 19.4371 25.134 20.3144 24.2473 20.904C23.3606 21.4936 22.2628 21.7884 20.9539 21.7884ZM20.8484 12.3972C20.5247 12.3972 20.201 12.4393 19.8772 12.5235C19.5676 12.6077 19.2932 12.7411 19.0539 12.9236C18.8146 13.1061 18.6176 13.3517 18.4628 13.6606C18.308 13.9694 18.2235 14.3414 18.2094 14.7766H23.424C23.4099 14.3133 23.3325 13.9273 23.1917 13.6184C23.0651 13.3096 22.8821 13.064 22.6428 12.8815C22.4177 12.699 22.1502 12.5726 21.8406 12.5024C21.531 12.4323 21.2002 12.3972 20.8484 12.3972Z" fill="#1E293B"/>
<path d="M0 10.9863H3.44652V21.5421H0V10.9863Z" fill="#DD2F41"/>
<path d="M6.12212 0H0V3.31752H6.12212C8.12246 3.31752 9.75003 5.01845 9.75003 7.10896C9.75003 9.19947 8.12246 10.9004 6.12212 10.9004H0L3.17443 14.2179H6.12212C9.87905 14.2179 12.9245 11.0352 12.9245 7.10896C12.9245 3.18268 9.87905 0 6.12212 0Z" fill="#DD2F41"/>
<path d="M10.8116 14.4336C9.714 15.0876 8.45322 15.498 7.10547 15.5943L9.90112 21.5426H14.2139L10.8727 14.4336H10.8116Z" fill="#DD2F41"/>
<path d="M162.482 21.7478C161.717 21.7478 160.987 21.6325 160.293 21.402C159.613 21.1569 159.017 20.7894 158.507 20.2994C157.997 19.8094 157.593 19.1969 157.296 18.4619C156.998 17.7269 156.85 16.8622 156.85 15.8678V15.4354C156.85 14.4986 156.998 13.6771 157.296 12.9709C157.593 12.2648 157.997 11.6739 158.507 11.1983C159.017 10.7227 159.613 10.3696 160.293 10.139C160.987 9.89399 161.717 9.77148 162.482 9.77148C163.247 9.77148 163.97 9.89399 164.65 10.139C165.33 10.3696 165.925 10.7227 166.435 11.1983C166.959 11.6739 167.37 12.2648 167.668 12.9709C167.965 13.6771 168.114 14.4986 168.114 15.4354V15.8678C168.114 16.8478 167.965 17.7053 167.668 18.4403C167.37 19.1753 166.959 19.7878 166.435 20.2778C165.925 20.7678 165.33 21.1353 164.65 21.3803C163.97 21.6253 163.247 21.7478 162.482 21.7478ZM162.482 19.3266C163.275 19.3266 163.934 19.0384 164.458 18.4619C164.997 17.8854 165.266 17.0207 165.266 15.8678V15.4354C165.266 14.3833 164.997 13.5835 164.458 13.0358C163.934 12.4737 163.275 12.1927 162.482 12.1927C161.674 12.1927 161.008 12.4737 160.484 13.0358C159.96 13.5835 159.698 14.3833 159.698 15.4354V15.8678C159.698 17.0351 159.96 17.907 160.484 18.4835C161.008 19.0456 161.674 19.3266 162.482 19.3266Z" fill="#1E293B"/>
<path d="M149.496 12.4083H145.904V10.0303H155.894V12.4083H152.302V21.4878H149.496V12.4083Z" fill="#1E293B"/>
<path d="M134.736 10.0303H140.39C141.112 10.0303 141.729 10.1095 142.239 10.2681C142.763 10.4122 143.195 10.6212 143.535 10.895C143.875 11.1688 144.123 11.4931 144.279 11.8678C144.435 12.2425 144.513 12.6533 144.513 13.1C144.513 13.6333 144.35 14.1377 144.024 14.6133C143.712 15.0745 143.28 15.3843 142.728 15.5429C143.422 15.7158 143.96 16.0473 144.343 16.5373C144.74 17.0129 144.938 17.5749 144.938 18.2235C144.938 19.2179 144.598 20.0106 143.918 20.6015C143.238 21.1924 142.203 21.4878 140.815 21.4878H134.736V10.0303ZM140.262 19.1963C140.9 19.1963 141.367 19.1026 141.665 18.9153C141.977 18.7135 142.133 18.3964 142.133 17.9641C142.133 17.5317 141.984 17.2219 141.686 17.0345C141.403 16.8327 140.928 16.7318 140.262 16.7318H137.542V19.1963H140.262ZM139.986 14.6133C140.638 14.6133 141.084 14.5196 141.325 14.3322C141.58 14.1449 141.708 13.8567 141.708 13.4675C141.708 13.0928 141.58 12.8118 141.325 12.6244C141.07 12.4227 140.624 12.3218 139.986 12.3218H137.542V14.6133H139.986Z" fill="#1E293B"/>
<path d="M128.734 18.3967H123.229L122.103 21.488H119L124.526 6.35547H127.714L133.24 21.488H129.882L128.734 18.3967ZM124.207 15.7161H127.778L125.992 10.4629L124.207 15.7161Z" fill="#1E293B"/>
</svg>
